<?xml version="1.0" encoding="utf-8"?>
<!-- Generator: Adobe Illustrator 20.1.0, SVG Export Plug-In . SVG Version: 6.00 Build 0)  -->
<svg version="1.1" xmlns="http://www.w3.org/2000/svg" xmlns:xlink="http://www.w3.org/1999/xlink" x="0px" y="0px"
	 viewBox="0 0 29 29" style="enable-background:new 0 0 29 29;" xml:space="preserve">
<style type="text/css">
	.st0{enable-background:new    ;}
	.st1{fill:#FFFFFF;}
	.st2{fill-rule:evenodd;clip-rule:evenodd;fill:#FFFFFF;}
	.st3{fill:none;stroke:#FFFFFF;stroke-miterlimit:100;}
</style>
<g id="Ellipse_2_copy_6_1_" class="st0">
	<g id="Ellipse_2_copy_6">
		<g>
			<path class="st1" d="M14.5,2C21.4,2,27,7.6,27,14.5C27,21.4,21.4,27,14.5,27C7.6,27,2,21.4,2,14.5C2,7.6,7.6,2,14.5,2 M14.5,0
				C6.5,0,0,6.5,0,14.5C0,22.5,6.5,29,14.5,29c8,0,14.5-6.5,14.5-14.5C29,6.5,22.5,0,14.5,0L14.5,0z"/>
		</g>
	</g>
</g>
<g id="user_1_" class="st0">
	<g id="user">
		<g>
			<path class="st2" d="M23.2,23.6c0-0.1,0-0.2-0.1-0.4c-0.5-2.9-2.5-5.4-5.3-6.5c1.6-1.1,2.7-2.9,2.7-4.9c0-3.3-2.8-5.9-6.3-5.9
				c-3.5,0-6.3,2.7-6.3,5.9c0,2,1.1,3.8,2.7,4.9C8,17.9,6,20.3,5.6,23.3c-0.1,0.1-0.1,0.2-0.1,0.4l0,0.1c0,0.5,0.4,0.8,0.9,0.8
				c0.5,0,0.9-0.4,0.9-0.8l0,0h0c0.4-3.3,3.3-5.8,6.9-5.9c0.1,0,0.2,0,0.2,0c0.1,0,0.2,0,0.2,0c3.5,0.1,6.4,2.7,6.9,5.9h0l0,0
				c0,0.5,0.4,0.8,0.9,0.8C22.8,24.6,23.2,24.2,23.2,23.6L23.2,23.6z M14.3,16.1c-2.5,0-4.5-1.9-4.5-4.2c0-2.3,2-4.2,4.5-4.2
				c2.5,0,4.5,1.9,4.5,4.2C18.8,14.2,16.8,16.1,14.3,16.1z"/>
		</g>
		<g>
			<path class="st3" d="M23.2,23.6c0-0.1,0-0.2-0.1-0.4c-0.5-2.9-2.5-5.4-5.3-6.5c1.6-1.1,2.7-2.9,2.7-4.9c0-3.3-2.8-5.9-6.3-5.9
				c-3.5,0-6.3,2.7-6.3,5.9c0,2,1.1,3.8,2.7,4.9C8,17.9,6,20.3,5.6,23.3c-0.1,0.1-0.1,0.2-0.1,0.4l0,0.1c0,0.5,0.4,0.8,0.9,0.8
				c0.5,0,0.9-0.4,0.9-0.8l0,0h0c0.4-3.3,3.3-5.8,6.9-5.9c0.1,0,0.2,0,0.2,0c0.1,0,0.2,0,0.2,0c3.5,0.1,6.4,2.7,6.9,5.9h0l0,0
				c0,0.5,0.4,0.8,0.9,0.8C22.8,24.6,23.2,24.2,23.2,23.6L23.2,23.6z M14.3,16.1c-2.5,0-4.5-1.9-4.5-4.2c0-2.3,2-4.2,4.5-4.2
				c2.5,0,4.5,1.9,4.5,4.2C18.8,14.2,16.8,16.1,14.3,16.1z"/>
		</g>
	</g>
</g>
</svg>
