<?xml version="1.0" encoding="utf-8"?>
<!-- Generator: Adobe Illustrator 20.1.0, SVG Export Plug-In . SVG Version: 6.00 Build 0)  -->
<svg version="1.1" id="Forma_1_1_" xmlns="http://www.w3.org/2000/svg" xmlns:xlink="http://www.w3.org/1999/xlink" x="0px" y="0px"
	 viewBox="0 0 18.56 24.94" style="enable-background:new 0 0 18.56 24.94;" xml:space="preserve">
<style type="text/css">
	.st0{fill-rule:evenodd;clip-rule:evenodd;fill:#FFFFFF;}
	.st1{fill:none;stroke:#FFFFFF;stroke-width:0.5333;stroke-miterlimit:100;}
</style>
<g id="Forma_1">
	<g>
		<path class="st0" d="M7.06,9.45h4.51c0.41,0,0.75-0.34,0.75-0.76c0-0.42-0.34-0.76-0.75-0.76H7.06c-0.41,0-0.75,0.34-0.75,0.76
			C6.31,9.1,6.65,9.45,7.06,9.45z M16.84,4.87h-3.01c-0.04-2.53-2.04-4.57-4.5-4.57c-2.47,0-4.47,2.04-4.5,4.57H1.8
			c-0.83,0-1.5,0.68-1.5,1.52v16.76c0,0.84,0.67,1.52,1.5,1.52h15.03c0.83,0,1.5-0.68,1.5-1.52V6.4
			C18.34,5.56,17.66,4.87,16.84,4.87z M9.32,1.83c1.63,0,2.96,1.36,3,3.05h-6C6.35,3.19,7.68,1.83,9.32,1.83z M16.84,23.16H1.8V6.4
			h15.03V23.16z"/>
	</g>
	<g>
		<path class="st1" d="M7.06,9.45h4.51c0.41,0,0.75-0.34,0.75-0.76c0-0.42-0.34-0.76-0.75-0.76H7.06c-0.41,0-0.75,0.34-0.75,0.76
			C6.31,9.1,6.65,9.45,7.06,9.45z M16.84,4.87h-3.01c-0.04-2.53-2.04-4.57-4.5-4.57c-2.47,0-4.47,2.04-4.5,4.57H1.8
			c-0.83,0-1.5,0.68-1.5,1.52v16.76c0,0.84,0.67,1.52,1.5,1.52h15.03c0.83,0,1.5-0.68,1.5-1.52V6.4
			C18.34,5.56,17.66,4.87,16.84,4.87z M9.32,1.83c1.63,0,2.96,1.36,3,3.05h-6C6.35,3.19,7.68,1.83,9.32,1.83z M16.84,23.16H1.8V6.4
			h15.03V23.16z"/>
	</g>
</g>
</svg>
