<?xml version="1.0" encoding="utf-8"?>
<!-- Generator: Adobe Illustrator 20.1.0, SVG Export Plug-In . SVG Version: 6.00 Build 0)  -->
<svg version="1.1" id="Слой_1" xmlns="http://www.w3.org/2000/svg" xmlns:xlink="http://www.w3.org/1999/xlink" x="0px" y="0px"
	 viewBox="0 0 29.4 29" style="enable-background:new 0 0 29.4 29;" xml:space="preserve">
<style type="text/css">
	.st0{enable-background:new    ;}
	.st1{fill:none;stroke:#3D3F3C;stroke-width:2;stroke-miterlimit:100;}
	.st2{fill:#3D3F3C;stroke:#3D3F3C;stroke-miterlimit:10;}
</style>
<g id="Ellipse_2_copy_3_1_" class="st0">
	<g id="Ellipse_2_copy_3">
		<g>
			<ellipse class="st1" cx="14.7" cy="14.5" rx="13.7" ry="13.5"/>
		</g>
	</g>
</g>
<g id="Google_Plus_Logo_1_" class="st0">
	<g id="Google_Plus_Logo">
		<g>
			<path class="st2" d="M14.21,8.27c-1.53,0-2.55,0.31-3.46,1.02c-0.71,0.61-1.22,1.43-1.22,2.24c0,1.32,1.02,2.65,3.06,2.65
				c0.2,0,0.41,0,0.61,0v0.1c-0.1,0.2-0.2,0.31-0.2,0.61c0,0.51,0.31,0.82,0.51,1.12l0,0h-0.1c-0.82,0.1-2.34,0.1-3.46,0.82
				C8.6,17.54,8.5,18.56,8.5,18.86c0,1.22,1.22,2.45,3.97,2.45c3.16,0,4.79-1.63,4.79-3.16c0-1.22-0.71-1.73-1.53-2.34l-0.51-0.61
				c-0.2-0.2-0.51-0.31-0.51-0.71c0-0.41,0.31-0.61,0.51-0.82l0,0c0.71-0.51,1.53-1.12,1.53-2.45s-0.92-1.94-1.32-2.24h1.12l0,0
				l0.92-0.51c0,0,0,0,0-0.1c0,0,0,0-0.1,0L14.21,8.27C14.21,8.37,14.21,8.27,14.21,8.27z M16.24,18.66c0,1.12-1.02,1.83-2.75,1.83
				c-1.94,0-3.26-0.82-3.26-2.04c0-0.82,0.51-1.43,1.53-1.73c0.82-0.31,1.94-0.31,1.94-0.31c0.2,0,0.31,0,0.41,0
				C15.53,17.33,16.24,17.84,16.24,18.66z M14.71,13.26c-0.31,0.31-0.82,0.51-1.22,0.51c-1.63,0-2.34-1.94-2.34-3.06
				c0-0.51,0.1-0.92,0.41-1.22c0.31-0.31,0.82-0.51,1.32-0.51c1.53,0,2.34,1.83,2.34,3.16C15.22,12.24,15.22,12.85,14.71,13.26z
				 M23.37,14.28h-1.73v-1.63c0,0,0-0.1-0.1-0.1h-0.71c0,0-0.1,0-0.1,0.1v1.63h-1.73c0,0-0.1,0-0.1,0.1v0.71c0,0,0,0.1,0.1,0.1h1.73
				v1.63c0,0,0,0.1,0.1,0.1h0.71c0,0,0.1,0,0.1-0.1v-1.63h1.73c0,0,0.1,0,0.1-0.1L23.37,14.28C23.37,14.38,23.37,14.28,23.37,14.28z
				"/>
		</g>
	</g>
</g>
</svg>
