<?xml version="1.0" encoding="utf-8"?>
<!-- Generator: Adobe Illustrator 20.1.0, SVG Export Plug-In . SVG Version: 6.00 Build 0)  -->
<svg version="1.1" id="location_1_" xmlns="http://www.w3.org/2000/svg" xmlns:xlink="http://www.w3.org/1999/xlink" x="0px"
	 y="0px" viewBox="0 0 27.9 35.07" style="enable-background:new 0 0 27.9 35.07;" xml:space="preserve">
<style type="text/css">
	.st0{fill:#FFFFFF;}
</style>
<g id="location">
	<g>
		<path class="st0" d="M8.3,14.6c0,3.2,2.5,5.9,5.6,5.9s5.6-2.6,5.6-5.9c0-3.2-2.5-5.9-5.6-5.9S8.3,11.3,8.3,14.6z M16.7,14.6
			c0,1.6-1.2,2.9-2.8,2.9s-2.8-1.3-2.8-2.9s1.2-2.9,2.8-2.9S16.7,13,16.7,14.6z M26.4,7.9c-0.1-0.7-0.7-1.3-1.4-1.2
			c-0.8,0-1.4,0.7-1.4,1.5v0.1c0,0.4,0.2,0.8,0.5,1L24,9.4c0.8,1.6,1.2,3.3,1.2,5.2c0,2.9-1,5.5-2.7,7.6c-0.1,0.1-0.2,0.1-0.3,0.2
			L21,23.6l-0.1,0.1l-4.7,5l0,0L14,31.3l-2.3-2.5l0,0L7,23.6c-0.2-0.2-0.4-0.4-0.6-0.6l-0.6-0.7l0,0c-1.8-2.1-2.9-4.8-2.9-7.7
			C2.8,8.2,7.8,3,14,3c2.1,0,4.1,0.6,5.8,1.7l0,0C20.1,5,20.6,5.2,21,5.2c0.8,0,1.4-0.7,1.4-1.5V3.6c0-0.6-0.4-1.1-0.9-1.3
			C19.3,0.8,16.7,0,14,0C6.3,0,0,6.5,0,14.5c0,3.7,1.4,7.1,3.6,9.7c0.1,0.1,0.1,0.2,0.2,0.3l9.2,10c0,0,0,0.1,0.1,0.1
			c0.1,0.1,0.3,0.2,0.5,0.3c0.5,0.3,1.2,0.2,1.6-0.3c0.1-0.1,0.2-0.2,0.2-0.4l8.9-9.7c0.1-0.1,0.1-0.1,0.1-0.2
			c2.2-2.6,3.6-6,3.6-9.7C27.9,12.1,27.4,9.9,26.4,7.9z"/>
	</g>
</g>
</svg>
