<?xml version="1.0" encoding="utf-8"?>
<!-- Generator: Adobe Illustrator 20.1.0, SVG Export Plug-In . SVG Version: 6.00 Build 0)  -->
<svg version="1.1" id="Слой_1" xmlns="http://www.w3.org/2000/svg" xmlns:xlink="http://www.w3.org/1999/xlink" x="0px" y="0px"
	 viewBox="0 0 43 44" style="enable-background:new 0 0 43 44;" xml:space="preserve">
<style type="text/css">
	.st0{fill:#262C26;}
</style>
<path class="st0" d="M42.3,34.6c-1-1.2-2.6-1.4-3.5-1.2c-1.5,0.3-3,1.4-3.6,1.9h-0.7c0.4-0.4,0.7-0.8,1.1-1.3c1-1.2,1.6-2.4,2.1-3.5
	c0.1,0,0.3,0,0.4,0c2.3,0,4.1-2,4.1-4.4s-1.9-4.4-4.1-4.4c-0.4,0-0.8,0.1-1.1,0.2c-1-1.4-2.3-2.5-3.9-3.3c0.7-1.5,1.1-3.2,1.1-4.9
	c0-1.3-0.2-2.6-0.7-3.8c2-0.7,3.4-2.6,3.4-4.8c0-2.8-2.3-5.1-5.2-5.1c-2,0-3.8,1.2-4.7,2.9c-1.6-0.8-3.5-1.2-5.5-1.2
	S17.6,2.1,16,2.9C15.2,1.2,13.4,0,11.3,0C8.5,0,6.1,2.3,6.1,5.1c0,2.2,1.4,4.1,3.4,4.8c-0.4,1.2-0.7,2.5-0.7,3.8
	c0,1.7,0.4,3.4,1.1,4.9c-1.6,0.7-3,1.9-3.9,3.3c-0.4-0.1-0.8-0.2-1.1-0.2c-2.3,0-4.1,2-4.1,4.4s1.9,4.4,4.1,4.4c0.1,0,0.3,0,0.4,0
	c0.4,1.1,1.1,2.3,2.1,3.5c0.3,0.4,0.7,0.8,1.1,1.3H7.8c-0.6-0.5-2.1-1.6-3.6-1.9c-0.9-0.2-2.6,0-3.5,1.2C0,35.4-0.5,37,0.8,39.7
	C2.9,44.2,8.7,44,9.2,44c0,0,24.7,0,24.9,0c1.4,0,6.2-0.3,8.1-4.3C43.5,37,43,35.4,42.3,34.6z M38,23.6c1.2,0,2.2,1.1,2.2,2.5
	c0,1.3-0.9,2.4-2,2.5c0.3-1.5,0.2-2.8,0-3.7c-0.1-0.4-0.2-0.9-0.4-1.3C37.9,23.6,38,23.6,38,23.6z M4.8,24.9c-0.2,1-0.3,2.3,0,3.7
	c-1.1-0.1-2-1.2-2-2.5c0-1.4,1-2.5,2.2-2.5c0.1,0,0.2,0,0.2,0C5,24.1,4.9,24.5,4.8,24.9z M6.7,25.3c0.7-3.2,4-5.7,7.5-5.7
	c2.6,0,4.9,1.2,6.5,3.5c0.2,0.2,0.5,0.4,0.8,0.4s0.6-0.1,0.8-0.4c1.6-2.2,4-3.5,6.5-3.5c3.6,0,6.8,2.4,7.5,5.7
	c1.2,5.5-4.3,11.6-14.8,16.4C11,36.9,5.5,30.8,6.7,25.3z M31.7,1.9c1.8,0,3.2,1.4,3.2,3.2c0,1.4-0.9,2.6-2.3,3.1
	c-0.9-1.7-2.3-3.2-3.9-4.3C29.2,2.7,30.4,1.9,31.7,1.9z M21.5,3.6c5.9,0,10.7,4.6,10.7,10.2c0,1.5-0.4,3-1,4.3
	c-0.8-0.2-1.5-0.3-2.3-0.3c-2.8,0-5.4,1.2-7.3,3.3c-1.9-2.1-4.5-3.3-7.3-3.3c-0.8,0-1.6,0.1-2.3,0.3c-0.7-1.3-1-2.8-1-4.3
	C10.8,8.1,15.6,3.6,21.5,3.6z M8.1,5.1c0-1.8,1.5-3.2,3.2-3.2c1.3,0,2.5,0.8,3,2c-1.6,1.1-3,2.6-3.9,4.3C9,7.7,8.1,6.5,8.1,5.1z
	 M9.2,42.1c0,0-5,0.3-6.6-3.2c-0.7-1.5-0.8-2.6-0.3-3.2c0.4-0.5,1.3-0.6,1.6-0.5c1.1,0.2,2.5,1.3,2.9,1.7c0.2,0.2,0.4,0.3,0.7,0.3h3
	c2,1.7,4.5,3.4,7.5,4.9C13.2,42.1,9.2,42.1,9.2,42.1z M40.4,38.9c-1.6,3.4-6.6,3.2-6.6,3.2s-4,0-8.8,0c3-1.5,5.5-3.2,7.5-4.9h3.1
	c0.2,0,0.5-0.1,0.7-0.3c0.4-0.4,1.8-1.5,2.9-1.7c0.4-0.1,1.2,0,1.6,0.5C41.3,36.3,41.1,37.5,40.4,38.9z"/>
<path class="st0" d="M21.5,18.6c3,0,5.4-2.1,5.4-4.6s-2.4-4.6-5.4-4.6s-5.4,2.1-5.4,4.6S18.5,18.6,21.5,18.6z M21.5,11.3
	c1.9,0,3.5,1.2,3.5,2.7s-1.6,2.7-3.5,2.7S18,15.5,18,14S19.5,11.3,21.5,11.3z"/>
<path class="st0" d="M17.3,10.3c0.3,0,0.5-0.1,0.7-0.3s0.3-0.4,0.3-0.7c0-0.2-0.1-0.5-0.3-0.7c-0.2-0.2-0.4-0.3-0.7-0.3
	c-0.3,0-0.5,0.1-0.7,0.3S16.3,9,16.3,9.3c0,0.2,0.1,0.5,0.3,0.7C16.8,10.2,17,10.3,17.3,10.3z"/>
<path class="st0" d="M26,10.3c0.3,0,0.5-0.1,0.7-0.3C26.9,9.8,27,9.6,27,9.3c0-0.2-0.1-0.5-0.3-0.7c-0.2-0.2-0.4-0.3-0.7-0.3
	s-0.5,0.1-0.7,0.3C25.1,8.8,25,9,25,9.3c0,0.2,0.1,0.5,0.3,0.7S25.7,10.3,26,10.3z"/>
</svg>
