<?xml version="1.0" encoding="utf-8"?>
<!-- Generator: Adobe Illustrator 20.1.0, SVG Export Plug-In . SVG Version: 6.00 Build 0)  -->
<svg version="1.1" id="Слой_1" xmlns="http://www.w3.org/2000/svg" xmlns:xlink="http://www.w3.org/1999/xlink" x="0px" y="0px"
	 viewBox="0 0 40 49.2" style="enable-background:new 0 0 40 49.2;" xml:space="preserve">
<style type="text/css">
	.st0{fill:#262C26;}
</style>
<path class="st0" d="M5.1,22.8c-0.1-0.2-0.3-0.4-0.6-0.3c-0.2,0.1-0.4,0.4-0.3,0.6c0.5,1.3,1.3,2.4,2.3,3.3c0.1,0.1,0.2,0.1,0.3,0.1
	s0.3-0.1,0.3-0.2c0.2-0.2,0.1-0.5-0.1-0.6C6.2,24.9,5.5,23.9,5.1,22.8z"/>
<path class="st0" d="M40,14.1C40,6.3,33.7,0,26.1,0c-5.8,0-10.7,3.5-12.9,8.5c-0.5-0.1-1-0.1-1.4-0.1C5.3,8.4,0,13.7,0,20.3
	c0,5.4,3.6,10,8.6,11.4L8.5,32c-0.2,0.6-0.2,1.2,0.2,1.7c0.3,0.5,0.9,0.8,1.5,0.8h0.9c0,0.7-0.2,1.1-0.4,1.5
	c-0.3,0.6-0.5,1.3-0.5,2.7c0,1.3,0.3,2,0.5,2.7c0.2,0.5,0.4,1,0.4,2s-0.2,1.4-0.4,2c-0.3,0.6-0.5,1.3-0.5,2.7c0,0.5,0.4,0.9,0.9,0.9
	s0.9-0.4,0.9-0.9c0-1,0.2-1.4,0.4-2c0.3-0.6,0.5-1.3,0.5-2.7c0-1.3-0.3-2-0.5-2.7c-0.2-0.5-0.4-1-0.4-2s0.2-1.4,0.4-2
	c0.2-0.5,0.5-1.2,0.5-2.2h0.6c0.6,0,1.2-0.3,1.5-0.8s0.4-1.1,0.2-1.7l-0.1-0.3c2.6-0.7,4.8-2.3,6.3-4.5c0.4,0.2,0.9,0.3,1.3,0.4
	l-0.3,0.8c-0.2,0.6-0.2,1.2,0.2,1.7c0.3,0.5,0.9,0.8,1.5,0.8h1.4c0,0.1-0.1,0.2-0.1,0.3c0,1.2-0.2,1.8-0.5,2.5s-0.6,1.6-0.6,3.2
	c0,1.6,0.3,2.4,0.6,3.2c0.3,0.7,0.5,1.2,0.5,2.5c0,1.2-0.2,1.8-0.5,2.5s-0.6,1.6-0.6,3.2c0,0.5,0.4,0.9,0.9,0.9s0.9-0.4,0.9-0.9
	c0-1.2,0.2-1.8,0.5-2.5s0.6-1.6,0.6-3.2c0-1.6-0.3-2.4-0.6-3.2c-0.3-0.7-0.5-1.2-0.5-2.5c0-1.2,0.2-1.8,0.5-2.5s0.6-1.6,0.6-3.2
	c0-0.1,0-0.2-0.1-0.3h1c0.6,0,1.2-0.3,1.5-0.8s0.4-1.1,0.2-1.7l-0.3-0.7C35.5,26.1,40,20.6,40,14.1z M27,26.3l0.1,0.2l1,2.6H26h-2.1
	l1-2.6l0.1-0.2c-1-0.1-1.9-0.3-2.8-0.6c-0.3-0.1-0.6-0.2-0.9-0.3c-0.3-0.1-0.5-0.2-0.8-0.4c-4-2-6.7-6.1-6.7-10.9
	c0-1.2,0.2-2.4,0.5-3.5c0.1-0.3,0.2-0.6,0.3-0.9c0.1-0.3,0.2-0.6,0.4-0.8c1.9-4.2,6.1-7.1,11-7.1c6.7,0,12.1,5.5,12.1,12.2
	C38.2,20.5,33.3,25.8,27,26.3z M12.6,30.4l0.1,0.2l0.8,2.1h-1.7h-1.7l0.8-2.1l0.1-0.2c-5.2-0.4-9.2-4.7-9.2-10
	c0-5.6,4.5-10.1,10-10.1c0.3,0,0.6,0,0.8,0c-0.2,0.7-0.3,1.4-0.4,2.2c-0.1-0.2-0.2-0.3-0.4-0.3c-4.4,0-8.1,3.6-8.1,8.1
	c0,0.3,0.2,0.5,0.5,0.5c0.2,0,0.5-0.2,0.5-0.5c0-0.2,0-0.3,0-0.5c0.2-3.6,3.1-6.5,6.7-6.7c0.2,0,0.3,0,0.5,0s0.3-0.1,0.4-0.2
	c0,0.4-0.1,0.8-0.1,1.2c0,5.4,3.1,10.1,7.6,12.5C18,28.7,15.4,30.1,12.6,30.4z"/>
<path class="st0" d="M26.1,4.3c-3.8,0-7.1,2.3-8.7,5.5c-0.1,0.3-0.2,0.5-0.4,0.8c-0.1,0.3-0.2,0.6-0.3,0.9c-0.2,0.8-0.3,1.7-0.3,2.5
	c0,0.3,0.2,0.5,0.5,0.5c0.2,0,0.5-0.2,0.5-0.5c0-0.2,0-0.3,0-0.5c0-0.5,0.1-1,0.2-1.6c0.1-0.3,0.2-0.6,0.3-0.9
	c0.1-0.3,0.2-0.6,0.3-0.8c1.3-2.9,4.2-4.9,7.5-5.1c0.2,0,0.3,0,0.5,0s0.5-0.2,0.5-0.5C26.5,4.5,26.3,4.3,26.1,4.3z"/>
<path class="st0" d="M17.8,17.1c-0.1-0.2-0.3-0.3-0.6-0.3c-0.2,0.1-0.4,0.4-0.3,0.6c0.6,1.5,1.5,2.9,2.8,3.9
	c0.1,0.1,0.2,0.1,0.3,0.1c0.1,0,0.3-0.1,0.3-0.2c0.2-0.2,0.1-0.5-0.1-0.6C19.2,19.7,18.3,18.5,17.8,17.1z"/>
</svg>
