<?xml version="1.0" encoding="utf-8"?>
<!-- Generator: Adobe Illustrator 20.1.0, SVG Export Plug-In . SVG Version: 6.00 Build 0)  -->
<svg version="1.1" id="Слой_1" xmlns="http://www.w3.org/2000/svg" xmlns:xlink="http://www.w3.org/1999/xlink" x="0px" y="0px"
	 viewBox="0 0 52 58" style="enable-background:new 0 0 52 58;" xml:space="preserve">
<style type="text/css">
	.st0{fill:#262C26;}
</style>
<path class="st0" d="M21.6,30.9c0.2,0,0.3,0,0.5,0c2.2,0,4.1-0.7,5.4-2c1.1-1.2,1.6-2.7,1.5-4.6c-0.2-2.2-0.8-3.2-1.3-4.2
	c-0.2-0.4-0.5-0.8-0.7-1.3c-0.9-2.4,0.9-4.7,0.9-4.7c0.2-0.2,0.2-0.6,0-0.9c-0.2-0.3-0.5-0.4-0.9-0.3c-0.1,0-0.9,0.3-2,0.7l-2.3-2
	c-0.2-0.2-0.5-0.2-0.7-0.2c-3.5,0.9-5.1,1.8-5.7,2.3c-0.2-0.1-1.7-0.6-2.1-0.7c-0.7-0.2-0.8-0.2-1.1-0.1c-0.2,0.1-0.4,0.3-0.4,0.5
	s0,0.5,0.2,0.6c0,0,1.7,1.8,0.9,4.1c-0.1,0.3-0.2,0.6-0.4,0.9c-0.5,1.2-1.3,2.9-1.3,5.1c0,1.8,0.6,3.3,1.8,4.4
	c1.9,1.8,4.7,2.1,6.1,2.1 M22.1,13.1l1.6,1.3c-0.9,0.5-1.9,1-2.9,1.7l0,0c-0.9-0.6-1.8-1.1-2.6-1.5 M15.1,27.7
	c-0.9-0.8-1.3-2-1.3-3.3c0-1.9,0.7-3.4,1.2-4.5c0.2-0.4,0.3-0.7,0.4-1c0.5-1.5,0.3-2.9-0.1-3.8c1.1,0.4,2.7,1.1,4.2,2.1
	c-1.5,1.2-2.7,2.7-3.4,4.5c-1,3.1-0.4,5.2,0.3,6.4c0.2,0.3,0.4,0.6,0.6,0.9C16.3,28.6,15.7,28.2,15.1,27.7z M19.1,28.8
	C19.1,28.7,19.1,28.7,19.1,28.8c-0.2-0.1-3.2-1.9-1.6-6.7c1.2-3.5,5.6-5.8,8.2-6.9c-0.4,1.1-0.7,2.6-0.1,4.3
	c0.2,0.6,0.5,1.1,0.8,1.5c0.5,0.9,1,1.7,1.2,3.6c0.1,1.4-0.3,2.6-1.1,3.5c-1,1-2.5,1.6-4.3,1.6C21,29.5,19.8,29.2,19.1,28.8z"/>
<path class="st0" d="M20.5,58c-8.4,0-15.3-6.4-15.3-14.2s6.9-14.2,15.3-14.2S35.8,36,35.8,43.8c0,3.3-1.3,6.6-3.6,9.1
	c-0.4,0.4-1.1,0.5-1.5,0.1c-0.5-0.4-0.5-1-0.1-1.4c2-2.2,3.1-5,3.1-7.8c0-6.7-5.9-12.2-13.1-12.2S7.5,37.1,7.5,43.8S13.4,56,20.6,56
	c1.3,0,2.6-0.2,3.8-0.5c0.6-0.2,1.2,0.1,1.4,0.7c0.2,0.5-0.1,1.1-0.7,1.3C23.5,57.8,22,58,20.5,58z"/>
<path class="st0" d="M36.7,58c-8.4,0-15.3-6.4-15.3-14.2c0-3.2,1.2-6.4,3.4-8.9c0.4-0.4,1.1-0.5,1.5-0.2c0.5,0.3,0.5,1,0.2,1.4
	c-1.9,2.2-2.9,4.8-2.9,7.6c0,6.7,5.9,12.2,13.1,12.2s13.1-5.5,13.1-12.2s-5.9-12.2-13.1-12.2c-1.4,0-2.8,0.2-4.1,0.6
	c-0.6,0.2-1.2-0.1-1.4-0.6s0.1-1.1,0.7-1.3c1.5-0.5,3.1-0.7,4.8-0.7c8.4,0,15.3,6.4,15.3,14.2C52,51.6,45.1,58,36.7,58z"/>
<path class="st0" d="M38.1,12.2L35.7,15l1.3-3.4l-2.8-2.4l3.5,1.3l2.4-2.8l-1.2,3.4l2.8,2.3L38.1,12.2z"/>
<path class="st0" d="M23.4,4.5L21,7.3l1.3-3.4l-2.9-2.4l3.5,1.3L25.3,0l-1.2,3.4l2.8,2.3L23.4,4.5z"/>
<path class="st0" d="M3.9,22.1l-2.4,2.8l1.3-3.4L0,19.1l3.5,1.2l2.4-2.8l-1.2,3.4l2.8,2.3L3.9,22.1z"/>
</svg>
