<?xml version="1.0" encoding="utf-8"?>
<!-- Generator: Adobe Illustrator 20.1.0, SVG Export Plug-In . SVG Version: 6.00 Build 0)  -->
<svg version="1.1" id="Forma_1_1_" xmlns="http://www.w3.org/2000/svg" xmlns:xlink="http://www.w3.org/1999/xlink" x="0px" y="0px"
	 viewBox="0 0 82 113" style="enable-background:new 0 0 82 113;" xml:space="preserve">
<style type="text/css">
	.st0{fill-rule:evenodd;clip-rule:evenodd;fill:#121212;}
</style>
<g id="Forma_1">
	<g>
		<path class="st0" d="M81.5,39.8L75.5,32l1.3-9.8c0.1-1.1-0.5-2.2-1.5-2.6l-9-3.8l-3.7-9.1c-0.4-1-1.5-1.7-2.6-1.5l-9.7,1.3l-7.8-6
			c-0.9-0.7-2.1-0.7-3,0l-7.8,6L22,5.2c-1.1-0.1-2.2,0.5-2.6,1.5l-3.7,9.1l-9,3.8c-1,0.4-1.7,1.5-1.5,2.6L6.4,32l-5.9,7.8
			c-0.7,0.9-0.7,2.1,0,3l5.9,7.8l-1.3,9.8c-0.1,1.1,0.5,2.2,1.5,2.6l9,3.8l3.7,9.1c0.3,0.8,1,1.4,1.9,1.5v33.1
			c0,0.9,0.5,1.7,1.3,2.2c0.8,0.4,1.8,0.4,2.5-0.1L41,102.5l15.9,10.2c0.4,0.3,0.9,0.4,1.3,0.4c0.4,0,0.8-0.1,1.2-0.3
			c0.8-0.4,1.3-1.3,1.3-2.2V77.4c0.8-0.1,1.5-0.7,1.9-1.5l3.7-9.1l9-3.8c1-0.4,1.7-1.5,1.5-2.6l-1.3-9.8l5.9-7.8
			C82.2,42,82.2,40.7,81.5,39.8z M55.7,106l-13.4-8.6c-0.8-0.5-1.8-0.5-2.6,0L26.2,106V76.9l5.5-0.7l7.8,6c0.4,0.3,1,0.5,1.5,0.5
			c0.5,0,1.1-0.2,1.5-0.5l7.8-6l5.5,0.7V106z M71,48.5c-0.4,0.5-0.6,1.2-0.5,1.8l1.2,8.9l-8.2,3.4c-0.6,0.3-1.1,0.7-1.3,1.3
			l-3.4,8.3l-8.8-1.2c-0.6-0.1-1.3,0.1-1.8,0.5L41,77l-7.1-5.5c-0.4-0.3-1-0.5-1.5-0.5c-0.1,0-0.2,0-0.3,0l-8.8,1.2L19.9,64
			c-0.3-0.6-0.7-1.1-1.3-1.4l-8.2-3.4l1.2-8.9c0.1-0.7-0.1-1.3-0.5-1.8l-5.4-7.1l5.4-7.1c0.4-0.5,0.6-1.2,0.5-1.8l-1.2-8.9l8.2-3.4
			c0.6-0.3,1.1-0.7,1.3-1.4l3.4-8.3l8.8,1.2c0.6,0.1,1.3-0.1,1.8-0.5L41,5.6l7.1,5.5c0.5,0.4,1.2,0.6,1.8,0.5l8.8-1.2l3.4,8.3
			c0.3,0.6,0.7,1.1,1.3,1.4l8.2,3.4l-1.2,8.9c-0.1,0.7,0.1,1.3,0.5,1.8l5.4,7.1L71,48.5z M25.9,25.3c0.6,0,1.1-0.2,1.6-0.6
			c3.8-3.1,8.6-4.9,13.5-4.9c1.4,0,2.5-1.1,2.5-2.5c0-1.4-1.1-2.5-2.5-2.5c-6.1,0-12,2.1-16.7,6c-1.1,0.9-1.2,2.4-0.3,3.5
			C24.5,24.9,25.2,25.3,25.9,25.3z M49.8,16.4c-1.3-0.5-2.7,0.2-3.2,1.5c-0.5,1.3,0.2,2.7,1.5,3.2c8.5,3,14.2,11.2,14.2,20.3
			c0,11.9-9.6,21.5-21.3,21.5c-11.8,0-21.3-9.7-21.3-21.5c0-4.2,1.2-8.3,3.5-11.8c0.8-1.1,0.4-2.7-0.7-3.5c-1.1-0.8-2.7-0.4-3.4,0.7
			c-2.8,4.3-4.3,9.4-4.3,14.6C14.7,56,26.5,67.8,41,67.8c14.5,0,26.3-11.9,26.3-26.5C67.3,30.1,60.3,20.1,49.8,16.4z"/>
	</g>
</g>
</svg>
