<?xml version="1.0" encoding="utf-8"?>
<!-- Generator: Adobe Illustrator 20.1.0, SVG Export Plug-In . SVG Version: 6.00 Build 0)  -->
<svg version="1.1" id="Слой_1" xmlns="http://www.w3.org/2000/svg" xmlns:xlink="http://www.w3.org/1999/xlink" x="0px" y="0px"
	 viewBox="0 0 36.9 46.1" style="enable-background:new 0 0 36.9 46.1;" xml:space="preserve">
<style type="text/css">
	.st0{fill:#262C26;}
</style>
<path class="st0" d="M0.3,14.8c0.6,1.2,1.8,1.9,3.1,1.7c0.7-0.1,1.4,0.3,1.7,1c0.1,0.3,0.2,0.5,0.4,0.7c0,0.1,0.1,0.2,0.1,0.3
	L14,32.8c0.1,0.3,0.2,0.6,0.1,1l-2,8.7c-0.2,0.9,0,1.8,0.5,2.5s1.3,1.1,2.2,1.1h7.1c0.9,0,1.7-0.4,2.2-1.1c0.5-0.7,0.7-1.6,0.5-2.5
	l-2-8.7c-0.1-0.3,0-0.7,0.1-0.9l8.6-14.4c0-0.1,0.1-0.2,0.1-0.3c0.2-0.2,0.3-0.4,0.4-0.7c0.3-0.7,0.9-1.1,1.7-1
	c1.3,0.1,2.5-0.5,3.1-1.7c0.5-1.1,0.4-2.4-0.3-3.3c-0.4-0.6-0.4-1.4,0-2c0.7-1,0.8-2.3,0.3-3.3C36,5,34.8,4.3,33.5,4.5
	c-0.7,0.1-1.4-0.3-1.7-1c-0.4-1.2-1.5-2-2.8-2c-1.2,0-2.3,0.7-2.8,1.9c-0.1,0.2-0.2,0.3-0.3,0.4c-0.6-0.3-1.3-0.5-2.1-0.4
	c-0.9,0.1-1.7-0.4-2.1-1.2C21.1,0.9,19.9,0,18.5,0s-2.7,0.8-3.2,2.2C15,3,14.2,3.5,13.4,3.5c-0.1,0-0.1,0-0.2,0
	c-0.8-0.1-1.5,0.1-2.1,0.4c-0.1-0.1-0.2-0.3-0.3-0.4c-0.5-1.2-1.6-2-2.9-2c-1.2,0-2.3,0.7-2.8,1.9c-0.3,0.7-0.9,1.1-1.7,1
	C2.1,4.3,0.9,4.9,0.3,6.1c-0.5,1.1-0.4,2.4,0.3,3.3c0.4,0.6,0.4,1.4,0,2C-0.1,12.4-0.2,13.7,0.3,14.8z M1.7,6.8
	C2,6.2,2.6,5.9,3.2,5.9c0.2,0.9,1.2,2.8,2.6,4.3c0.1,0.6,0.3,1.1,0.6,1.5c-1.5,1.1-2.3,0.8-3.6,0.2c-0.2-0.1-0.4-0.2-0.5-0.2
	c0.4-1,0.3-2.2-0.3-3.2C1.4,8.1,1.4,7.4,1.7,6.8z M7.9,3.1c0.6,0,1.1,0.3,1.4,0.8L9.2,3.8C9,4.1,8.7,4.4,8.4,4.7
	C7.5,5.6,6.5,6.6,6.8,8.2C6.2,8.4,5.9,8.7,5.7,9.1C4.8,7.9,4.1,6.6,3.8,5.9C4.9,5.8,5.9,5.1,6.3,4C6.7,3.4,7.3,3.1,7.9,3.1z
	 M18.5,1.5c0.8,0,1.5,0.5,1.9,1.3c0,0,0,0.1,0.1,0.1l-0.3-0.2c-0.3,0.4-0.6,0.7-1,1.1c-1,1-2.3,2.3-1.8,4.2
	c-0.8,0.2-1.2,0.7-1.3,1.1C16,9,15.9,8.9,15.8,8.8c-0.2-0.3-0.4-0.5-0.6-0.8c-0.6-0.9-1.1-1.9-1.4-2.5c-0.1-0.2-0.1-0.3-0.1-0.4
	c0.2,0,0.5-0.1,0.7-0.1c1-0.3,1.8-1,2.2-2C16.9,2,17.6,1.5,18.5,1.5z M24,5c0.4,0,0.8,0,1.1,0.2c0.3,0.1,0.5,0.3,0.7,0.6
	C25.9,5.9,26,6,26,6.2c0.3,0.6,0.3,1.3,0,1.9c-0.1,0.1-0.1,0.2-0.2,0.3c0,0,0,0,0,0.1c-0.2-0.1-0.3-0.1-0.5-0.2
	c-0.9-0.3-1.8-0.4-2.7-0.4c-0.3,0-0.5,0-0.8,0s-0.5,0-0.7,0c-0.3,0-0.6,0-0.9,0.1c-0.6-0.1-1.1-0.1-1.6-0.1c-0.2,0-0.4,0-0.6,0
	c-0.4-1.5,0.6-2.4,1.6-3.5c0.4-0.4,0.7-0.7,1-1.1c0.5,0.8,1.2,1.3,2,1.6C23.1,5,23.5,5,24,5z M29,3.1c0.6,0,1.1,0.3,1.4,0.8
	l-0.1-0.1c-0.2,0.3-0.5,0.6-0.8,0.9c-0.9,0.9-1.9,1.9-1.6,3.5c-0.2,0.1-0.3,0.1-0.4,0.2c0.4-1,0.4-2-0.1-3c-0.1-0.2-0.2-0.4-0.3-0.6
	c0.2-0.2,0.4-0.5,0.5-0.8C27.8,3.4,28.4,3.1,29,3.1z M35.3,6.8c0.3,0.6,0.2,1.2-0.1,1.7l0,0c-1.7-0.6-3.5-0.5-4.7-0.4
	C30,8,29.6,8,29.1,8c-0.2,0-0.3,0-0.5,0c-0.3-1.2,0.5-2,1.4-2.8c0.3-0.3,0.5-0.5,0.7-0.8c0.6,1,1.7,1.6,2.9,1.4
	C34.4,5.9,35,6.2,35.3,6.8z M35.3,14.1c-0.3,0.6-0.9,1-1.6,0.9c0.4-1.9-0.8-3-1.7-3.9c-0.3-0.3-0.5-0.5-0.7-0.7
	C31.1,10,31,9.5,30.9,9.1c1-0.1,2.5-0.1,3.9,0.3c-0.4,1-0.3,2.2,0.4,3.1C35.5,12.9,35.6,13.5,35.3,14.1z M1.7,14.1
	c-0.3-0.6-0.2-1.2,0.1-1.7c0.2,0.1,0.4,0.2,0.6,0.3c0.7,0.3,1.4,0.6,2.1,0.6s1.5-0.3,2.4-1c0.3,0.2,0.6,0.3,0.9,0.3
	c0.1,0,0.3,0,0.5-0.1c-0.1,0.6-0.5,1.2-0.9,1.8s-0.8,1.1-1.1,1.5c-0.1,0.1-0.2,0.2-0.2,0.3C6,16,5.9,15.8,5.7,15.7
	c-0.6-0.5-1.3-0.8-2-0.8c-0.1,0-0.2,0-0.3,0C2.6,15.1,2,14.7,1.7,14.1z M14.4,13.7c0.2,0,0.5,0,0.7-0.1s0.5-0.1,0.8-0.3
	c0.4-0.2,0.9-0.5,1.3-0.8c0.3,0.2,0.7,0.3,1.1,0.3c0.2,0,0.4,0,0.7-0.1c-0.1,0.5-0.3,1-0.6,1.5c-0.3,0.5-0.7,1-1,1.5
	c-0.3,0.4-0.6,0.8-0.9,1.1c-0.1,0.2-0.3,0.3-0.4,0.5c-0.5-0.6-1.1-1-1.8-1.2C14,16,13.7,16,13.3,16c-0.1,0-0.3,0-0.4,0
	c-0.4,0-0.8,0-1.1-0.2c0,0,0,0-0.1,0c-0.3-0.1-0.5-0.3-0.7-0.6c-0.1-0.1-0.2-0.2-0.2-0.4c-0.1-0.2-0.2-0.4-0.2-0.6
	c-0.1-0.5,0-1.1,0.4-1.6c0.1,0.1,0.3,0.1,0.4,0.2s0.3,0.1,0.4,0.2c0.2,0.1,0.4,0.2,0.7,0.3C13.1,13.5,13.7,13.7,14.4,13.7L14.4,13.7
	z M22.9,8.6c0.8,0.1,1.7,0.2,2.6,0.5c-0.5,1.1-0.3,2.4,0.3,3.4c0,0,0,0.1,0.1,0.1c0.1,0.2,0.2,0.4,0.3,0.6c0.1,0.3,0.1,0.7,0.1,1
	c0,0.2-0.1,0.4-0.2,0.6c-0.1,0.1-0.1,0.3-0.2,0.4c-0.2,0.2-0.4,0.4-0.7,0.6c0,0,0,0-0.1,0C24.8,16,24.4,16,24,16
	c-0.5-0.1-0.9,0-1.4,0.1c-1,0.3-1.8,1-2.3,2c-0.3,0.8-1,1.3-1.9,1.3c-0.8,0-1.5-0.5-1.9-1.3V18c0.1-0.2,0.3-0.4,0.5-0.7
	c0.4-0.5,0.8-1,1.2-1.6c0.3-0.5,0.7-1,0.9-1.5c0.3-0.6,0.5-1.2,0.5-1.8c0.4-0.2,0.8-0.6,1.2-1.1c0.2,0.2,0.3,0.3,0.5,0.5l0,0
	c0.2,0.2,0.4,0.4,0.6,0.6s0.4,0.4,0.6,0.7c0.3,0.4,0.5,0.8,0.6,1.2c0,0.2,0.1,0.3,0.1,0.5c0,0.3,0,0.5,0,0.9c0,0.1,0,0.1,0,0.2l0,0
	l0.7,0.2c0-0.1,0-0.1,0-0.2l0,0c0-0.3,0.1-0.5,0.1-0.8s0-0.5-0.1-0.8c-0.1-0.6-0.4-1.2-0.8-1.6c-0.1-0.1-0.2-0.2-0.3-0.3
	c-0.1-0.1-0.2-0.2-0.3-0.3c-0.1-0.1-0.2-0.2-0.3-0.3c-0.2-0.2-0.3-0.3-0.4-0.4l-0.1-0.1c-0.3-0.3-0.5-0.5-0.7-0.8
	c-0.2-0.6-0.4-1.1-0.5-1.7c0.2,0,0.4,0,0.6,0s0.5,0,0.8,0C22.3,8.6,22.6,8.6,22.9,8.6z M28.5,14.2c-0.4,0.6-0.8,1.1-1.2,1.5
	c0,0,0,0.1-0.1,0.1C27.1,15.9,27,16,27,16.1c0,0,0,0,0-0.1c0.1-0.1,0.1-0.2,0.2-0.3c0-0.1,0.1-0.2,0.1-0.2c0.2-0.4,0.3-0.9,0.4-1.3
	c0.1-0.6,0-1.1-0.2-1.6c0.1-0.1,0.3-0.2,0.4-0.3c0.3,0.2,0.6,0.3,0.9,0.3c0.1,0,0.3,0,0.5-0.1C29.2,13,28.9,13.6,28.5,14.2z
	 M28.9,11.8c-0.8,0-1.3-0.9-1.3-2.2c0-0.6,0.9-0.7,1.6-0.7c0.3,0,0.6,0,1,0.1c0.1,0.6,0.3,1.2,0.5,1.7C30,11.4,29.4,11.8,28.9,11.8z
	 M26.8,10.2c0.1,0.6,0.3,1.1,0.6,1.5c-0.1,0-0.1,0.1-0.2,0.1c0-0.1-0.1-0.1-0.1-0.2c-0.3-0.5-0.5-1.1-0.4-1.6
	C26.7,10.1,26.8,10.2,26.8,10.2z M18.3,12.1c-1,0-1.7-1.1-1.7-2.6c0-0.8,1.1-0.9,2-0.9c0.4,0,0.8,0,1.2,0.1c0.1,0.7,0.4,1.4,0.6,2.1
	C19.7,11.6,19,12.1,18.3,12.1z M6.8,17.4c-0.1-0.1-0.3-0.3-0.4-0.5v-0.1c0.1-0.1,0.2-0.3,0.4-0.5c0.5-0.6,1.1-1.3,1.5-2.1
	c0.4-0.7,0.7-1.4,0.8-2.1c0.3-0.2,0.6-0.5,1-0.9l0,0c-0.1,0.1-0.1,0.3-0.2,0.4c-0.5,0.8-0.8,1.6-0.7,2.5c0,0.4,0.2,0.9,0.4,1.3
	c0,0.1,0.1,0.2,0.1,0.2c0.1,0.1,0.1,0.2,0.2,0.3c-0.2,0.2-0.4,0.5-0.5,0.8c-0.3,0.6-0.8,1-1.5,1C7.5,17.9,7.1,17.7,6.8,17.4z
	 M10.2,10.3c-0.1-0.4-0.3-0.8-0.4-1.1c0,0,0,0,0,0.1C10.1,9.6,10.3,10,10.2,10.3C10.3,10.3,10.2,10.3,10.2,10.3z M9.6,10.7
	c-0.6,0.7-1.2,1.1-1.8,1.1c-0.8,0-1.3-0.9-1.3-2.2c0-0.6,0.9-0.7,1.6-0.7c0.3,0,0.6,0,1,0.1C9.2,9.5,9.4,10.1,9.6,10.7z M31.3,15.7
	c-0.3,0.3-0.6,0.7-0.8,1.1c-0.1,0.2-0.2,0.4-0.4,0.5c-0.3,0.3-0.7,0.5-1.1,0.5c-0.7,0-1.2-0.4-1.5-1v-0.1c0.1-0.1,0.2-0.3,0.4-0.5
	c0.1-0.2,0.3-0.4,0.5-0.6c0.4-0.4,0.7-0.9,1-1.5c0.4-0.7,0.7-1.4,0.8-2.2c0.3-0.2,0.6-0.5,1-0.9c0.1,0.1,0.2,0.2,0.4,0.4
	c0.9,0.9,1.8,1.8,1.5,3.3h0.2C32.5,15,31.8,15.3,31.3,15.7z M12.9,5c0,0.1,0,0.1,0,0.2C13,5.4,13.1,5.7,13.2,6
	c0.3,0.6,0.6,1.3,1.1,2c0.2,0.2,0.3,0.5,0.5,0.7s0.3,0.4,0.5,0.6c0.2,0.2,0.4,0.5,0.6,0.7c0.1,0.8,0.3,1.4,0.7,1.9
	c-0.3,0.2-0.6,0.4-0.9,0.6c-0.2,0.1-0.5,0.2-0.7,0.3c-0.3,0.1-0.5,0.1-0.8,0.1c-0.7,0-1.3-0.3-2.1-0.7c-0.1,0-0.1-0.1-0.2-0.1
	c-0.2-0.1-0.4-0.2-0.5-0.2c0-0.1,0.1-0.2,0.1-0.3c0.3-0.9,0.3-1.9-0.1-2.8c-0.1-0.2-0.2-0.4-0.3-0.6c0,0-0.1-0.1-0.1-0.2
	c-0.4-0.6-0.4-1.4-0.1-2C11,5.9,11,5.7,11.1,5.6c0.2-0.3,0.4-0.5,0.7-0.6C12.2,5,12.5,4.9,12.9,5z M9.6,5.4C9.2,6.3,9.1,7.3,9.4,8.2
	C8.9,8.1,8.5,8.1,8,8.1c-0.2,0-0.3,0-0.5,0C7.2,6.9,8,6.1,8.9,5.3C9.2,5,9.4,4.8,9.6,4.5c0.1,0.1,0.2,0.2,0.3,0.3
	C9.8,5,9.7,5.2,9.6,5.4z M23.3,42.8c0.1,0.4,0,0.8-0.3,1.2c-0.3,0.3-0.6,0.5-1,0.5h-7.1c-0.4,0-0.8-0.2-1-0.5
	c-0.3-0.3-0.3-0.8-0.3-1.2l1.8-7.7h1.2L16.2,37c0,0.2,0.1,0.4,0.3,0.5h0.1c0.2,0,0.3-0.1,0.4-0.3l0.5-2.1h0.8v5.6
	c0,0.2,0.2,0.4,0.4,0.4c0.2,0,0.4-0.2,0.4-0.4v-5.6h0.8l0.5,2.1c0,0.2,0.2,0.3,0.4,0.3h0.1c0.2-0.1,0.3-0.3,0.3-0.5l-0.4-1.9H22
	L23.3,42.8z M15.4,32.2h6.2c-0.3,0.6-0.4,1.3-0.2,1.9v0.2h-5.8v-0.2C15.8,33.5,15.7,32.8,15.4,32.2z M22,31.4h-1.2l5.3-11.8
	c0.1-0.2,0-0.4-0.2-0.5s-0.4,0-0.5,0.2l-5.5,12.1h-1.1v-8.2c0-0.2-0.2-0.4-0.4-0.4c-0.2,0-0.4,0.2-0.4,0.4v8.2h-1.1l-5.5-12.1
	c-0.1-0.2-0.3-0.3-0.5-0.2c-0.2,0.1-0.3,0.3-0.2,0.5L16,31.4h-1.2l-7-12l0,0c1.2,0,2.3-0.7,2.8-1.9c0.1-0.2,0.2-0.3,0.3-0.4
	c0.5,0.3,1.1,0.4,1.7,0.4c0.1,0,0.3,0,0.4,0c0.9-0.1,1.7,0.4,2.1,1.2c0.6,1.3,1.8,2.2,3.2,2.2c1.4,0,2.7-0.8,3.2-2.2
	c0.4-0.8,1.2-1.3,2.1-1.2c0.8,0.1,1.5-0.1,2.1-0.4c0.1,0.1,0.2,0.3,0.3,0.4c0.5,1.2,1.6,1.9,2.8,1.9l0,0L22,31.4z"/>
</svg>
