<?xml version="1.0" encoding="utf-8"?>
<!-- Generator: Adobe Illustrator 20.1.0, SVG Export Plug-In . SVG Version: 6.00 Build 0)  -->
<svg version="1.1" id="call_1_" xmlns="http://www.w3.org/2000/svg" xmlns:xlink="http://www.w3.org/1999/xlink" x="0px" y="0px"
	 viewBox="0 0 25.92 35.06" style="enable-background:new 0 0 25.92 35.06;" xml:space="preserve">
<style type="text/css">
	.st0{fill:#FFFFFF;}
</style>
<g id="call">
	<g>
		<path class="st0" d="M20.62,21.36c-2.6-0.6-5.2,0.4-6.8,2.3c-3-2.5-5-6-5.7-9.9c2.7-0.4,5-2.4,5.6-5.3c0.8-3.7-1.5-7.4-5.1-8.3
			c-3.1-0.7-6.3,1-7.6,3.9h-0.1c-0.1,0.3-0.2,0.6-0.2,0.9c0,0.2-0.1,0.3-0.1,0.5c0,0.1,0,0.2,0,0.2c-2.8,12.4,4.1,24.6,15.6,28.7
			c0.4,0.2,0.9,0.4,1.4,0.5c0.6,0.1,1.1,0.2,1.7,0.2l0,0c0.3,0,0.6,0,1-0.1l-0.1-0.2c0,0,0.1,0,0.1-0.1c0.5-0.5,0.5-1.4,0-1.9
			l-0.1-0.1c-0.4-0.4-1-0.5-1.5-0.3v-0.1c-0.1,0-0.3,0-0.4-0.1c-0.4-0.1-0.7-0.2-1-0.4c-2.1-0.7-3.7-1.6-4.8-2.4l0,0
			c-0.1-0.1-0.2-0.1-0.3-0.2c-0.1,0-0.1-0.1-0.2-0.1c-4.8-3.4-8.1-8.7-9.1-14.5c-0.2-0.8-0.7-3.9,0.2-8.1l0,0c0-0.1,0-0.2,0-0.3
			c0.6-2.3,2.8-3.7,5-3.1c2.2,0.5,3.6,2.7,3.1,5c-0.5,2-2.3,3.3-4.3,3.2l0,0c-0.7-0.1-1.4,0.3-1.5,1v0.1c-0.1,0.4,0,0.8,0.2,1.1
			l-0.2,0.2l0,0c0.7,5,3.2,9.5,7.1,12.5l0,0l0,0l0.3-0.1c0.1,0.2,0.2,0.4,0.3,0.5l0.1,0.1c0.5,0.5,1.4,0.5,1.9,0
			c0.2-0.2,0.2-0.4,0.3-0.6c0.8-1.6,2.7-2.5,4.5-2.1c2.2,0.5,3.6,2.7,3.1,4.9c-0.1,0.4-0.3,0.8-0.5,1.2l0.1,0.1c0,0-0.1,0-0.1,0.1
			c-0.5,0.5-0.5,1.3,0,1.8l0.1,0.1c0.4,0.4,0.9,0.5,1.4,0.3l0.1,0.2c0.8-0.8,1.3-1.9,1.6-3.1C26.62,25.96,24.32,22.26,20.62,21.36z"
			/>
	</g>
</g>
</svg>
