<?xml version="1.0" encoding="utf-8"?>
<!-- Generator: Adobe Illustrator 20.1.0, SVG Export Plug-In . SVG Version: 6.00 Build 0)  -->
<svg version="1.1" id="Forma_1_1_" xmlns="http://www.w3.org/2000/svg" xmlns:xlink="http://www.w3.org/1999/xlink" x="0px" y="0px"
	 viewBox="0 0 88 80" style="enable-background:new 0 0 88 80;" xml:space="preserve">
<style type="text/css">
	.st0{fill:#121212;}
</style>
<g id="Forma_1">
	<g>
		<path class="st0" d="M87.7,25.2L73,1.2C72.6,0.4,71.8,0,70.9,0H17.1c-0.8,0-1.6,0.4-2.1,1.2l-14.6,24c0,0,0,0,0,0.1
			c-0.1,0.2-0.2,0.4-0.2,0.6V26C0,26.1,0,26.2,0,26.4v0.1c0,0.1,0,0.1,0,0.1c0,0.2,0.1,0.4,0.1,0.6v0.1c0.1,0.2,0.2,0.4,0.3,0.6
			c0,0,0,0,0,0.1L42,79.2l0,0l0,0c0.1,0.1,0.2,0.3,0.4,0.4l0,0c0,0,0,0,0.1,0c0.2,0.1,0.4,0.3,0.6,0.3c0.2,0.1,0.4,0.1,0.5,0.1
			s0.1,0,0.2,0l0,0l0,0c0.2,0,0.4,0,0.6-0.1h0.1l0,0l0,0c0.1,0,0.1,0,0.2-0.1c0.1,0,0.1,0,0.2-0.1c0.1,0,0.1-0.1,0.2-0.1l0.1-0.1
			c0,0,0,0,0.1,0c0.1-0.1,0.2-0.2,0.3-0.3c0,0,0,0,0.1-0.1l0,0l41.6-51.2C88.1,27.1,88.2,26,87.7,25.2z M49.2,4.8L56.9,24H31.1
			l7.7-19.2C38.8,4.8,49.2,4.8,49.2,4.8z M18.4,4.8h15.2L25.9,24H6.7L18.4,4.8z M7.5,28.8h18.3l12,37.3L7.5,28.8z M44,69.7
			L30.8,28.8h26.4L44,69.7z M50.2,66.1l12-37.3h18.3L50.2,66.1z M62.1,24L54.4,4.8h15.2L81.3,24H62.1z"/>
	</g>
</g>
</svg>
