<?xml version="1.0" encoding="utf-8"?>
<!-- Generator: Adobe Illustrator 20.1.0, SVG Export Plug-In . SVG Version: 6.00 Build 0)  -->
<svg version="1.1" id="Forma_1_1_" xmlns="http://www.w3.org/2000/svg" xmlns:xlink="http://www.w3.org/1999/xlink" x="0px" y="0px"
	 viewBox="0 0 16 16" style="enable-background:new 0 0 16 16;" xml:space="preserve">
<style type="text/css">
	.st0{fill:#3D3F3C;}
</style>
<g id="Forma_1">
	<g>
		<path class="st0" d="M15.7,14.3l-4.8-4.8C11.6,8.5,12,7.3,12,6c0-3.3-2.7-6-6-6S0,2.7,0,6s2.7,6,6,6c1.3,0,2.5-0.4,3.5-1.1
			l4.8,4.8c0.2,0.2,0.5,0.3,0.7,0.3s0.5-0.1,0.7-0.3C16.1,15.3,16.1,14.7,15.7,14.3z M9.3,8.3L8.9,8.9L8.3,9.3C7.6,9.7,6.8,10,6,10
			c-2.2,0-4-1.8-4-4s1.8-4,4-4s4,1.8,4,4C10,6.8,9.7,7.6,9.3,8.3z"/>
	</g>
</g>
</svg>
