<?xml version="1.0" encoding="utf-8"?>
<!-- Generator: Adobe Illustrator 20.1.0, SVG Export Plug-In . SVG Version: 6.00 Build 0)  -->
<svg version="1.1" id="Слой_1" xmlns="http://www.w3.org/2000/svg" xmlns:xlink="http://www.w3.org/1999/xlink" x="0px" y="0px"
	 viewBox="0 0 26.78 16.74" style="enable-background:new 0 0 26.78 16.74;" xml:space="preserve">
<style type="text/css">
	.st0{fill:#121212;}
	.st1{fill:#F5F5F5;}
</style>
<g>
	<path class="st0" d="M26.58,7.1l-2.2-1.64L22.3,0.31C22.22,0.12,22.04,0,21.83,0H2.78c-0.28,0-0.5,0.22-0.5,0.5v1.98
		c0,0.28,0.22,0.5,0.5,0.5s0.5-0.22,0.5-0.5V1h14.69v10.13H3.28v-2c0-0.28-0.22-0.5-0.5-0.5s-0.5,0.22-0.5,0.5v2.5
		c0,0.28,0.22,0.5,0.5,0.5h0.19v1.81c0,0.28,0.22,0.5,0.5,0.5h22.81c0.28,0,0.5-0.22,0.5-0.5V7.5C26.78,7.34,26.71,7.19,26.58,7.1z
		 M21.5,1l1.73,4.28h-4.26V1H21.5z M18.97,6.28h4.84l1.98,1.47v3.37h-6.81C18.97,11.13,18.97,6.28,18.97,6.28z M3.97,13.44v-1.31
		h21.81v1.31H3.97z"/>
	<path class="st0" d="M5.81,4.97c0-0.28-0.22-0.5-0.5-0.5H0.53c-0.28,0-0.5,0.22-0.5,0.5s0.22,0.5,0.5,0.5h4.78
		C5.59,5.47,5.81,5.25,5.81,4.97z"/>
	<path class="st0" d="M4.56,7.22c0-0.28-0.22-0.5-0.5-0.5H1.63c-0.28,0-0.5,0.22-0.5,0.5s0.22,0.5,0.5,0.5h2.44
		C4.34,7.72,4.56,7.5,4.56,7.22z"/>
</g>
<circle class="st1" cx="7.28" cy="13.94" r="2.3"/>
<path class="st0" d="M7.28,16.74c-1.54,0-2.8-1.25-2.8-2.8s1.26-2.8,2.8-2.8s2.8,1.25,2.8,2.8S8.82,16.74,7.28,16.74z M7.28,12.14
	c-0.99,0-1.8,0.81-1.8,1.8s0.81,1.8,1.8,1.8s1.8-0.81,1.8-1.8S8.27,12.14,7.28,12.14z"/>
<circle class="st1" cx="22.02" cy="13.94" r="2.3"/>
<path class="st0" d="M22.02,16.74c-1.54,0-2.8-1.25-2.8-2.8s1.25-2.8,2.8-2.8s2.8,1.25,2.8,2.8S23.56,16.74,22.02,16.74z
	 M22.02,12.14c-0.99,0-1.8,0.81-1.8,1.8s0.81,1.8,1.8,1.8s1.8-0.81,1.8-1.8S23.01,12.14,22.02,12.14z"/>
</svg>
