<?xml version="1.0" encoding="utf-8"?>
<!-- Generator: Adobe Illustrator 18.1.1, SVG Export Plug-In . SVG Version: 6.00 Build 0)  -->
<svg version="1.1" id="Слой_1" xmlns="http://www.w3.org/2000/svg" xmlns:xlink="http://www.w3.org/1999/xlink" x="0px" y="0px"
	 viewBox="-269 2820.9 28.4 28.4" enable-background="new -269 2820.9 28.4 28.4" xml:space="preserve">
<g>
	<path d="M-242.4,2833.6l-2.2-1.6l-2.1-5.2c-0.1-0.2-0.3-0.3-0.5-0.3h-19.1c-0.3,0-0.5,0.2-0.5,0.5v2c0,0.3,0.2,0.5,0.5,0.5
		s0.5-0.2,0.5-0.5v-1.5h14.7v10.1h-14.7v-2c0-0.3-0.2-0.5-0.5-0.5s-0.5,0.2-0.5,0.5v2.5c0,0.3,0.2,0.5,0.5,0.5h0.2v1.8
		c0,0.3,0.2,0.5,0.5,0.5h22.8c0.3,0,0.5-0.2,0.5-0.5v-6.4C-242.2,2833.8-242.3,2833.7-242.4,2833.6z M-247.5,2827.5l1.7,4.3h-4.3
		v-4.3H-247.5z M-250,2832.8h4.8l2,1.5v3.4h-6.8C-250,2837.6-250,2832.8-250,2832.8z M-265,2839.9v-1.3h21.8v1.3H-265z"/>
	<path d="M-263.2,2831.4c0-0.3-0.2-0.5-0.5-0.5h-4.8c-0.3,0-0.5,0.2-0.5,0.5c0,0.3,0.2,0.5,0.5,0.5h4.8
		C-263.4,2831.9-263.2,2831.7-263.2,2831.4z"/>
	<path d="M-264.4,2833.7c0-0.3-0.2-0.5-0.5-0.5h-2.4c-0.3,0-0.5,0.2-0.5,0.5c0,0.3,0.2,0.5,0.5,0.5h2.4
		C-264.7,2834.2-264.4,2834-264.4,2833.7z"/>
</g>
<circle fill="#FFFFFF" cx="-261.7" cy="2840.4" r="1.9"/>
<path d="M-261.7,2837.6c-1.5,0-2.8,1.3-2.8,2.8s1.3,2.8,2.8,2.8c1.5,0,2.8-1.3,2.8-2.8S-260.2,2837.6-261.7,2837.6z M-261.7,2842.2
	c-1,0-1.8-0.8-1.8-1.8s0.8-1.8,1.8-1.8c1,0,1.8,0.8,1.8,1.8S-260.7,2842.2-261.7,2842.2z"/>
<circle fill="#FFFFFF" cx="-247" cy="2840.4" r="2.3"/>
<path d="M-247,2837.6c-1.5,0-2.8,1.3-2.8,2.8s1.3,2.8,2.8,2.8c1.5,0,2.8-1.3,2.8-2.8S-245.4,2837.6-247,2837.6z M-247,2842.2
	c-1,0-1.8-0.8-1.8-1.8s0.8-1.8,1.8-1.8c1,0,1.8,0.8,1.8,1.8S-246,2842.2-247,2842.2z"/>
</svg>
