<?xml version="1.0" encoding="utf-8"?>
<!-- Generator: Adobe Illustrator 20.1.0, SVG Export Plug-In . SVG Version: 6.00 Build 0)  -->
<svg version="1.1" xmlns="http://www.w3.org/2000/svg" xmlns:xlink="http://www.w3.org/1999/xlink" x="0px" y="0px"
	 viewBox="0 0 369 192" style="enable-background:new 0 0 369 192;" xml:space="preserve">
<style type="text/css">
	.st0{enable-background:new    ;}
	.st1{fill-rule:evenodd;clip-rule:evenodd;fill:#0F0F0F;}
	.st2{fill:#F5F5F5;}
	.st3{fill-rule:evenodd;clip-rule:evenodd;fill:#F5F5F5;}
</style>
<g id="Фигура_4_5_" class="st0">
	<g id="Фигура_4">
		<g>
			<rect x="0" y="0.01" class="st1" width="369" height="191.98"/>
		</g>
	</g>
</g>
<g id="Фигура_4_копия_1_" class="st0">
	<g id="Фигура_4_копия">
		<g>
			<rect x="9.87" y="9.88" class="st1" width="349.26" height="172.24"/>
		</g>
		<g>
			<path class="st2" d="M358.63,10.38v171.24H10.37V10.38H358.63 M359.63,9.38H9.37v173.24h350.26V9.38L359.63,9.38z"/>
		</g>
	</g>
</g>
<g id="Фигура_4_4_" class="st0">
	<g id="Фигура_4_1_">
		<g>
			<path class="st3" d="M315.03,125.09c-2.04-0.54-2.4-2.41-2.88-4.25c-2.39-9.2-4.82-18.39-7.18-27.6
				c-0.28-1.09-0.68-1.39-1.65-1.37c-2.85,0.07-5.71,0.03-8.56,0.03c-1.85,0-2.07,0.21-2.39,2.18c-0.1,0.62,0.13,1.14,0.27,1.69
				c1.53,6.19,3.07,12.38,4.65,18.56c0.25,0.97,0.16,1.35-0.83,1.29c-1.19-0.07-2.39,0.11-3.56-0.05c-1.44-0.19-2.02,0.46-2.27,1.96
				c-0.17,1,0.08,1.16,0.88,1.14c1.81-0.05,3.62,0.06,5.42-0.04c1.09-0.06,1.73,0.23,1.83,1.52c0.02,0.31,0.13,0.61,0.2,0.92
				c0.58,2.41,0.58,2.41-1.27,3.84c-0.86,0.66-0.77,1.7,0.18,2.22c0.49,0.27,1.01,0.26,1.53,0.26c4.56,0,9.13-0.01,13.69,0.01
				c0.99,0,1.87-0.22,2.63-0.96v-0.63C315.5,125.56,315.3,125.16,315.03,125.09z M58.21,72.32c2.42-2.3,4.62-4.92,7.45-6.8
				c-0.59-0.55-1.1-0.32-1.61-0.24c-2.11,0.35-4.17,1.05-6.32,1.16c-0.63,0.03-1.65,0.23-1.69-0.57c-0.04-0.75,0.96-0.8,1.62-0.8
				c2.81-0.02,5.59-0.46,8.35-1c1.55-0.3,3.07-0.83,4.8-1.32c-0.34-0.31-0.44-0.46-0.56-0.49c-4.37-1.06-8.76-0.99-13.17-0.26
				c-3.84,0.64-7,2.83-10.12,5.17c-2.24,1.69-4.49,3.59-7.2,4.02c-4.59,0.73-8.47,2.9-11.94,6.16c-0.14,0.13-0.32,0.23-0.47,0.34
				v0.32c1.01,0.5,2.03,0.42,3.07,0.15c1.48-0.38,3.02-0.91,4.5-0.4c4.28,1.46,8.45,0.66,12.65-0.39
				C51.41,76.41,55.25,75.13,58.21,72.32z M62.89,88.1c2.69-0.59,4.65-2.17,5.96-4.89c1.32-2.74,2.74-5.43,4.39-7.94
				c3-4.56,6.98-7.2,12.1-7.65c3.77-0.33,7.34,0.85,10.95,1.74c3.01,0.74,5.88,2.12,9,2.32c8.56,0.54,14.57-4.09,19.09-11.67
				c0.38-0.64,1.14-1.36,0.37-2.23c-0.75-0.86-1.71-0.93-2.64-0.49c-0.6,0.29-1.12,0.79-1.64,1.24c-2.41,2.12-5.17,3.06-8.23,2.99
				c-2.35-0.06-4.61-0.67-6.86-1.37c-4.8-1.48-9.64-2.56-14.63-1.42c-3.08,0.7-5.83,2.59-8.93,3.21c-3.19,0.64-5.88,2.26-8.24,4.69
				c-1.67,1.71-3.74,2.69-5.94,3.27c-0.47,0.13-1,0.39-1.62-0.41c3.08-1.59,6.08-3.18,8.51-6.04c-4-0.36-7.05,1.44-9.83,3.99
				c-3.38,3.1-5.86,7.03-8.21,11.07c-1.15,1.99-2.19,4.3-4.34,5.07c-3.85,1.38-4.71,5.06-6.16,8.65c0.83,0.13,1.15-0.23,1.5-0.48
				c2.63-1.86,5.45-2.94,8.63-2.67C58.44,89.29,60.65,88.6,62.89,88.1z M184.72,60.54c-1.04-0.08-2.12,0.14-3.13-0.05
				c-1.65-0.3-2.15,0.61-2.4,2.16c-0.11,0.72-0.02,0.94,0.63,0.93c1.52-0.03,3.05-0.01,4.57-0.01c2.56,0,2.5,0.02,3.25,2.73
				c0.45,1.63,0.47,2.89-1.27,3.49c-0.5,0.17-0.76,0.63-0.69,1.24c0.07,0.59,0.43,0.95,0.92,1.07c0.46,0.12,0.93,0.19,1.4,0.19
				c2.28,0.02,4.57,0.01,6.85,0.01c2.28,0,4.57,0.01,6.85-0.01c0.47,0,0.95-0.05,1.41-0.17c0.53-0.13,0.98-0.42,1-1.14
				c0.02-0.64-0.33-1.05-0.8-1.17c-1.63-0.42-2-1.85-2.4-3.36c-2.45-9.46-4.93-18.91-7.39-28.36c-0.19-0.73-0.32-1.33-1.25-1.31
				c-3.28,0.07-6.56,0.05-9.84,0.01c-0.65-0.01-0.91,0.26-1.11,0.9c-0.32,1.02-0.38,1.98-0.1,3.06c1.56,6.07,3.01,12.18,4.61,18.24
				C186.21,60.43,185.82,60.62,184.72,60.54z M252.32,56.07c1.48,1.26,3.12,2.21,4.87,2.94c2.09,0.87,4.19,1.71,6.27,2.6
				c0.88,0.38,1.75,0.82,2.51,1.48c2.12,1.87,1.89,4.67-0.53,5.99c-0.67,0.37-1.44,0.53-2.15,0.82c-1.2,0.5-0.49,1.64-0.59,2.47
				c-0.1,0.87,0.62,0.63,1.03,0.59c3.32-0.3,6.47-1.2,9.2-3.43c5.66-4.62,5.66-12.58,0.04-17.24c-1.74-1.44-3.75-2.25-5.75-3.09
				c-2.26-0.94-4.61-1.67-6.73-3.01c-1.3-0.82-2.32-1.93-2.14-3.77c0.16-1.71,1.3-2.52,2.62-2.98c0.83-0.29,1.2-0.74,1.01-1.71
				c-0.11-0.64,0.42-1.68-0.9-1.57c-3.14,0.26-6.11,1.07-8.67,3.2C247.31,43.63,247.26,51.75,252.32,56.07z M215.2,56.46
				c1.37,1.07,2.85,1.9,4.41,2.55c2.09,0.87,4.19,1.7,6.27,2.6c1.02,0.44,2.02,0.93,2.83,1.79c1.63,1.72,1.4,4.16-0.52,5.46
				c-0.74,0.5-1.57,0.73-2.39,1c-1.26,0.42-0.56,1.6-0.65,2.43c-0.11,0.99,0.67,0.69,1.12,0.65c3.02-0.28,5.92-1.08,8.47-2.97
				c2.93-2.17,4.76-5.1,4.84-10.39c0.05-1.46-0.87-3.7-2.5-5.63c-1.46-1.72-3.22-2.95-5.2-3.8c-2.44-1.04-4.89-2.03-7.32-3.09
				c-0.79-0.35-1.57-0.77-2.26-1.32c-2.35-1.88-2.07-4.75,0.55-6.08c0.3-0.15,0.62-0.26,0.93-0.4c1.18-0.53,0.48-1.65,0.56-2.48
				c0.09-1-0.72-0.59-1.15-0.56c-2.6,0.16-5.07,0.88-7.32,2.36C209.59,42.69,209.26,51.81,215.2,56.46z M287.83,39.65
				c1.11,0.24,1.44,0.96,1.44,2.13c-0.02,8.48-0.02,16.97,0,25.45c0,1.24-0.32,2.02-1.5,2.24c-0.75,0.14-1.44,0.54-1.37,1.5
				c0.08,1.07,0.94,1.29,1.7,1.3c5.04,0.04,10.08,0.04,15.12,0c0.75-0.01,1.59-0.17,1.69-1.29c0.09-1.04-0.63-1.34-1.35-1.51
				c-1.04-0.25-1.54-0.87-1.54-2.08c0.01-8.59,0.01-17.18,0.01-25.77c0-1.02,0.36-1.69,1.32-1.93c0.79-0.2,1.71-0.44,1.54-1.66
				c-0.17-1.27-1.18-1.2-2.02-1.21c-2.33-0.03-4.66-0.01-6.99-0.01v0.01c-2.57,0-5.13-0.01-7.7,0.01c-0.79,0.01-1.63,0.16-1.77,1.2
				C286.26,39.12,287.07,39.49,287.83,39.65z M137.44,124.5c-1.55-0.2-2-1.17-1.97-2.82c0.07-4.64,0.03-9.27,0.03-13.91
				c0-4.85-0.01-9.69,0.01-14.54c0-0.83-0.02-1.38-1.02-1.36c-4.28,0.06-8.56,0.02-12.83,0.03c-0.78,0-1.62,0.1-1.78,1.16
				c-0.17,1.1,0.62,1.48,1.39,1.64c1.19,0.25,1.48,1.05,1.48,2.27c-0.02,8.43-0.03,16.86,0,25.29c0,1.24-0.35,2.01-1.5,2.26
				c-0.73,0.16-1.44,0.48-1.39,1.49c0.06,1.13,0.93,1.31,1.67,1.31c5.23,0.04,10.46,0.04,15.68-0.01c0.79-0.01,1.73-0.2,1.79-1.38
				C139.05,124.83,138.21,124.6,137.44,124.5z M254.1,124.69c-0.31-0.13-0.64-0.21-0.97-0.26c-1.27-0.18-1.73-0.96-1.71-2.38
				c0.06-4.74,0.02-9.49,0.02-14.23c0-4.9,0-9.81,0-14.71c0-0.65,0.08-1.24-0.82-1.24c-4.42,0.04-8.85,0.01-13.27,0.04
				c-0.73,0-1.48,0.21-1.57,1.23c-0.08,0.92,0.52,1.36,1.2,1.49c1.38,0.26,1.69,1.18,1.68,2.59c-0.04,8.01-0.04,16.02,0,24.03
				c0.01,1.72-0.06,3.17-2,3.45c-0.54,0.08-0.9,0.56-0.9,1.25c0,0.79,0.48,1.11,1.07,1.25c0.41,0.1,0.84,0.17,1.27,0.17
				c4.76,0.01,9.51,0.02,14.27,0c0.56,0,1.14-0.11,1.68-0.28c0.53-0.16,0.92-0.55,0.89-1.25
				C254.92,125.22,254.57,124.89,254.1,124.69z M176.97,93.31c-0.04-1.19-0.94-1.38-1.76-1.39c-5.28-0.03-10.56-0.02-15.84,0
				c-0.74,0-1.47,0.24-1.55,1.26c-0.07,0.94,0.55,1.34,1.23,1.47c1.39,0.26,1.67,1.21,1.66,2.61c-0.04,7.96-0.05,15.92,0,23.89
				c0.01,1.76,0.02,3.3-2.03,3.59c-0.54,0.08-0.89,0.6-0.87,1.28c0.02,0.7,0.43,1.05,0.97,1.18c0.51,0.12,1.03,0.19,1.55,0.2
				c1.95,0.02,3.9,0.01,5.85,0.01c1.81,0,3.62,0.01,5.42,0c2.1-0.02,1.85,0.29,1.85-1.98c0.01-9.33,0.02-18.67-0.02-28
				c-0.01-1.58,0.41-2.51,1.94-2.67C176.13,94.66,177.01,94.43,176.97,93.31z M129.02,69.63c-0.6,0.09-0.98,0.61-0.95,1.37
				c0.04,0.81,0.57,1.05,1.14,1.19c0.46,0.11,0.94,0.12,1.41,0.12c4.61,0.01,9.22,0.01,13.83,0c0.33,0,0.67,0.03,1-0.04
				c0.8-0.15,1.74-0.25,1.78-1.42c0.03-1.08-0.81-1.33-1.59-1.42c-1.57-0.19-2-1.21-1.98-2.82c0.05-4.64,0.02-9.27,0.02-13.91
				c0-4.85,0.01-9.69-0.01-14.54c0-0.56,0.27-1.34-0.71-1.34c-4.47,0.02-8.94,0.01-13.4,0.04c-0.69,0.01-1.36,0.25-1.46,1.18
				c-0.1,0.92,0.44,1.39,1.15,1.52c1.45,0.26,1.76,1.24,1.75,2.71c-0.04,8.01-0.04,16.02,0,24.02
				C131,67.98,130.9,69.35,129.02,69.63z M271.17,121.49c-0.19,0.16-0.35,0.35-0.52,0.53c-0.25,0.28-0.54,0.46-0.89,0.31
				c-0.39-0.16-0.37-0.58-0.37-0.94c-0.01-1.58-0.01-3.16,0-4.74c0-1.96-0.78-3.43-2.24-4.48c-1.09-0.78-2.28-1.3-3.54-1.58
				c-0.87-0.2-1.74-0.38-2.88-0.63c1.58-0.59,2.9-0.98,4.14-1.56c3.19-1.49,4.78-4.25,4.67-7.88c-0.11-3.46-2.12-6.1-5.78-7.56
				c-2.78-1.11-5.7-1.08-8.59-1.04c-0.49,0.01-1.41-0.52-1.41,0.65c0,0.92-0.51,2.06,0.92,2.55c1.8,0.61,2.23,1.44,2.24,3.51
				c0.02,2.27,0.02,4.53,0,6.8c-0.02,2.02-0.52,2.83-2.24,3.27c-0.8,0.21-1.01,0.62-0.92,1.41c0.08,0.71-0.29,1.51,0.82,1.83
				c1.76,0.51,2.33,1.54,2.35,3.6c0.01,1.79-0.02,3.58,0.01,5.37c0.05,3.13,1.53,5.43,4.19,6.47c2.21,0.86,4.48,0.87,6.75,0.36
				c2.35-0.52,4.19-1.92,5.52-4.13c0.42-0.69,0.61-1.45-0.12-2.12C272.55,120.85,271.86,120.89,271.17,121.49z M208.45,125.14
				c-2.17-0.83-2.26-2.75-2.27-4.73c-0.02-7.38,0.01-14.75-0.02-22.13c0-1.89,0.38-3.4,2.18-4.14c1.06-0.43,0.52-1.56,0.51-2.36
				c0-0.96-0.78-0.52-1.21-0.5c-8.69,0.48-15.01,8.24-15.01,18.37c0,10.12,5.97,17.37,15.11,18.3c0.39,0.04,1.12,0.44,1.11-0.42
				C208.84,126.73,209.44,125.52,208.45,125.14z M212.38,91.28c-0.37-0.02-1.13-0.52-1.11,0.36c0.01,0.83-0.61,2.03,0.5,2.5
				c1.78,0.75,2.21,2.24,2.21,4.13c-0.02,7.33,0,14.65-0.01,21.98c0,0.52-0.06,1.05-0.1,1.57c-0.12,1.54-0.69,2.67-2.09,3.25
				c-1.14,0.48-0.48,1.64-0.51,2.47c-0.03,0.86,0.72,0.45,1.1,0.41c9.17-0.95,15.14-8.16,15.15-18.27
				C227.53,99.49,221.26,91.85,212.38,91.28z M147.12,39.91c1.68,0.43,2.17,1.38,2.19,3.36c0.02,2.68-0.02,5.37,0.01,8.05
				c0.03,2.19-0.41,3.93-2.66,4.53c-1.1,0.29-0.35,1.43-0.52,2.16c-0.12,0.55,0.23,0.72,0.68,0.71c3.33-0.08,6.65-0.21,9.73-1.87
				c3.61-1.94,5.4-5.12,5.31-9.6c-0.08-4.3-2.18-7.03-5.53-8.78c-2.41-1.27-5.02-1.46-7.82-1.64c-0.2,0-0.59-0.07-0.96,0.02
				c-0.51,0.12-1.41-0.52-1.44,0.62C146.11,38.37,145.6,39.52,147.12,39.91z M98.25,71.58c-3.37-1.54-6.84-2.56-10.29-2.69
				c-5.82-0.05-10.85,2.82-13.74,7.65c-0.48,0.81-0.63,1.38,0.07,2.16c0.9,1.01,1.71,2.13,2.49,3.26c0.45,0.65,0.81,0.66,1.4,0.21
				c1.52-1.18,3.12-2.23,4.61-3.44c1.18-0.95,2.17-2.72,3.41-2.93c1.24-0.21,2.67,1.13,4.05,1.65c3.43,1.3,7.14-0.63,8.57-4.32
				C99.14,72.28,98.99,71.92,98.25,71.58z M87.3,77.05c-0.38-0.28-0.63-0.29-0.98,0.06c-2.32,2.38-5.01,4.17-7.84,5.7
				c-0.7,0.38-0.63,0.74-0.21,1.29c0.83,1.09,1.9,1.82,3.12,2.08c4.77,1.01,9.29,0.19,13.36-2.78c2.16-1.58,3.39-3.9,3.54-7.17
				C94.61,79.43,91.01,79.83,87.3,77.05z M169.77,72.29c2.66,0.04,5.32,0.04,7.98,0c0.72-0.01,1.52-0.17,1.65-1.15
				c0.13-1-0.62-1.3-1.29-1.61c-2.4-1.09-2.7-1.81-1.86-4.6c1.5-4.99,3-9.98,4.51-14.96c0.19-0.61,0.37-1.19,0.18-1.84
				c-0.41-1.45-0.81-2.9-1.22-4.4c-0.5,0.51-0.54,1.17-0.72,1.76c-1.94,6.38-3.88,12.76-5.78,19.15c-0.68,2.27-1.77,4.05-3.94,4.81
				c-0.7,0.25-1.64,0.46-1.44,1.59C168.03,72.12,168.95,72.28,169.77,72.29z M289.34,124.52c-2.14-0.95-2.5-1.84-1.77-4.28
				c1.31-4.34,2.42-8.78,4-12.99c1.15-3.07,0.53-5.69-0.56-8.52c-0.17,0.53-0.32,0.96-0.45,1.41c-1.98,6.53-3.99,13.06-5.93,19.61
				c-0.7,2.35-1.87,4.12-4.1,4.83c-0.23,0.07-0.45,0.19-0.65,0.32c-0.38,0.25-0.71,0.55-0.67,1.11c0.04,0.53,0.36,0.88,0.78,1.04
				c0.44,0.17,0.92,0.33,1.38,0.33c2.52,0.03,5.04,0.04,7.56,0c0.8-0.01,1.76-0.05,1.9-1.22
				C290.93,125.07,290.05,124.83,289.34,124.52z M210.99,70.67c0.01,0.76,0.2,1.5,0.89,1.85c0.73,0.37,1.42,0.16,1.94-0.48
				c0.87-1.06,1.86-1.09,2.98-0.6c1.55,0.67,3.11,1.31,4.78,1.47c0.45,0.05,1.33,0.57,1.31-0.52c-0.02-0.88,0.69-2.17-0.82-2.56
				c-2.28-0.59-3.96-2.17-5.41-4.12c-1.13-1.52-1.94-3.24-2.5-5.1c-0.3-1-0.86-1.5-1.81-1.31c-0.94,0.19-1.36,0.88-1.36,1.9
				c-0.01,1.53,0,3.05,0,4.58h0.01C210.98,67.4,210.96,69.03,210.99,70.67z M248.6,70.46c0,0.89,0.15,1.72,0.98,2.09
				c0.75,0.33,1.39,0.02,1.92-0.6c0.79-0.93,1.69-1.02,2.73-0.59c1.55,0.65,3.11,1.32,4.77,1.51c0.51,0.06,1.43,0.61,1.49-0.46
				c0.05-0.91,0.7-2.27-0.92-2.64c-1.57-0.35-2.86-1.35-4.03-2.55c-1.74-1.79-2.96-3.96-3.71-6.45c-0.31-1.01-0.78-1.69-1.85-1.5
				c-1.13,0.2-1.4,1.07-1.39,2.19c0.02,1.47,0.01,2.95,0.01,4.42C248.6,67.41,248.6,68.94,248.6,70.46z M227.47,39.31
				c3.81,1.12,6.25,3.84,7.39,7.99c0.3,1.1,0.96,1.58,1.91,1.46c1.07-0.13,1.54-0.91,1.52-2.09c-0.02-1.37-0.01-2.74-0.01-4.11
				c0-1.37,0.02-2.74-0.01-4.11c-0.02-0.8-0.09-1.61-0.9-1.98c-0.85-0.39-1.5,0.02-1.98,0.75c-0.63,0.95-1.4,0.93-2.27,0.57
				c-1.65-0.68-3.34-1.25-5.1-1.43c-0.45-0.05-1.33-0.59-1.32,0.5C226.72,37.68,226.06,38.9,227.47,39.31z M185.98,115.16
				c-0.62-0.23-1.25-0.2-1.71,0.37c-0.28,0.34-0.49,0.78-0.64,1.22c-1.31,3.83-3.22,6.89-7.24,7.62c-1.14,0.21-0.44,1.5-0.57,2.29
				c-0.13,0.83,0.48,0.73,0.94,0.73c1.47,0,2.95,0,4.42,0c1.57,0,3.14-0.02,4.71,0.01c0.61,0.01,0.84-0.2,0.84-0.89
				c-0.02-3.32-0.02-6.64-0.01-9.96C186.72,115.9,186.56,115.37,185.98,115.16z M265.66,39.51c1.02,0.18,1.95,0.8,2.81,1.48
				c2,1.59,3.35,3.69,4.01,6.32c0.28,1.09,0.97,1.57,1.92,1.44c0.99-0.13,1.47-0.81,1.43-1.97c-0.04-1.42-0.01-2.84-0.01-4.26
				c0-1.47,0.01-2.95,0-4.42c0-0.72-0.15-1.36-0.85-1.66c-0.72-0.31-1.36-0.09-1.78,0.55c-0.76,1.19-1.66,1.12-2.75,0.67
				c-1.64-0.68-3.34-1.15-5.1-1.39c-0.81-0.11-1.05,0.15-1.08,1.07C264.22,38.55,264.41,39.28,265.66,39.51z M148.55,91.88
				c-1.52,0.03-3.04,0.01-4.57,0.01c-1.62,0-3.24,0-4.85,0c-0.58,0-1.25-0.08-1.09,0.91c0.13,0.8-0.59,2.05,0.84,2.24
				c3.78,0.5,6.44,2.61,7.85,6.59c0.3,0.85,0.97,1.11,1.76,0.94c0.79-0.17,1.07-0.76,1.06-1.61c-0.01-2.69-0.03-5.38,0.01-8.07
				C149.6,91.97,149.22,91.86,148.55,91.88z M144.67,103.98c0-0.94-0.31-1.66-1.24-1.8c-0.86-0.12-1.54,0.26-1.76,1.21
				c-0.45,1.99-1.49,3.36-3.22,4.11c-1.03,0.45-0.49,1.44-0.57,2.2c-0.05,0.47-0.19,1.04,0.5,1.26c1.78,0.56,2.69,2.04,3.21,3.89
				c0.31,1.1,0.92,1.71,2.01,1.49c1.09-0.22,1.04-1.22,1.06-2.1c0.03-1.63,0.01-3.26,0.01-4.89
				C144.67,107.56,144.67,105.77,144.67,103.98z M83.8,53.42c0.97-2.97,1.4-6.23,3.22-9.04c0.46,0.94,0.12,1.57-0.09,2.18
				c-0.71,2.06-1.48,4.1-2.19,6.17c-0.16,0.46-0.61,1.1-0.08,1.41c0.64,0.38,0.83-0.49,1.11-0.91c0.59-0.9,0.92-1.95,1.26-3
				c0.51-1.59,1.12-3.13,2-4.52c0.25-0.39,0.48-1.05,1.09-0.61c0.51,0.37,0.42,0.98,0.14,1.41c-1.54,2.35-1.93,5.39-3.72,7.6
				c-0.23,0.29-0.66,0.61-0.42,1.07c0.26,0.5,0.74,0.6,1.24,0.4c1.72-2.36,3.42-4.74,5.16-7.08c0.52-0.69,1.25-1.9,1.98-1.18
				c0.81,0.8-0.36,1.58-0.84,2.27c-1.7,2.47-3.67,4.63-6.08,6.25c-0.01,0.32,0.1,0.53,0.41,0.4c2.79-1.18,5.59-2.36,8.37-3.57
				c0.84-0.37,0.96-1.05,0.31-1.7c-1.48-1.47-1.2-3.03-0.33-4.68c0.24-0.46,0.78-1.02,0.08-1.47c-0.62-0.4-0.91,0.24-1.22,0.71
				c-0.27,0.4-0.46,0.95-1.11,0.56c-1.42-0.86-2.48-3.83-1.89-5.47c0.2-0.55,0.47-1.1,0.02-1.61c-0.48-0.52-0.98-0.17-1.44,0.09
				c-3.07,1.73-5.48,4.13-6.58,7.9c-0.41,1.4-0.86,2.79-1.4,4.13C82.29,52.37,82.48,53.12,83.8,53.42z M72.11,59.11
				c0.22-0.4-0.02-0.67-0.31-0.91c-1.77-1.45-3.22-3.26-4.77-4.97c-0.23-0.26-0.46-0.54-0.88-0.59c-0.19-0.01-0.42,0.06-0.49,0.37
				c-0.12,0.48,0.18,0.79,0.44,1.09c1.59,1.82,3.41,3.34,5.2,4.9C71.53,59.19,71.82,59.64,72.11,59.11z M72.75,57.56
				c0.12-0.14,0.19-0.36,0.3-0.57c-0.12-0.17-0.23-0.34-0.35-0.49c-0.92-1.28-1.82-2.56-2.75-3.82c-0.22-0.3-0.46-0.82-0.9-0.46
				c-0.35,0.29-0.23,0.77-0.03,1.16c0.81,1.57,1.95,2.84,3.14,4.05C72.31,57.57,72.51,57.83,72.75,57.56z M49.07,39.57
				c1.73,1.3,4.91,1.08,6.33-0.71c0.97-1.23,1.89-1.41,3.24-0.98c2.49,0.78,4.96,1.16,6.89-1.55c0.59-0.83,1.2-0.51,1.66,0.4
				c0.71,1.4,0.87,3,1.4,4.47c0.59,1.64,0.45,1.92-1.09,2.19c-1.15,0.2-2.26,0.39-2.78,1.81c-0.16,0.45-0.51,0.53-0.93,0.22
				c-1.07-0.77-2.1-0.28-3.1,0.23c-0.34,0.17-0.78,0.39-0.7,0.88c0.06,0.38,0.48,0.45,0.81,0.53c1.35,0.33,2.63,0.89,3.89,1.49
				c1.18,0.56,2.42,0.58,3.59-0.1c0.84-0.49,0.87-1.09-0.03-1.56c-0.55-0.29-1.16-0.44-1.74-0.67c-0.34-0.14-0.82-0.16-0.86-0.68
				c-0.04-0.57,0.39-0.83,0.79-1c1.35-0.58,2.76-0.73,3.93,0.34c1.16,1.07,2.35,2.14,3.27,3.51c2.33,3.45,2.41,5.23,0.36,8.9
				c-0.6,1.07-1.22,2.14-1.3,3.46c-0.06,0.99,0.15,1.6,1.23,1.57c4.49-0.1,8.68-1.58,12.77-3.46c0.74-0.34,0.76-0.82,0.2-1.42
				c-1.7-1.8-3.5-3.32-5.87-3.99c-2.63-0.74-4.68-2.31-5.09-5.63c-0.06-0.5-0.27-1.01-0.51-1.46c-0.88-1.67-0.91-1.71,0.87-2.27
				c2.09-0.65,4.03-1.56,5.54-3.37c0.35-0.41,0.64-0.82,0.38-1.39c-0.29-0.65-0.79-0.45-1.24-0.29c-1.04,0.38-2.09,0.69-3.2,0.68
				c-1.17-0.02-2.13,0.47-2.77,1.6c-0.06,0.3-0.24,0.79-0.15,0.86c0.88,0.71,0.32,1.28-0.14,1.77c-0.7,0.73-1.69,1.11-2.49,0.68
				c-0.82-0.44-0.23-1.21,0.29-1.57c0.77-0.52,1.6-0.93,2.15-1.77c0-1.18-0.93-1.5-1.58-2.06c-1.27-1.1-2.6-2.12-3.89-3.2
				c-0.26-0.21-0.56-0.54-0.41-0.93c0.14-0.38,0.55-0.36,0.88-0.36c0.24,0,0.49-0.04,0.71,0.04c3.03,1.07,4.87-0.67,6.36-3.27
				c0.31-0.54,0.63-1.05,1.18-1.34c0.51-0.26,0.88-0.16,0.82,0.53c-0.08,0.83-0.21,1.62,0.79,1.85c0.99,0.24,1.78-0.11,2.31-1.08
				c0.47-0.86,0.92-1.72,1.36-2.6c0.84-1.68,0.78-1.86-0.7-2.75h-1.14c-0.75,0.64-1.54,1.23-1.8,2.35
				c-0.07,0.29-0.28,0.61-0.62,0.51c-1.54-0.44-2.33,0.71-2.97,1.87c-1.44,2.61-3.38,3.54-6.05,2.64c-0.67-0.23-1.42-0.27-1.81,0.71
				c-0.38,0.96-0.88,0.89-1.27,0.01c-0.43-0.96-1.16-1.32-2.05-1.48c-1.17-0.2-2.34-0.44-3.51-0.66c-0.87-0.16-1.04-0.9-0.97-1.66
				c0.09-0.98,0.77-0.4,1.21-0.42c0.18-0.01,0.37,0.12,0.55,0.14c0.74,0.08,1.32-0.23,1.59-1.02c0.28-0.84-0.08-1.4-0.74-1.81
				c-1.21-0.75-2.54-0.84-3.87-0.82c-0.92,0.02-1.02,0.94-1.2,1.7c-0.17,0.74,0.19,1.13,0.78,1.22c0.73,0.11,0.83,0.63,0.72,1.24
				c-0.28,1.6,0.52,2.19,1.76,2.41c1.12,0.2,2.25,0.38,3.37,0.62c0.88,0.19,1.13,0.79,0.54,1.58c-0.97,1.34-2.03,2.46-3.82,2.29
				c-1.02-0.1-1.95-0.47-2.9-0.76c-0.82-0.26-1.56-0.45-2.25,0.3c-0.5,0.53-0.74,0.16-1.09-0.32c-0.89-1.23-2.27-1.16-3.14,0.08
				c-0.39,0.57-0.85,0.8-1.49,0.53c-0.54-0.23-1.24,0.34-1.44,0.86C48.65,38.81,48.54,39.16,49.07,39.57z M81.52,52.43
				c0.3-0.01,0.37-0.25,0.39-0.53c0.16-2.1-0.15-4.13-0.78-6.13c-0.61,2.11,0.1,4.24-0.18,6.34C80.92,52.36,81.27,52.44,81.52,52.43
				z M57.97,56.43L57.97,56.43c0.33,0.07,0.66,0.12,0.98,0.21c3.71,0.93,7.14,2.85,10.85,3.8c0.58,0.15,1.14,0.35,2.05,0.02
				c-2-1.15-3.92-1.9-5.44-3.22c-2.98-2.59-6.31-2.91-9.83-2.64c-0.71,0.05-1.43,0.05-2.14,0.1c-1.48,0.1-2.72-0.37-3.55-1.82
				c-0.65-1.14-1.23-0.75-1.68,0.15c-0.25,0.49-0.38,1.08-0.44,1.64c-0.33,3.02,1.17,5.2,2.8,7.3c0.33,0.43,0.79,0.49,1.3,0.29
				c4.01-1.58,8.18-1.73,12.37-1.59c0.64,0.37,1.34,0.27,2.02,0.32c0.36,0.29,0.79,0.26,1.2,0.29c0.37,0.36,0.77,0.39,1.38,0.09
				c-0.48-0.16-0.81-0.27-1.14-0.38h0c-0.37-0.11-0.74-0.22-1.1-0.32c-0.38-0.11-0.76-0.21-1.14-0.32
				c-3.02-1.21-6.17-2.03-9.07-3.61c-0.23-0.07-0.57-0.3-0.41-0.46C57.25,55.99,57.66,56.12,57.97,56.43z M211.21,82.23
				c8.31-2.71,16.54-2.96,24.88-0.45c5.56,1.67,11.19,2.97,16.97,3.15c5.9,0.19,11.48-1.51,17-3.56c4.5-1.67,8.94-3.6,13.66-4.43
				c7.01-1.22,13.53-0.01,19.26,4.98c2.25,1.96,3.78,4.39,4.47,7.49c0.45,2.04,0.89,4.1,1.74,6c0.17,0.6,0.32,1.21,1.03,1.49
				l-0.76-1.82c-0.44-1.99-0.95-3.97-1.32-5.97c-0.6-3.24-2.1-5.82-4.39-7.91c-5.54-5.04-12-6.27-18.9-5.55
				c-4.87,0.51-9.42,2.42-14.01,4.13c-6.19,2.3-12.42,4.35-19.07,3.89c-5.05-0.35-9.99-1.41-14.84-2.93
				c-8.88-2.78-17.7-2.84-26.54,0.24c-4.26,1.48-8.57,2.75-12.86,4.13c-4.64,1.48-9.33,2.62-14.19,1.72
				c-4.64-0.86-9.1-2.59-13.67-3.83c-0.33-0.09-0.57-0.28-0.73-0.67c-0.52-1.25-0.94-2.22-2.48-2.81c-1.83-0.7-3.7-1.88-5.33-3.25
				c-1.57-1.32-3.07-2.73-3.91-4.98c2.69,0.85,4.27,0.58,5.47-0.83c1.19-1.4,0.81-3.03-0.87-3.45c-1.48-0.37-3.04-0.31-4.22,0.81
				c-1.16,1.1-1.41,0.38-1.78-0.67c-0.36-1.01-0.02-1.78,0.63-2.38c1.09-1.01,2.24-1.95,3.36-2.93c0.58-0.33,1.1-0.72,1.56-1.69
				c-0.89,0.38-1.42,0.83-1.9,1.37c-1.34,0.81-2.64,1.68-3.77,2.83c-0.65,0.66-1.31,1.53-0.93,2.48c0.84,2.05,1.18,4.3,2.11,6.27
				c1.01,2.14,2.74,3.61,4.55,4.93c1.25,0.91,2.23,2.1,3.52,3.61c-0.79-0.16-1.11-0.21-1.43-0.29c-4.18-1.04-8.41-1.74-12.69-2.02
				c-11.01-0.72-21.84,0.51-32.47,3.84c-1.2,0.38-2.35,0.81-3.58,0.13c-0.63-0.35-1.29-0.02-1.73,0.42
				c-1.34,1.34-2.53,0.69-3.67-0.26c-0.87-0.73-1.71-1.52-2.47-2.38c-1.93-2.22-4.31-3.6-6.85-4.71c-0.33-0.14-0.65-0.49-0.94,0.13
				c-0.79,1.68-0.33,3.16,1.3,3.78c2.49,0.94,4.86,2.04,6.79,4.15c1.05,1.15,2.45,1.8,3.92,2.13c0.51,0.12,1.1,0.04,0.98,0.95
				c-0.11,0.81-0.57,1.07-1.22,0.94c-0.93-0.18-1.85-0.51-2.79-0.61c-6.33-0.64-11.84,1.2-16.1,6.7c-0.43,0.56-0.96,1.02-1.4,1.57
				c-1.42,1.8-3.08,2.01-4.99,1.06c-0.64-0.32-1.35-0.51-2.05-0.65c-3-0.6-5.94-0.79-8.66,1.23c-3.03,2.25-4.78,5.97-7.82,8.21
				c-0.36,0.27-0.54,0.79-0.29,1.27c0.24,0.46,0.69,0.53,1.14,0.43c0.37-0.09,0.73-0.22,1.09-0.35c1.55-0.55,3.11-0.93,4.76-0.52
				c1.39,0.35,2.51-0.34,3.46-1.39c0.9-0.99,1.97-1.65,3.15-2.09c1.14-0.42,2.14-0.47,2.7,1.07c0.64,1.77,0.54,2.24-0.94,3.22
				c-0.41,0.27-0.83,0.51-1.25,0.76c-2.41,1.46-3.06,2.82-2.65,5.8c0.66,4.75,1.95,9.33,3.1,13.95c0.17,0.69,0.56,1.13,1.21,1.12
				c0.61-0.01,1.11-0.35,1.29-1.04c0.14-0.5,0.22-1.03,0.29-1.54c0.47-3.26,1.91-5.79,4.51-7.49c1.35-0.88,2.7-1.77,4-2.75
				c1.62-1.22,1.66-1.65,0.57-3.39c-1.67-2.67-1.4-5.13,0.79-7.3c0.92-0.91,1.69-0.77,2.4,0.28c0.93,1.37,1.32,2.88,1.19,4.6
				c-0.16,2.13-0.13,2.26,1.75,2.19c1.99-0.08,3.4,0.85,4.41,2.61c0.51,0.87,1.01,1.41,1.94,0.81c0.92-0.59,1.61-1.76,1.12-2.61
				c-1.38-2.42-0.93-4.85-0.53-7.34c0.12-0.73,0.02-1.49-0.65-1.76c-1.8-0.73-2.85-2.4-4.12-3.8c-1.05-1.16-2.24-1.99-3.81-1.69
				c-1.61,0.3-3.23,0.18-4.84,0.26c-1.24,0.06-2.29-0.34-3.32-1.26c1.49-1.25,2.78-2.62,3.94-4.16c1.12-1.48,2.57-2.47,4.21-3.15
				c3.95-1.63,7.9-2.58,12.09-0.9c1.79,0.71,3.38,0.3,4.9-1.39c0.95-1.05,1.63-2.59,3.14-3.07c10.31-3.3,20.81-5.02,31.55-4.37
				c5.48,0.33,11.04,0.46,16.15,3.25c0.43,0.24,1.03,0.22,1.54,0.15c1.07-0.14,2.08,0.07,3.09,0.37c2.66,0.8,5.34,1.51,7.98,2.38
				c5.02,1.64,10.07,2.02,15.21,0.77C199.45,86.4,205.29,84.16,211.21,82.23z M159.2,68.11c0.09-0.04,0.17-0.09,0.27-0.1
				c0.88-0.15,1.78-0.37,2.58,0.3c0.3,0.26,0.28,0.64,0.09,0.99c-0.55,1.04-1.42,1.46-2.43,1.53c-0.91-0.04-2.02-0.2-2.17-1.13
				C157.39,68.8,158.47,68.44,159.2,68.11z M85.34,108.22c-0.2,1.27-0.68,2.38-1.44,3.35c-0.5,1.04-1.09,1.99-2.25,2.35
				c0.64-0.92,1.28-1.83,1.92-2.75c1.03-2.06,1.08-4.43,1.72-6.61c0.49-1.64,0.88-3.33,1.75-4.79c0.29-0.49,0.55-1.08,1.13-1.28
				c0.1,0.18,0.19,0.31,0.17,0.34C86.57,101.65,85.87,104.9,85.34,108.22z M70.61,122.15c-0.36,0.08-0.58,0.09-0.7-0.45
				c-0.5-2.17-2.14-3.11-4.03-2.38c-0.66,0.25-1.24,0.65-1.31,1.49c-0.06,0.76,0.41,1.24,0.92,1.67c0.75,0.63,1.69,0.49,2.84,0.72
				c-3.02,3.24-11.65,2.62-12.54,2.61c-0.03,0-0.05,0.01-0.08,0.02c-0.28,0.03-0.6,0.12-0.53,0.39c0.1,0.4,0.43,0.18,0.63-0.08
				c0,0,0-0.01,0-0.01c1.78-0.06,8.6,0.02,10.15-0.28c0.68-0.13,1.42-0.29,1.81-0.83c1.3-1.86,3.2-2.21,5.04-2.76
				c0.18-0.05,0.34-0.19,0.51-0.29c0.45-0.13,0.91-0.25,1.15-0.93c-0.64,0.07-1.08,0.28-1.48,0.61
				C72.2,121.82,71.4,121.98,70.61,122.15z M67.87,122.24c-0.85-0.19-2-0.11-2.11-1.37c-0.06-0.66,0.81-0.78,1.38-0.7
				c0.74,0.09,1.59,0.12,1.67,1.28C68.85,122.18,68.44,122.34,67.87,122.24z M89.97,55.95c-0.63,0.25-1.39,0.45-1.65,1.48
				c1.41,0.09,2.54-0.92,3.85-0.94c0.3-0.36,0.7-0.31,1.09-0.33c0,0,0,0,0,0c0.73-0.42,1.52-0.55,2.32-0.65
				c1.96-0.24,3.81-0.82,5.52-1.91c0.25-0.15,0.51-0.28,0.78-0.38c0.41-0.16,0.92-0.36,1.1,0.22c0.15,0.49-0.38,0.66-0.7,0.82
				c-2.01,0.96-4.12,1.55-6.29,1.9c-0.79,0.13-1.6,0.2-2.4,0.29c-0.47,0.11-0.95,0.22-1.42,0.33c-0.03,0.04-0.07,0.08-0.08,0.12
				c-0.01,0.04-0.01,0.12,0.01,0.13c0.55,0.42,1.18,0.28,1.77,0.29c3.85,0.05,7.68,0.16,11.43,1.35c2.46,0.78,4.58-0.13,6.35-2.13
				c1.78-2.01,3.1-4.39,4.32-6.83c0.41-0.82,1.07-1.57,1.07-2.54c0-2.65,0.81-4.91,2.33-6.92c0.34-0.45,0.88-1.14,0.37-1.66
				c-0.53-0.54-1.29-0.28-1.79,0.31c-2.01,2.37-4.6,3.6-7.37,4.18c-2.76,0.59-4.9,2.14-6.86,4.21c-1.03,1.09-2.09,2.15-3.13,3.23
				c-1.51,1.58-3.26,2.7-5.24,3.41C93.55,54.58,91.75,55.23,89.97,55.95z"/>
		</g>
	</g>
</g>
<g id="Фигура_4_3_" class="st0">
	<g id="Фигура_4_2_">
		<g>
			<path class="st3" d="M66.97,148.07h-1.1v11.2h-7.29v-11.2h-1.11v12.26H67.5v4.16h1.11v-5.22h-1.64V148.07z M79.05,153.84v-0.08
				c0.86-0.17,1.48-0.48,1.86-0.92c0.38-0.44,0.57-1.04,0.57-1.82c0-0.96-0.35-1.7-1.05-2.2c-0.7-0.5-1.74-0.75-3.14-0.75h-5.18
				v12.26h5.15c1.49,0,2.62-0.32,3.4-0.95c0.77-0.63,1.16-1.54,1.16-2.72c0-0.85-0.22-1.5-0.66-1.96
				C80.74,154.24,80.03,153.96,79.05,153.84z M73.24,149.13h4.02c1.02,0,1.78,0.15,2.29,0.46c0.51,0.31,0.76,0.82,0.76,1.53
				c0,0.77-0.25,1.33-0.74,1.68c-0.49,0.35-1.31,0.53-2.45,0.53h-3.88V149.13z M77.37,159.27h-4.13v-4.89h3.97
				c2.3,0,3.45,0.75,3.45,2.25C80.66,158.39,79.56,159.27,77.37,159.27z M90.66,147.83c-1.62,0-2.91,0.59-3.87,1.77
				c-0.96,1.18-1.44,2.74-1.44,4.7c0,1.98,0.5,3.52,1.49,4.61c0.99,1.1,2.37,1.65,4.15,1.65c0.7,0,1.35-0.05,1.93-0.16
				c0.58-0.11,1.22-0.31,1.91-0.61v-1.02c-0.81,0.32-1.48,0.53-2,0.63c-0.53,0.1-1.14,0.15-1.84,0.15c-1.43,0-2.53-0.44-3.29-1.33
				c-0.77-0.89-1.16-2.17-1.17-3.86h8.79v-0.9c0-1.73-0.41-3.1-1.24-4.11C93.23,148.34,92.1,147.83,90.66,147.83z M86.58,153.36
				c0.12-1.46,0.54-2.59,1.25-3.36c0.71-0.78,1.66-1.17,2.83-1.17c1.09,0,1.93,0.4,2.55,1.2c0.61,0.8,0.92,1.91,0.92,3.33H86.58z
				 M98.01,149.04h4.17v11.29h1.1v-11.29h4.06v-0.97h-9.33V149.04z M115.48,147.83c-1.68,0-3.01,0.56-3.97,1.68
				c-0.97,1.12-1.45,2.67-1.45,4.67c0,1.27,0.22,2.39,0.65,3.36c0.43,0.97,1.06,1.71,1.88,2.23c0.81,0.52,1.76,0.78,2.83,0.78
				c1.7,0,3.03-0.56,4-1.69c0.97-1.12,1.45-2.69,1.45-4.69c0-1.97-0.48-3.52-1.43-4.65C118.47,148.4,117.15,147.83,115.48,147.83z
				 M118.58,158.12c-0.74,0.94-1.78,1.42-3.13,1.42s-2.39-0.47-3.13-1.42c-0.74-0.94-1.11-2.26-1.11-3.94c0-1.7,0.37-3.01,1.09-3.94
				c0.73-0.93,1.77-1.39,3.12-1.39c1.35,0,2.39,0.47,3.14,1.4c0.75,0.93,1.12,2.24,1.12,3.93
				C119.69,155.86,119.32,157.18,118.58,158.12z M133.29,153.45c-0.72,0.58-1.41,1-2.08,1.26c-0.67,0.26-1.36,0.39-2.1,0.39
				c-1.04,0-1.81-0.23-2.31-0.69c-0.5-0.46-0.75-1.21-0.75-2.24v-4.1h-1.1v4.24c0,1.23,0.32,2.18,0.96,2.83
				c0.64,0.66,1.58,0.98,2.83,0.98c0.84,0,1.62-0.13,2.34-0.37c0.72-0.25,1.46-0.66,2.2-1.24v5.82h1.11v-12.26h-1.11V153.45z
				 M148.26,153.45h-7.75v-5.38h-1.11v12.26h1.11v-5.91h7.75v5.91h1.1v-12.26h-1.1V153.45z M158.6,147.85
				c-1.31,0-2.63,0.32-3.97,0.95l0.41,0.97c1.21-0.63,2.38-0.95,3.51-0.95c1.05,0,1.81,0.3,2.28,0.89c0.47,0.59,0.71,1.47,0.71,2.64
				v0.81l-2.32,0.07c-1.88,0.04-3.31,0.39-4.31,1.05c-0.99,0.66-1.49,1.59-1.49,2.78c0,1.09,0.33,1.94,1,2.56
				c0.66,0.62,1.6,0.93,2.79,0.93c0.88,0,1.65-0.17,2.3-0.49c0.65-0.33,1.28-0.88,1.89-1.67h0.09l0.28,1.94h0.82v-8.15
				c0-1.48-0.33-2.57-0.99-3.27C160.94,148.2,159.94,147.85,158.6,147.85z M161.5,155.3c0,1.33-0.38,2.37-1.13,3.12
				c-0.75,0.75-1.78,1.12-3.08,1.12c-0.85,0-1.51-0.21-1.98-0.64c-0.47-0.43-0.7-1.02-0.7-1.79c0-0.96,0.37-1.67,1.1-2.13
				c0.73-0.45,1.95-0.72,3.66-0.81l2.13-0.09V155.3z M167.51,149.03c-0.75,0.64-1.12,1.52-1.12,2.63c0,0.89,0.25,1.63,0.74,2.2
				c0.5,0.57,1.31,0.96,2.43,1.17l-3.68,5.29h1.4l3.42-5.15h3.73v5.15h1.1v-12.26h-5.03C169.26,148.07,168.25,148.39,167.51,149.03z
				 M174.44,154.11h-3.61c-1.09,0-1.91-0.2-2.45-0.61c-0.54-0.41-0.81-1.04-0.81-1.88c0-0.81,0.26-1.43,0.77-1.85
				c0.51-0.42,1.23-0.64,2.16-0.64h3.95V154.11z M193.81,157.16l-0.7,1.97c-0.18-0.63-0.41-1.31-0.68-2.04l-3.52-9.02h-1.47v12.26
				h1.01v-10.95c0.15,0.44,0.29,0.86,0.41,1.24c0.12,0.38,0.26,0.75,0.4,1.09l3.38,8.61h0.99c2.26-5.8,3.48-8.95,3.66-9.45
				c0.18-0.5,0.36-0.98,0.52-1.45v10.9h1.05v-12.26h-1.54L193.81,157.16z M208.1,147.85c-1.31,0-2.63,0.32-3.97,0.95l0.41,0.97
				c1.21-0.63,2.38-0.95,3.51-0.95c1.05,0,1.81,0.3,2.28,0.89c0.47,0.59,0.71,1.47,0.71,2.64v0.81l-2.32,0.07
				c-1.88,0.04-3.31,0.39-4.31,1.05c-0.99,0.66-1.49,1.59-1.49,2.78c0,1.09,0.33,1.94,1,2.56c0.66,0.62,1.6,0.93,2.79,0.93
				c0.88,0,1.65-0.17,2.3-0.49c0.65-0.33,1.28-0.88,1.89-1.67H211l0.28,1.94h0.82v-8.15c0-1.48-0.33-2.57-0.99-3.27
				C210.44,148.2,209.45,147.85,208.1,147.85z M211,155.3c0,1.33-0.38,2.37-1.13,3.12c-0.75,0.75-1.78,1.12-3.08,1.12
				c-0.85,0-1.51-0.21-1.98-0.64c-0.47-0.43-0.7-1.02-0.7-1.79c0-0.96,0.37-1.67,1.1-2.13c0.73-0.45,1.95-0.72,3.66-0.81l2.13-0.09
				V155.3z M221.99,148.85c0.78,0,1.7,0.18,2.75,0.53l0.3-0.99c-0.97-0.37-1.98-0.55-3.03-0.55c-1.78,0-3.19,0.57-4.21,1.7
				c-1.02,1.13-1.54,2.71-1.54,4.74c0,1.98,0.49,3.52,1.48,4.62c0.99,1.1,2.35,1.66,4.1,1.66c1.27,0,2.29-0.19,3.06-0.58v-1.04
				c-0.95,0.4-1.98,0.6-3.09,0.6c-1.39,0-2.46-0.47-3.23-1.4c-0.77-0.94-1.16-2.23-1.16-3.88c0-1.75,0.39-3.08,1.16-4.01
				C219.36,149.31,220.49,148.85,221.99,148.85z M227.23,149.04h4.17v11.29h1.1v-11.29h4.06v-0.97h-9.33V149.04z M244.58,147.83
				c-1.62,0-2.91,0.59-3.87,1.77c-0.96,1.18-1.44,2.74-1.44,4.7c0,1.98,0.5,3.52,1.49,4.61c0.99,1.1,2.37,1.65,4.15,1.65
				c0.7,0,1.35-0.05,1.93-0.16c0.58-0.11,1.22-0.31,1.91-0.61v-1.02c-0.81,0.32-1.48,0.53-2,0.63c-0.53,0.1-1.14,0.15-1.84,0.15
				c-1.43,0-2.53-0.44-3.29-1.33c-0.77-0.89-1.16-2.17-1.17-3.86h8.79v-0.9c0-1.73-0.41-3.1-1.24-4.11
				C247.16,148.34,246.02,147.83,244.58,147.83z M240.51,153.36c0.12-1.46,0.54-2.59,1.25-3.36c0.71-0.78,1.66-1.17,2.83-1.17
				c1.09,0,1.93,0.4,2.55,1.2c0.61,0.8,0.92,1.91,0.92,3.33H240.51z M258.76,147.83c-1.84,0-3.18,0.66-4.02,1.98h-0.07l-0.21-1.75
				h-0.94v17.8h1.11v-4.67c0-0.66-0.01-1.27-0.05-1.82l-0.03-0.95h0.08c0.86,1.41,2.23,2.12,4.11,2.12c1.57,0,2.81-0.55,3.72-1.66
				c0.91-1.11,1.36-2.67,1.36-4.69c0-2.08-0.43-3.66-1.3-4.74C261.67,148.38,260.41,147.83,258.76,147.83z M261.62,158.16
				c-0.69,0.93-1.65,1.4-2.9,1.4c-1.44,0-2.49-0.41-3.13-1.23c-0.64-0.82-0.96-2.19-0.96-4.11v-0.36c0-1.77,0.33-3.05,1-3.84
				c0.67-0.78,1.71-1.18,3.13-1.18c2.59,0,3.88,1.8,3.88,5.4C262.65,155.93,262.3,157.23,261.62,158.16z M273.14,148.85
				c0.78,0,1.7,0.18,2.75,0.53l0.3-0.99c-0.97-0.37-1.98-0.55-3.03-0.55c-1.78,0-3.19,0.57-4.21,1.7c-1.02,1.13-1.54,2.71-1.54,4.74
				c0,1.98,0.49,3.52,1.48,4.62c0.99,1.1,2.35,1.66,4.1,1.66c1.27,0,2.29-0.19,3.06-0.58v-1.04c-0.95,0.4-1.98,0.6-3.09,0.6
				c-1.39,0-2.46-0.47-3.23-1.4c-0.77-0.94-1.16-2.23-1.16-3.88c0-1.75,0.39-3.08,1.16-4.01
				C270.51,149.31,271.64,148.85,273.14,148.85z M287.97,148.07h-1.38l-5.49,5.95v-5.95h-1.14v12.26h1.14v-6.21l5.77,6.21h1.49
				L282.5,154L287.97,148.07z M295.67,147.85c-1.31,0-2.63,0.32-3.97,0.95l0.41,0.97c1.21-0.63,2.38-0.95,3.51-0.95
				c1.05,0,1.81,0.3,2.28,0.89c0.47,0.59,0.71,1.47,0.71,2.64v0.81l-2.32,0.07c-1.88,0.04-3.31,0.39-4.31,1.05
				c-0.99,0.66-1.49,1.59-1.49,2.78c0,1.09,0.33,1.94,1,2.56c0.66,0.62,1.6,0.93,2.79,0.93c0.88,0,1.65-0.17,2.3-0.49
				c0.65-0.33,1.28-0.88,1.89-1.67h0.09l0.28,1.94h0.82v-8.15c0-1.48-0.33-2.57-0.99-3.27C298.01,148.2,297.01,147.85,295.67,147.85
				z M298.57,155.3c0,1.33-0.38,2.37-1.13,3.12c-0.75,0.75-1.78,1.12-3.08,1.12c-0.85,0-1.51-0.21-1.98-0.64
				c-0.47-0.43-0.7-1.02-0.7-1.79c0-0.96,0.37-1.67,1.1-2.13c0.73-0.45,1.95-0.72,3.66-0.81l2.13-0.09V155.3z M307.58,148.07
				c-1.26,0-2.26,0.32-3,0.96c-0.75,0.64-1.12,1.52-1.12,2.63c0,0.89,0.25,1.63,0.75,2.2c0.5,0.57,1.31,0.96,2.43,1.17l-3.68,5.29
				h1.4l3.42-5.15h3.73v5.15h1.1v-12.26H307.58z M311.51,154.11h-3.61c-1.09,0-1.91-0.2-2.45-0.61c-0.54-0.41-0.81-1.04-0.81-1.88
				c0-0.81,0.26-1.43,0.77-1.85c0.51-0.42,1.23-0.64,2.16-0.64h3.95V154.11z"/>
		</g>
	</g>
</g>
</svg>
