<?xml version="1.0" encoding="utf-8"?>
<!-- Generator: Adobe Illustrator 20.1.0, SVG Export Plug-In . SVG Version: 6.00 Build 0)  -->
<svg version="1.1" id="Фигура_4_1_" xmlns="http://www.w3.org/2000/svg" xmlns:xlink="http://www.w3.org/1999/xlink" x="0px"
	 y="0px" viewBox="0 0 87 31" style="enable-background:new 0 0 87 31;" xml:space="preserve">
<style type="text/css">
	.st0{fill-rule:evenodd;clip-rule:evenodd;fill:#FFFFFF;}
</style>
<g id="Фигура_4">
	<g>
		<path class="st0" d="M86.79,29.74c-0.62-0.16-0.72-0.72-0.87-1.28c-0.72-2.77-1.46-5.53-2.17-8.3c-0.08-0.33-0.2-0.42-0.5-0.41
			c-0.86,0.02-1.72,0.01-2.58,0.01c-0.56,0-0.62,0.06-0.72,0.66c-0.03,0.19,0.04,0.34,0.08,0.51c0.46,1.86,0.92,3.72,1.4,5.58
			c0.07,0.29,0.05,0.41-0.25,0.39c-0.36-0.02-0.72,0.03-1.07-0.01c-0.44-0.06-0.61,0.14-0.69,0.59c-0.05,0.3,0.03,0.35,0.27,0.34
			c0.55-0.01,1.09,0.02,1.64-0.01c0.33-0.02,0.52,0.07,0.55,0.46c0.01,0.09,0.04,0.18,0.06,0.28c0.17,0.73,0.17,0.73-0.38,1.15
			c-0.26,0.2-0.23,0.51,0.06,0.67c0.15,0.08,0.3,0.08,0.46,0.08c1.38,0,2.75,0,4.13,0c0.3,0,0.57-0.07,0.79-0.29v-0.19
			C86.93,29.88,86.87,29.76,86.79,29.74z M9.31,13.88c0.73-0.69,1.39-1.48,2.25-2.04c-0.18-0.16-0.33-0.1-0.48-0.07
			c-0.64,0.11-1.26,0.31-1.91,0.35c-0.19,0.01-0.5,0.07-0.51-0.17c-0.01-0.22,0.29-0.24,0.49-0.24c0.85,0,1.69-0.14,2.52-0.3
			c0.47-0.09,0.93-0.25,1.45-0.4c-0.1-0.09-0.13-0.14-0.17-0.15c-1.32-0.32-2.64-0.3-3.97-0.08c-1.16,0.19-2.11,0.85-3.05,1.56
			c-0.68,0.51-1.35,1.08-2.17,1.21c-1.38,0.22-2.55,0.87-3.6,1.85C0.1,15.43,0.05,15.46,0,15.5v0.1c0.3,0.15,0.61,0.13,0.93,0.04
			c0.45-0.12,0.91-0.27,1.36-0.12c1.29,0.44,2.55,0.2,3.82-0.12C7.26,15.11,8.42,14.72,9.31,13.88z M10.72,18.62
			c0.81-0.18,1.4-0.65,1.8-1.47c0.4-0.82,0.83-1.63,1.33-2.39c0.9-1.37,2.11-2.16,3.65-2.3c1.14-0.1,2.22,0.26,3.31,0.52
			c0.91,0.22,1.78,0.64,2.72,0.7c2.58,0.16,4.4-1.23,5.76-3.51c0.11-0.19,0.34-0.41,0.11-0.67c-0.23-0.26-0.52-0.28-0.8-0.15
			c-0.18,0.09-0.34,0.24-0.5,0.37c-0.73,0.64-1.56,0.92-2.48,0.9c-0.71-0.02-1.39-0.2-2.07-0.41c-1.45-0.45-2.91-0.77-4.41-0.43
			c-0.93,0.21-1.76,0.78-2.69,0.97c-0.96,0.19-1.77,0.68-2.49,1.41c-0.5,0.51-1.13,0.81-1.79,0.98c-0.14,0.04-0.3,0.12-0.49-0.12
			c0.93-0.48,1.83-0.96,2.57-1.82c-1.21-0.11-2.13,0.43-2.97,1.2c-1.02,0.93-1.77,2.11-2.48,3.33c-0.35,0.6-0.66,1.29-1.31,1.53
			c-1.16,0.42-1.42,1.52-1.86,2.6c0.25,0.04,0.35-0.07,0.45-0.14c0.79-0.56,1.64-0.88,2.6-0.8C9.38,18.98,10.05,18.77,10.72,18.62z
			 M47.82,9.88c0.11,0.43,0,0.48-0.34,0.46c-0.31-0.02-0.64,0.04-0.95-0.02c-0.5-0.09-0.65,0.18-0.72,0.65
			c-0.03,0.22-0.01,0.28,0.19,0.28c0.46-0.01,0.92,0,1.38,0c0.77,0,0.75,0.01,0.98,0.82c0.14,0.49,0.14,0.87-0.38,1.05
			c-0.15,0.05-0.23,0.19-0.21,0.37c0.02,0.18,0.13,0.28,0.28,0.32c0.14,0.04,0.28,0.06,0.42,0.06c0.69,0.01,1.38,0,2.07,0
			c0.69,0,1.38,0,2.07,0c0.14,0,0.29-0.02,0.42-0.05c0.16-0.04,0.3-0.13,0.3-0.34c0.01-0.19-0.1-0.31-0.24-0.35
			c-0.49-0.13-0.6-0.56-0.72-1.01c-0.74-2.84-1.49-5.68-2.23-8.53c-0.06-0.22-0.1-0.4-0.38-0.39c-0.99,0.02-1.98,0.01-2.97,0
			c-0.19,0-0.28,0.08-0.34,0.27c-0.1,0.31-0.11,0.6-0.03,0.92C46.9,6.22,47.33,8.05,47.82,9.88z M69.34,9.88
			c0.63,0.26,1.26,0.51,1.89,0.78c0.27,0.11,0.53,0.25,0.76,0.45c0.64,0.56,0.57,1.4-0.16,1.8c-0.2,0.11-0.43,0.16-0.65,0.25
			c-0.36,0.15-0.15,0.49-0.18,0.74c-0.03,0.26,0.19,0.19,0.31,0.18c1-0.09,1.95-0.36,2.78-1.03c1.71-1.39,1.71-3.78,0.01-5.18
			c-0.53-0.43-1.13-0.68-1.74-0.93c-0.68-0.28-1.39-0.5-2.03-0.9c-0.39-0.25-0.7-0.58-0.65-1.13c0.05-0.52,0.39-0.76,0.79-0.89
			c0.25-0.09,0.36-0.22,0.3-0.51c-0.03-0.19,0.13-0.5-0.27-0.47c-0.95,0.08-1.84,0.32-2.61,0.96c-1.54,1.28-1.56,3.72-0.03,5.02
			C68.32,9.37,68.82,9.66,69.34,9.88z M56.67,9.11c0.41,0.32,0.86,0.57,1.33,0.77c0.63,0.26,1.26,0.51,1.89,0.78
			c0.31,0.13,0.61,0.28,0.85,0.54c0.49,0.52,0.42,1.25-0.16,1.64c-0.22,0.15-0.47,0.22-0.72,0.3c-0.38,0.13-0.17,0.48-0.2,0.73
			c-0.03,0.3,0.2,0.21,0.34,0.2c0.91-0.08,1.79-0.32,2.56-0.89c0.88-0.65,1.44-1.54,1.46-3.12c0.02-0.44-0.26-1.11-0.76-1.69
			c-0.44-0.52-0.97-0.89-1.57-1.14c-0.74-0.31-1.48-0.61-2.21-0.93c-0.24-0.1-0.47-0.23-0.68-0.4c-0.71-0.57-0.62-1.43,0.17-1.83
			c0.09-0.05,0.19-0.08,0.28-0.12c0.36-0.16,0.15-0.5,0.17-0.74c0.03-0.3-0.22-0.18-0.35-0.17c-0.78,0.05-1.53,0.26-2.21,0.71
			C54.98,4.97,54.88,7.71,56.67,9.11z M78.57,13.02c-0.23,0.04-0.44,0.16-0.41,0.45c0.02,0.32,0.28,0.39,0.51,0.39
			c1.52,0.01,3.04,0.01,4.56,0c0.23,0,0.48-0.05,0.51-0.39c0.03-0.31-0.19-0.4-0.41-0.46c-0.31-0.07-0.47-0.26-0.46-0.63
			c0-2.58,0-5.17,0-7.75c0-0.31,0.11-0.51,0.4-0.58c0.24-0.06,0.51-0.13,0.47-0.5c-0.05-0.38-0.36-0.36-0.61-0.36
			c-0.7-0.01-1.41,0-2.11,0v0c-0.77,0-1.55,0-2.32,0c-0.24,0-0.49,0.05-0.54,0.36c-0.05,0.33,0.2,0.44,0.43,0.49
			c0.34,0.07,0.43,0.29,0.43,0.64c-0.01,2.55-0.01,5.1,0,7.65C79.02,12.72,78.92,12.96,78.57,13.02z M33.21,29.57
			c-0.47-0.06-0.6-0.35-0.59-0.85c0.02-1.39,0.01-2.79,0.01-4.18c0-1.46,0-2.91,0-4.37c0-0.25-0.01-0.41-0.31-0.41
			c-1.29,0.02-2.58,0.01-3.87,0.01c-0.24,0-0.49,0.03-0.54,0.35c-0.05,0.33,0.19,0.45,0.42,0.49c0.36,0.08,0.45,0.32,0.45,0.68
			c-0.01,2.53-0.01,5.07,0,7.6c0,0.37-0.11,0.6-0.45,0.68c-0.22,0.05-0.43,0.14-0.42,0.45c0.02,0.34,0.28,0.39,0.5,0.4
			c1.58,0.01,3.15,0.01,4.73,0c0.24,0,0.52-0.06,0.54-0.42C33.7,29.67,33.45,29.6,33.21,29.57z M68.41,29.62
			c-0.09-0.04-0.19-0.06-0.29-0.08c-0.38-0.06-0.52-0.29-0.52-0.72c0.02-1.43,0.01-2.85,0.01-4.28c0-1.47,0-2.95,0-4.42
			c0-0.2,0.02-0.37-0.25-0.37c-1.33,0.01-2.67,0-4,0.01c-0.22,0-0.45,0.06-0.47,0.37c-0.03,0.28,0.16,0.41,0.36,0.45
			c0.42,0.08,0.51,0.36,0.51,0.78c-0.01,2.41-0.01,4.82,0,7.23c0,0.52-0.02,0.95-0.6,1.04c-0.16,0.02-0.27,0.17-0.27,0.38
			c0,0.24,0.14,0.33,0.32,0.38c0.13,0.03,0.25,0.05,0.38,0.05c1.44,0,2.87,0,4.3,0c0.17,0,0.34-0.03,0.51-0.08
			c0.16-0.05,0.28-0.17,0.27-0.38C68.66,29.78,68.55,29.68,68.41,29.62z M45.14,20.19c-0.01-0.36-0.28-0.42-0.53-0.42
			c-1.59-0.01-3.19-0.01-4.78,0c-0.22,0-0.44,0.07-0.47,0.38c-0.02,0.28,0.17,0.4,0.37,0.44c0.42,0.08,0.5,0.36,0.5,0.79
			c-0.01,2.39-0.01,4.79,0,7.18c0,0.53,0,0.99-0.61,1.08c-0.16,0.02-0.27,0.18-0.26,0.38c0,0.21,0.13,0.31,0.29,0.35
			c0.15,0.04,0.31,0.06,0.47,0.06c0.59,0.01,1.18,0,1.77,0c0.55,0,1.09,0,1.64,0c0.63-0.01,0.56,0.09,0.56-0.59
			c0-2.81,0.01-5.61,0-8.42c0-0.47,0.12-0.76,0.59-0.8C44.89,20.6,45.15,20.53,45.14,20.19z M30.67,13.07
			c-0.18,0.03-0.3,0.18-0.29,0.41c0.01,0.24,0.17,0.32,0.34,0.36c0.14,0.03,0.28,0.04,0.43,0.04c1.39,0,2.78,0,4.17,0
			c0.1,0,0.2,0.01,0.3-0.01c0.24-0.05,0.53-0.08,0.54-0.43c0.01-0.32-0.25-0.4-0.48-0.43c-0.47-0.06-0.6-0.36-0.6-0.85
			c0.02-1.39,0.01-2.79,0.01-4.18c0-1.46,0-2.91,0-4.37c0-0.17,0.08-0.4-0.21-0.4c-1.35,0.01-2.7,0-4.04,0.01
			c-0.21,0-0.41,0.07-0.44,0.35c-0.03,0.28,0.13,0.42,0.35,0.46c0.44,0.08,0.53,0.37,0.53,0.81c-0.01,2.41-0.01,4.82,0,7.22
			C31.27,12.57,31.24,12.99,30.67,13.07z M73.56,28.66c-0.06,0.05-0.11,0.1-0.16,0.16c-0.08,0.08-0.16,0.14-0.27,0.09
			c-0.12-0.05-0.11-0.17-0.11-0.28c0-0.47,0-0.95,0-1.43c0-0.59-0.23-1.03-0.68-1.35c-0.33-0.23-0.69-0.39-1.07-0.48
			c-0.26-0.06-0.52-0.11-0.87-0.19c0.48-0.18,0.87-0.29,1.25-0.47c0.96-0.45,1.44-1.28,1.41-2.37c-0.03-1.04-0.64-1.83-1.74-2.27
			c-0.84-0.33-1.72-0.33-2.59-0.31c-0.15,0-0.43-0.16-0.43,0.2c0,0.28-0.15,0.62,0.28,0.76c0.54,0.18,0.67,0.43,0.68,1.06
			c0.01,0.68,0.01,1.36,0,2.04c-0.01,0.61-0.16,0.85-0.68,0.98c-0.24,0.06-0.31,0.19-0.28,0.42c0.02,0.21-0.09,0.45,0.25,0.55
			c0.53,0.15,0.7,0.46,0.71,1.08c0,0.54-0.01,1.08,0,1.62c0.02,0.94,0.46,1.63,1.26,1.94c0.67,0.26,1.35,0.26,2.04,0.11
			c0.71-0.16,1.26-0.58,1.66-1.24c0.13-0.21,0.18-0.44-0.03-0.64C73.98,28.47,73.77,28.48,73.56,28.66z M54.64,29.76
			c-0.66-0.25-0.68-0.83-0.68-1.42c-0.01-2.22,0-4.44-0.01-6.65c0-0.57,0.11-1.02,0.66-1.24c0.32-0.13,0.16-0.47,0.15-0.71
			c0-0.29-0.23-0.16-0.37-0.15c-2.62,0.14-4.53,2.48-4.53,5.52c0,3.04,1.8,5.22,4.56,5.5c0.12,0.01,0.34,0.13,0.33-0.13
			C54.76,30.24,54.94,29.88,54.64,29.76z M55.82,19.58c-0.11-0.01-0.34-0.16-0.34,0.11c0,0.25-0.18,0.61,0.15,0.75
			c0.54,0.23,0.67,0.67,0.67,1.24c-0.01,2.2,0,4.41,0,6.61c0,0.16-0.02,0.32-0.03,0.47c-0.04,0.46-0.21,0.8-0.63,0.98
			c-0.34,0.14-0.14,0.49-0.15,0.74c-0.01,0.26,0.22,0.13,0.33,0.12c2.77-0.29,4.57-2.45,4.57-5.49
			C60.4,22.05,58.5,19.75,55.82,19.58z M36.14,4.13c0.51,0.13,0.65,0.42,0.66,1.01c0.01,0.81-0.01,1.61,0,2.42
			c0.01,0.66-0.12,1.18-0.8,1.36c-0.33,0.09-0.11,0.43-0.16,0.65c-0.04,0.17,0.07,0.22,0.21,0.21c1-0.02,2.01-0.06,2.94-0.56
			c1.09-0.58,1.63-1.54,1.6-2.88c-0.03-1.29-0.66-2.11-1.67-2.64c-0.73-0.38-1.52-0.44-2.36-0.49c-0.06,0-0.18-0.02-0.29,0.01
			c-0.15,0.04-0.42-0.16-0.43,0.19C35.83,3.67,35.68,4.02,36.14,4.13z M21.39,13.66c-1.02-0.46-2.06-0.77-3.1-0.81
			c-1.76-0.01-3.27,0.85-4.15,2.3c-0.15,0.24-0.19,0.42,0.02,0.65c0.27,0.3,0.51,0.64,0.75,0.98c0.14,0.2,0.24,0.2,0.42,0.06
			c0.46-0.35,0.94-0.67,1.39-1.03c0.36-0.29,0.65-0.82,1.03-0.88c0.37-0.06,0.8,0.34,1.22,0.5c1.03,0.39,2.15-0.19,2.59-1.3
			C21.66,13.87,21.61,13.76,21.39,13.66z M18.09,15.3c-0.11-0.09-0.19-0.09-0.3,0.02c-0.7,0.72-1.51,1.25-2.36,1.71
			c-0.21,0.11-0.19,0.22-0.06,0.39c0.25,0.33,0.57,0.55,0.94,0.63c1.44,0.3,2.8,0.06,4.03-0.84c0.65-0.47,1.02-1.17,1.07-2.16
			C20.29,16.02,19.21,16.14,18.09,15.3z M42.97,13.87c0.8,0.01,1.61,0.01,2.41,0c0.22,0,0.46-0.05,0.5-0.35
			c0.04-0.3-0.19-0.39-0.39-0.49c-0.73-0.33-0.81-0.54-0.56-1.38c0.45-1.5,0.9-3,1.36-4.5c0.06-0.18,0.11-0.36,0.05-0.55
			c-0.12-0.44-0.24-0.87-0.37-1.32c-0.15,0.15-0.16,0.35-0.22,0.53c-0.59,1.92-1.17,3.84-1.74,5.76c-0.2,0.68-0.53,1.22-1.19,1.45
			c-0.21,0.07-0.49,0.14-0.44,0.48C42.44,13.82,42.72,13.87,42.97,13.87z M79.04,29.57c-0.65-0.29-0.76-0.55-0.53-1.29
			c0.39-1.31,0.73-2.64,1.21-3.91c0.35-0.92,0.16-1.71-0.17-2.56c-0.05,0.16-0.1,0.29-0.14,0.42c-0.6,1.96-1.2,3.93-1.79,5.89
			c-0.21,0.71-0.56,1.24-1.24,1.45c-0.07,0.02-0.13,0.06-0.2,0.1c-0.12,0.07-0.22,0.17-0.2,0.33c0.01,0.16,0.11,0.26,0.23,0.31
			c0.13,0.05,0.28,0.1,0.42,0.1c0.76,0.01,1.52,0.01,2.28,0c0.24,0,0.53-0.02,0.57-0.37C79.52,29.74,79.26,29.67,79.04,29.57z
			 M57.11,11.89c-0.34-0.46-0.58-0.97-0.75-1.53c-0.09-0.3-0.26-0.45-0.55-0.39c-0.28,0.06-0.41,0.27-0.41,0.57
			c0,0.46,0,0.92,0,1.38h0c0,0.49-0.01,0.98,0,1.47c0,0.23,0.06,0.45,0.27,0.55c0.22,0.11,0.43,0.05,0.59-0.14
			c0.26-0.32,0.56-0.33,0.9-0.18c0.47,0.2,0.94,0.39,1.44,0.44c0.13,0.01,0.4,0.17,0.39-0.16c-0.01-0.26,0.21-0.65-0.25-0.77
			C58.06,12.95,57.55,12.47,57.11,11.89z M68.84,12.35c-0.53-0.54-0.89-1.19-1.12-1.94c-0.09-0.3-0.24-0.51-0.56-0.45
			c-0.34,0.06-0.42,0.32-0.42,0.66c0.01,0.44,0,0.89,0,1.33c0,0.46,0,0.92,0,1.38c0,0.27,0.04,0.52,0.29,0.63
			c0.23,0.1,0.42,0.01,0.58-0.18c0.24-0.28,0.51-0.31,0.82-0.18c0.47,0.2,0.94,0.4,1.44,0.46c0.15,0.02,0.43,0.18,0.45-0.14
			c0.02-0.27,0.21-0.68-0.28-0.79C69.58,13.01,69.2,12.71,68.84,12.35z M60.38,3.95c1.15,0.34,1.89,1.15,2.23,2.4
			c0.09,0.33,0.29,0.47,0.58,0.44c0.32-0.04,0.46-0.27,0.46-0.63c-0.01-0.41,0-0.82,0-1.24c0-0.41,0.01-0.82,0-1.24
			c0-0.24-0.03-0.49-0.27-0.6c-0.26-0.12-0.45,0.01-0.6,0.23c-0.19,0.29-0.42,0.28-0.69,0.17c-0.5-0.21-1.01-0.38-1.54-0.43
			c-0.13-0.01-0.4-0.18-0.4,0.15C60.15,3.46,59.95,3.83,60.38,3.95z M47.86,26.76c-0.19-0.07-0.38-0.06-0.52,0.11
			c-0.08,0.1-0.15,0.24-0.19,0.37c-0.4,1.15-0.97,2.07-2.19,2.29c-0.35,0.06-0.13,0.45-0.17,0.69c-0.04,0.25,0.14,0.22,0.28,0.22
			c0.44,0,0.89,0,1.33,0c0.47,0,0.95-0.01,1.42,0c0.18,0,0.25-0.06,0.25-0.27c-0.01-1,0-2,0-2.99
			C48.08,26.98,48.03,26.82,47.86,26.76z M71.9,4.01c0.31,0.05,0.59,0.24,0.85,0.44c0.6,0.48,1.01,1.11,1.21,1.9
			c0.08,0.33,0.29,0.47,0.58,0.43c0.3-0.04,0.44-0.24,0.43-0.59c-0.01-0.43,0-0.85,0-1.28c0-0.44,0-0.89,0-1.33
			c0-0.22-0.05-0.41-0.26-0.5C74.49,3,74.29,3.06,74.17,3.26c-0.23,0.36-0.5,0.34-0.83,0.2c-0.5-0.21-1.01-0.35-1.54-0.42
			c-0.24-0.03-0.32,0.04-0.33,0.32C71.46,3.72,71.52,3.95,71.9,4.01z M36.57,19.76c-0.46,0.01-0.92,0-1.38,0c-0.49,0-0.98,0-1.46,0
			c-0.18,0-0.38-0.02-0.33,0.27c0.04,0.24-0.18,0.61,0.25,0.67c1.14,0.15,1.94,0.78,2.37,1.98c0.09,0.25,0.29,0.33,0.53,0.28
			c0.24-0.05,0.32-0.23,0.32-0.48c0-0.81-0.01-1.62,0-2.43C36.88,19.79,36.77,19.75,36.57,19.76z M35.02,22.86
			c-0.26-0.04-0.46,0.08-0.53,0.36c-0.14,0.6-0.45,1.01-0.97,1.24c-0.31,0.13-0.15,0.43-0.17,0.66c-0.02,0.14-0.06,0.31,0.15,0.38
			c0.54,0.17,0.81,0.61,0.97,1.17c0.09,0.33,0.28,0.51,0.61,0.45c0.33-0.07,0.31-0.37,0.32-0.63c0.01-0.49,0-0.98,0-1.47
			c0-0.54,0-1.08,0-1.61C35.39,23.11,35.3,22.9,35.02,22.86z M17.03,8.2C17.32,7.3,17.45,6.32,18,5.48
			c0.14,0.28,0.04,0.47-0.03,0.65c-0.22,0.62-0.45,1.23-0.66,1.85c-0.05,0.14-0.19,0.33-0.02,0.42c0.19,0.11,0.25-0.15,0.33-0.27
			C17.8,7.87,17.9,7.55,18,7.24c0.15-0.48,0.34-0.94,0.6-1.36c0.07-0.12,0.14-0.32,0.33-0.18c0.15,0.11,0.13,0.29,0.04,0.42
			c-0.47,0.71-0.58,1.62-1.12,2.28c-0.07,0.09-0.2,0.18-0.13,0.32c0.08,0.15,0.22,0.18,0.38,0.12c0.52-0.71,1.03-1.42,1.56-2.13
			c0.16-0.21,0.38-0.57,0.6-0.36c0.25,0.24-0.11,0.48-0.25,0.68c-0.51,0.74-1.11,1.39-1.84,1.88c0,0.1,0.03,0.16,0.12,0.12
			c0.84-0.36,1.69-0.71,2.53-1.07c0.25-0.11,0.29-0.32,0.09-0.51c-0.45-0.44-0.36-0.91-0.1-1.41c0.07-0.14,0.24-0.31,0.02-0.44
			c-0.19-0.12-0.27,0.07-0.37,0.21c-0.08,0.12-0.14,0.28-0.34,0.17c-0.43-0.26-0.75-1.15-0.57-1.65c0.06-0.16,0.14-0.33,0-0.48
			c-0.14-0.16-0.3-0.05-0.43,0.03c-0.93,0.52-1.65,1.24-1.99,2.37c-0.12,0.42-0.26,0.84-0.42,1.24C16.58,7.88,16.63,8.11,17.03,8.2z
			 M13.5,9.91c0.07-0.12-0.01-0.2-0.09-0.27c-0.53-0.44-0.97-0.98-1.44-1.49c-0.07-0.08-0.14-0.16-0.27-0.18
			c-0.06,0-0.13,0.02-0.15,0.11c-0.03,0.15,0.05,0.24,0.13,0.33c0.48,0.55,1.03,1.01,1.57,1.47C13.33,9.93,13.41,10.07,13.5,9.91z
			 M13.7,9.44c0.04-0.04,0.06-0.11,0.09-0.17c-0.04-0.05-0.07-0.1-0.1-0.15c-0.28-0.38-0.55-0.77-0.83-1.15
			c-0.07-0.09-0.14-0.25-0.27-0.14c-0.1,0.09-0.07,0.23-0.01,0.35c0.25,0.47,0.59,0.86,0.95,1.22C13.56,9.44,13.62,9.52,13.7,9.44z
			 M8.46,3.82c0.29-0.37,0.57-0.42,0.98-0.3c0.75,0.24,1.5,0.35,2.08-0.47c0.18-0.25,0.36-0.15,0.5,0.12
			c0.21,0.42,0.26,0.9,0.42,1.34c0.18,0.49,0.13,0.58-0.33,0.66c-0.35,0.06-0.68,0.12-0.84,0.54c-0.05,0.14-0.15,0.16-0.28,0.07
			c-0.32-0.23-0.63-0.08-0.94,0.07c-0.1,0.05-0.23,0.12-0.21,0.26c0.02,0.12,0.14,0.14,0.24,0.16c0.41,0.1,0.79,0.27,1.17,0.45
			c0.36,0.17,0.73,0.18,1.08-0.03c0.25-0.15,0.26-0.33-0.01-0.47c-0.17-0.09-0.35-0.13-0.53-0.2c-0.1-0.04-0.25-0.05-0.26-0.21
			c-0.01-0.17,0.12-0.25,0.24-0.3c0.41-0.18,0.83-0.22,1.18,0.1c0.35,0.32,0.71,0.64,0.99,1.06c0.7,1.04,0.73,1.57,0.11,2.68
			C13.89,9.68,13.7,10,13.68,10.4c-0.02,0.3,0.04,0.48,0.37,0.47c1.36-0.03,2.62-0.47,3.85-1.04c0.22-0.1,0.23-0.25,0.06-0.43
			c-0.51-0.54-1.06-1-1.77-1.2c-0.79-0.22-1.41-0.69-1.53-1.69c-0.02-0.15-0.08-0.3-0.15-0.44c-0.27-0.5-0.27-0.52,0.26-0.68
			c0.63-0.19,1.22-0.47,1.67-1.01c0.1-0.12,0.19-0.24,0.12-0.42c-0.09-0.2-0.24-0.14-0.37-0.09c-0.31,0.11-0.63,0.21-0.97,0.2
			c-0.35,0-0.64,0.14-0.84,0.48c-0.02,0.09-0.07,0.24-0.04,0.26c0.27,0.21,0.1,0.39-0.04,0.53c-0.21,0.22-0.51,0.34-0.75,0.2
			c-0.25-0.13-0.07-0.37,0.09-0.47c0.23-0.16,0.48-0.28,0.65-0.53c0-0.35-0.28-0.45-0.48-0.62C13.4,3.59,13,3.29,12.62,2.96
			c-0.08-0.06-0.17-0.16-0.12-0.28c0.04-0.12,0.17-0.11,0.27-0.11c0.07,0,0.15-0.01,0.21,0.01c0.91,0.32,1.47-0.2,1.92-0.98
			c0.09-0.16,0.19-0.32,0.35-0.4c0.15-0.08,0.27-0.05,0.25,0.16c-0.02,0.25-0.06,0.49,0.24,0.56c0.3,0.07,0.54-0.03,0.7-0.33
			c0.14-0.26,0.28-0.52,0.41-0.78c0.25-0.5,0.24-0.56-0.21-0.83h-0.34c-0.23,0.19-0.46,0.37-0.54,0.71
			c-0.02,0.09-0.08,0.18-0.19,0.15c-0.47-0.13-0.7,0.21-0.9,0.56c-0.43,0.78-1.02,1.06-1.83,0.79c-0.2-0.07-0.43-0.08-0.55,0.21
			c-0.12,0.29-0.26,0.27-0.38,0c-0.13-0.29-0.35-0.4-0.62-0.45c-0.35-0.06-0.71-0.13-1.06-0.2c-0.26-0.05-0.31-0.27-0.29-0.5
			c0.03-0.3,0.23-0.12,0.37-0.13c0.06,0,0.11,0.04,0.17,0.04c0.22,0.02,0.4-0.07,0.48-0.31c0.09-0.25-0.02-0.42-0.22-0.54
			C10.35,0.12,9.95,0.09,9.55,0.1c-0.28,0-0.31,0.28-0.36,0.51C9.14,0.83,9.25,0.95,9.42,0.98c0.22,0.03,0.25,0.19,0.22,0.37
			C9.56,1.83,9.8,2.01,10.17,2.08c0.34,0.06,0.68,0.11,1.02,0.19c0.27,0.06,0.34,0.24,0.16,0.48c-0.29,0.4-0.61,0.74-1.15,0.69
			C9.89,3.4,9.61,3.29,9.33,3.2C9.08,3.12,8.86,3.06,8.65,3.29c-0.15,0.16-0.22,0.05-0.33-0.1C8.05,2.82,7.63,2.84,7.37,3.21
			C7.25,3.38,7.11,3.46,6.92,3.37C6.76,3.3,6.55,3.47,6.49,3.63c-0.06,0.17-0.1,0.28,0.06,0.4C7.07,4.42,8.03,4.36,8.46,3.82z
			 M16.34,7.9c0.09,0,0.11-0.07,0.12-0.16c0.05-0.63-0.04-1.24-0.24-1.84c-0.19,0.63,0.03,1.27-0.05,1.91
			C16.16,7.88,16.27,7.9,16.34,7.9z M9.24,9.1L9.24,9.1c0.1,0.02,0.2,0.04,0.3,0.06c1.12,0.28,2.15,0.86,3.27,1.14
			c0.17,0.04,0.34,0.1,0.62,0c-0.6-0.35-1.18-0.57-1.64-0.97c-0.9-0.78-1.9-0.88-2.97-0.8C8.6,8.56,8.39,8.56,8.17,8.58
			C7.72,8.61,7.35,8.46,7.1,8.03C6.9,7.69,6.73,7.8,6.59,8.07C6.52,8.22,6.48,8.4,6.46,8.57c-0.1,0.91,0.35,1.56,0.85,2.2
			c0.1,0.13,0.24,0.15,0.39,0.09c1.21-0.47,2.47-0.52,3.73-0.48c0.19,0.11,0.4,0.08,0.61,0.1c0.11,0.09,0.24,0.08,0.36,0.09
			c0.11,0.11,0.23,0.12,0.42,0.03c-0.14-0.05-0.24-0.08-0.34-0.11h0c-0.11-0.03-0.22-0.07-0.33-0.1c-0.11-0.03-0.23-0.06-0.34-0.1
			c-0.91-0.36-1.86-0.61-2.74-1.08C8.99,9.17,8.89,9.1,8.93,9.06C9.02,8.97,9.15,9.01,9.24,9.1z M36.83,16.47
			c1.65,0.1,3.33,0.14,4.87,0.98c0.13,0.07,0.31,0.06,0.46,0.04c0.32-0.04,0.63,0.02,0.93,0.11c0.8,0.24,1.61,0.45,2.41,0.71
			c1.52,0.49,3.04,0.61,4.59,0.23c1.82-0.44,3.59-1.11,5.37-1.69c2.51-0.81,4.99-0.89,7.51-0.14c1.68,0.5,3.37,0.89,5.12,0.95
			c1.78,0.06,3.46-0.46,5.13-1.07c1.36-0.5,2.7-1.08,4.12-1.33c2.12-0.37,4.08,0,5.81,1.5c0.68,0.59,1.14,1.32,1.35,2.25
			c0.14,0.61,0.27,1.23,0.52,1.8c0.05,0.18,0.1,0.37,0.31,0.45l-0.23-0.55c-0.13-0.6-0.29-1.19-0.4-1.8
			c-0.18-0.97-0.63-1.75-1.32-2.38c-1.67-1.52-3.62-1.89-5.7-1.67c-1.47,0.15-2.84,0.73-4.23,1.24c-1.87,0.69-3.75,1.31-5.75,1.17
			c-1.52-0.11-3.01-0.42-4.48-0.88c-2.68-0.84-5.34-0.85-8.01,0.07c-1.28,0.45-2.59,0.83-3.88,1.24c-1.4,0.45-2.82,0.79-4.28,0.52
			c-1.4-0.26-2.75-0.78-4.12-1.15c-0.1-0.03-0.17-0.09-0.22-0.2c-0.16-0.38-0.28-0.67-0.75-0.85c-0.55-0.21-1.12-0.56-1.61-0.98
			c-0.47-0.4-0.93-0.82-1.18-1.5c0.81,0.26,1.29,0.17,1.65-0.25c0.36-0.42,0.25-0.91-0.26-1.04c-0.45-0.11-0.92-0.09-1.27,0.24
			c-0.35,0.33-0.43,0.11-0.54-0.2c-0.11-0.3-0.01-0.53,0.19-0.72c0.33-0.3,0.67-0.59,1.01-0.88c0.18-0.1,0.33-0.22,0.47-0.51
			c-0.27,0.11-0.43,0.25-0.57,0.41c-0.4,0.24-0.8,0.51-1.14,0.85c-0.2,0.2-0.4,0.46-0.28,0.75c0.25,0.62,0.35,1.29,0.64,1.89
			c0.31,0.64,0.83,1.08,1.37,1.48c0.38,0.27,0.67,0.63,1.06,1.09c-0.24-0.05-0.34-0.06-0.43-0.09c-1.26-0.31-2.54-0.52-3.83-0.61
			c-3.32-0.22-6.59,0.15-9.79,1.15c-0.36,0.11-0.71,0.24-1.08,0.04c-0.19-0.11-0.39-0.01-0.52,0.13c-0.4,0.4-0.76,0.21-1.11-0.08
			c-0.26-0.22-0.52-0.46-0.74-0.72c-0.58-0.67-1.3-1.08-2.07-1.42c-0.1-0.04-0.2-0.15-0.28,0.04c-0.24,0.51-0.1,0.95,0.39,1.14
			c0.75,0.28,1.47,0.61,2.05,1.25c0.32,0.35,0.74,0.54,1.18,0.64c0.15,0.04,0.33,0.01,0.3,0.29c-0.03,0.24-0.17,0.32-0.37,0.28
			c-0.28-0.05-0.56-0.15-0.84-0.18c-1.91-0.19-3.57,0.36-4.86,2.01c-0.13,0.17-0.29,0.31-0.42,0.47c-0.43,0.54-0.93,0.61-1.51,0.32
			c-0.19-0.1-0.41-0.15-0.62-0.2c-0.9-0.18-1.79-0.24-2.61,0.37c-0.91,0.68-1.44,1.8-2.36,2.47c-0.11,0.08-0.16,0.24-0.09,0.38
			c0.07,0.14,0.21,0.16,0.34,0.13c0.11-0.03,0.22-0.07,0.33-0.11c0.47-0.17,0.94-0.28,1.44-0.16c0.42,0.1,0.76-0.1,1.04-0.42
			c0.27-0.3,0.59-0.5,0.95-0.63c0.34-0.13,0.65-0.14,0.81,0.32c0.19,0.53,0.16,0.67-0.28,0.97c-0.12,0.08-0.25,0.15-0.38,0.23
			c-0.73,0.44-0.92,0.85-0.8,1.74c0.2,1.43,0.59,2.81,0.93,4.19c0.05,0.21,0.17,0.34,0.36,0.34c0.18,0,0.33-0.1,0.39-0.31
			c0.04-0.15,0.07-0.31,0.09-0.46c0.14-0.98,0.58-1.74,1.36-2.25c0.41-0.26,0.81-0.53,1.21-0.83c0.49-0.37,0.5-0.5,0.17-1.02
			c-0.51-0.8-0.42-1.54,0.24-2.2c0.28-0.27,0.51-0.23,0.72,0.09c0.28,0.41,0.4,0.87,0.36,1.38c-0.05,0.64-0.04,0.68,0.53,0.66
			c0.6-0.02,1.03,0.26,1.33,0.78c0.15,0.26,0.3,0.42,0.58,0.24c0.28-0.18,0.49-0.53,0.34-0.79c-0.42-0.73-0.28-1.46-0.16-2.21
			c0.04-0.22,0.01-0.45-0.2-0.53c-0.54-0.22-0.86-0.72-1.24-1.14c-0.32-0.35-0.67-0.6-1.15-0.51c-0.48,0.09-0.97,0.05-1.46,0.08
			c-0.37,0.02-0.69-0.1-1-0.38c0.45-0.38,0.84-0.79,1.19-1.25c0.34-0.45,0.78-0.74,1.27-0.95c1.19-0.49,2.38-0.77,3.65-0.27
			c0.54,0.21,1.02,0.09,1.48-0.42c0.29-0.32,0.49-0.78,0.95-0.92C30.42,16.8,33.59,16.28,36.83,16.47z M39.78,12.61
			c0.03-0.01,0.05-0.03,0.08-0.03c0.27-0.05,0.54-0.11,0.78,0.09c0.09,0.08,0.08,0.19,0.03,0.3c-0.17,0.31-0.43,0.44-0.73,0.46
			c-0.28-0.01-0.61-0.06-0.65-0.34C39.23,12.82,39.56,12.71,39.78,12.61z M17.5,24.67c-0.06,0.38-0.21,0.72-0.44,1.01
			c-0.15,0.31-0.33,0.6-0.68,0.71c0.19-0.28,0.39-0.55,0.58-0.83c0.31-0.62,0.33-1.33,0.52-1.99c0.15-0.49,0.26-1,0.53-1.44
			c0.09-0.15,0.17-0.33,0.34-0.39c0.03,0.06,0.06,0.09,0.05,0.1C17.87,22.7,17.65,23.67,17.5,24.67z M13.05,28.86
			c-0.11,0.02-0.17,0.03-0.21-0.13c-0.15-0.65-0.64-0.93-1.22-0.72c-0.2,0.08-0.38,0.2-0.39,0.45c-0.02,0.23,0.12,0.37,0.28,0.5
			c0.23,0.19,0.51,0.15,0.86,0.22c-0.91,0.97-3.52,0.79-3.78,0.79c-0.01,0-0.02,0-0.02,0.01C8.47,29.98,8.38,30,8.4,30.09
			c0.03,0.12,0.13,0.06,0.19-0.02c0,0,0,0,0,0c0.54-0.02,2.59,0.01,3.06-0.08c0.2-0.04,0.43-0.09,0.55-0.25
			c0.39-0.56,0.96-0.67,1.52-0.83c0.05-0.02,0.1-0.06,0.15-0.09c0.14-0.04,0.28-0.07,0.35-0.28c-0.19,0.02-0.33,0.08-0.45,0.18
			C13.53,28.76,13.29,28.81,13.05,28.86z M12.22,28.89c-0.26-0.06-0.6-0.03-0.64-0.41c-0.02-0.2,0.24-0.23,0.42-0.21
			c0.22,0.03,0.48,0.04,0.5,0.39C12.52,28.87,12.4,28.92,12.22,28.89z M18.89,8.96c-0.19,0.08-0.42,0.14-0.5,0.44
			c0.42,0.03,0.77-0.28,1.16-0.28c0.09-0.11,0.21-0.09,0.33-0.1c0,0,0,0,0,0c0.22-0.13,0.46-0.17,0.7-0.19
			c0.59-0.07,1.15-0.25,1.67-0.57c0.07-0.05,0.15-0.08,0.23-0.11c0.12-0.05,0.28-0.11,0.33,0.07c0.05,0.15-0.11,0.2-0.21,0.25
			c-0.61,0.29-1.24,0.47-1.9,0.57c-0.24,0.04-0.48,0.06-0.72,0.09c-0.14,0.03-0.29,0.07-0.43,0.1c-0.01,0.01-0.02,0.02-0.03,0.04
			c0,0.01,0,0.04,0,0.04c0.16,0.13,0.36,0.08,0.53,0.09c1.16,0.01,2.32,0.05,3.45,0.41c0.74,0.23,1.38-0.04,1.92-0.64
			c0.54-0.6,0.93-1.32,1.3-2.05c0.12-0.25,0.32-0.47,0.32-0.76c0-0.8,0.24-1.48,0.7-2.08c0.1-0.13,0.27-0.34,0.11-0.5
			c-0.16-0.16-0.39-0.08-0.54,0.09c-0.61,0.71-1.39,1.08-2.22,1.26c-0.83,0.18-1.48,0.64-2.07,1.26C22.73,6.68,22.41,7,22.1,7.33
			c-0.46,0.47-0.98,0.81-1.58,1.02C19.97,8.54,19.43,8.74,18.89,8.96z"/>
	</g>
</g>
</svg>
