<?xml version="1.0" encoding="utf-8"?>
<!-- Generator: Adobe Illustrator 20.1.0, SVG Export Plug-In . SVG Version: 6.00 Build 0)  -->
<svg version="1.1" id="Layer_1" xmlns="http://www.w3.org/2000/svg" xmlns:xlink="http://www.w3.org/1999/xlink" x="0px" y="0px"
	 viewBox="0 0 367 181" style="enable-background:new 0 0 367 181;" xml:space="preserve">
<style type="text/css">
	.st0{fill:#1B5EAC;}
	.st1{fill:#FFFFFF;}
</style>
<g>
	<g>
		<rect x="186" class="st0" width="87.8" height="87.8"/>
		<path class="st1" d="M208.2,14.4v34.5c0,18.3,9.1,25.1,21.1,25.1c12.7,0,22.2-7.3,22.2-25.3V14.4h-7.7v34.8
			c0,12.9-5.7,18.6-14.3,18.6c-7.8,0-13.7-5.6-13.7-18.6V14.4H208.2L208.2,14.4z"/>
		<rect x="279.2" class="st0" width="87.8" height="87.8"/>
		<path class="st1" d="M308.2,73.2V48.1c0-9.7-0.1-16.8-0.5-24.2l0.3-0.1c2.9,6.3,6.8,13,10.9,19.6l18.6,29.8h7.7V14.6h-7.1v24.6
			c0,9.1,0.2,16.2,0.9,24l-0.4,0.1c-2.7-6.1-6.2-12.2-10.4-19.1l-18.7-29.7h-8.4v58.6h7.1V73.2z"/>
		<rect x="279.2" y="93.2" class="st0" width="87.8" height="87.8"/>
		<path class="st1" d="M335.5,125.1c0-7.8-5.5-11.6-13.8-11.6c-3.3,0-5.8,0.3-7.1,0.6v22.8c1.6,0.4,3.8,0.6,6.3,0.6
			C330,137.6,335.5,133,335.5,125.1 M343.1,124.3c0,5.3-1.6,9.5-4.6,12.5c-4,4.2-10.5,6.4-17.9,6.4c-2.3,0-4.4-0.1-6.1-0.5v23.6
			h-7.6v-57.9c3.7-0.7,8.4-1.2,14.5-1.2c7.5,0,13,1.7,16.4,4.9C341.2,114.8,343.1,119.1,343.1,124.3z"/>
		<rect x="185.9" y="93.3" class="st0" width="87.8" height="87.8"/>
		<path class="st1" d="M248,135.7c0.1-14-7.8-22.6-23.8-22.6c-3.9,0-6.9,0.3-8.9,0.8v46.4c1.9,0.3,4.7,0.3,7.7,0.3
			C239.2,160.7,248,151.6,248,135.7 M256,135.5c0,9.6-3,17.4-8.4,22.8c-5.6,5.5-14.6,8.4-26,8.4c-5.5,0-9.9-0.2-13.8-0.7v-57.7
			c4.7-0.7,10.2-1.2,16.2-1.2c10.9,0,18.6,2.4,23.8,7.2C252.9,119.1,256,126,256,135.5z"/>
	</g>
	<g>
		<rect class="st0" width="181.2" height="181.2"/>
		<path class="st1" d="M136.7,129.1c-4.1,1.1-8.6,1.5-12.6,2.9c6.8-5.9,6.5-14.9,11-21.9c1.5-2,2.7-4,4.3-5.9
			c-2.8,5.6-1.6,12.8-4.8,18.2c-1.2,2.1-3,4.2-4.9,5.9c0.6,0,1.2-0.6,1.7-0.9c5.2-5.2,12-6.6,17.6-10.8c2.2-1.8,4.3-4.1,5.3-6.7
			C153.3,118.5,144.7,126.5,136.7,129.1"/>
		<path class="st1" d="M155.4,94.4c-2.5,3.6-5.6,7-7.9,10.6c0.3-2.9,0.6-6.5-0.5-9.2c-2-5.9-3.7-11.9-4.2-18.4l0.1-2.5
			c1.5,6.6,8,11.2,7.6,18.6c0.1,1.8-0.4,3.3-0.7,4.9l0.1,0.1l0.3-0.3c1-3.6,1.4-7.5,2.9-10.9c2.1-4.9,4.8-9.9,3.7-15.8
			C159.9,78.5,158.9,87.8,155.4,94.4"/>
		<path class="st1" d="M151.4,56.8c4.3,5.8,5.2,15,2.1,21.7c-1.2,2.8-2,5.8-2.4,8.9c-0.2-0.5-0.3-1.3-0.5-1.9
			c-1.7-6.5-7.9-11.1-10.4-17.3c-0.8-2-1.5-4.1-1.9-6.3c2.7,5,9.4,7.6,11.2,13.1c0.7,1.4,0.7,3.1,1.2,4.6c0.1,0,0.2-0.1,0.2-0.2
			c-0.8-5.7-0.6-11.6,0.2-17.2c0-3-0.3-6-2-8.3C150.1,54.6,150.6,55.8,151.4,56.8"/>
		<path class="st1" d="M148.3,55.6c1.1,5.1-0.5,10,0.5,15.1l0,0c-2.8-5.4-8.6-8-12.7-12.3c-2.3-2.6-3.4-5.7-3.9-9.1
			c2.3,5.6,8.5,6.8,12.1,11.5c1.2,1.1,1.6,2.6,2.4,3.8l0.1-0.1c-2.1-4.4-2.8-9.3-4.2-14c-0.7-2-2.2-4-4.1-5.3
			C143.3,46.3,147.4,51.2,148.3,55.6"/>
		<path class="st1" d="M135.8,44c3.5,3.2,5.1,7.3,6.2,11.5l0.6,1.4c-5.1-3.7-9.8-8.7-13.1-13.9l-4-4.1C129,40.4,132.8,41.3,135.8,44
			"/>
		<path class="st1" d="M54.6,39.6c-3.6,3.1-6,7.1-8.6,10.7c-2.4,2.9-5.4,4.9-8.1,7.4c1.4-3,1.5-6.6,3.5-9.3
			C44.4,43.3,49.8,41.5,54.6,39.6"/>
		<path class="st1" d="M35.2,50.4c1.7-2.1,3.9-3.6,6.4-4.3c-4.8,3.3-4.5,9.2-6,14.1c-0.5,1.8-1.3,3.5-1.7,5.3l0.1,0.1
			c0.8-2.1,2.2-4.1,3.9-5.8c3.4-3.1,8.4-5.1,10.1-9.7c-0.1,6.4-5.5,11.5-10.6,15.1c-2.1,1.9-4.2,4-5.3,6.4c-0.1-1.6,0.2-3.3,0.1-5
			C31.7,61,31.2,54.6,35.2,50.4"/>
		<path class="st1" d="M25.5,69.7c-0.1-5.7,2.2-10.4,5.6-14.6c0.1,0,0.2-0.1,0.3-0.1c-3.7,5.6-0.6,12.6-0.8,19l-0.5,6.5
			c0.1,0,0.1,0.2,0.2,0.2c0.2-0.7,0.3-1.5,0.4-2.2c0.9-5.2,5.4-9,9.4-12.6c0.8-0.9,1.6-1.9,2-3c-0.3,2.6-1.1,5.2-2.2,7.7
			c-3.1,6-8.8,11-9.9,17.9C29.6,81.7,25.1,76.7,25.5,69.7"/>
		<path class="st1" d="M22.8,77.8c0.4-1.8,0.7-3.6,1.5-5.3c-1.5,7.5,3.6,13,5.3,19.5c0.7,2.4,0.9,5.1,1.9,7.4c0.1,0,0.2,0,0.2-0.1
			c-2.5-7,1.1-13.4,4.7-18.8c0.9-1.5,1.4-3.1,1.8-4.8c0.4,3.1-0.4,6.8-0.9,10c-0.9,4.2-2.2,8.1-3.3,12.1c-0.7,2.5-0.6,5.4-0.2,8
			l-0.4-0.3c-2.6-4.9-7.9-8.6-9.4-14C22.7,87.3,21.9,82.4,22.8,77.8"/>
		<path class="st1" d="M22.5,92.5c0.6,8,9.2,12.2,13.2,18.8c0.9,1.4,1.8,2.8,3,4c-0.2-0.8-1-1.6-1.3-2.4c-1.4-2.8-1.9-6.1-1.6-9.4
			c0.4-4.1,2.1-7.9,1.4-12.2c3.5,7.6,2.4,17,4.4,25.2c0.5,1.8,1.5,3.4,2.2,5.1c-7.2-4.9-17-9.6-20.2-18.5
			C22.4,99.9,22.2,96.1,22.5,92.5"/>
		<path class="st1" d="M26.8,110.9c4,9.1,14.1,9.8,20.8,15.4c1.2,1.1,2.5,2,3.9,2.7l0.1-0.1c-1.5-1.4-3.3-3-4.4-4.8
			c-3.9-5.5-2.6-13.2-5.5-19.1c2.7,3.2,5.1,6.5,6.7,10.2c2.4,5.9,3.3,12.7,8.9,17.1c-6-2-13.1-1.4-18.4-5.1
			C33.1,123.6,27.9,117.5,26.8,110.9"/>
		<path class="st1" d="M37.1,127.8c6.4,7.3,16.9,4.9,25.5,6.8c1.2,0.2,2.3,0.7,3.6,0.5c-1-0.7-2.4-0.6-3.5-1.2
			c-6.7-2.4-7.7-9.6-11.4-14.5c4.7,3.1,8.6,7.3,12.9,11.3c3.1,2.7,6.8,4,10.7,4.8c-0.9,0.3-2.2,0.2-3.2,0.5c-7,1.7-14.9,4.6-22.3,2
			C44.6,136.4,39.6,132.6,37.1,127.8"/>
		<path class="st1" d="M124.4,144.9c-7.2,2.7-14.8-0.1-20.5-4.4c-2.3-1.5-4.3-3.6-7.3-3.4c-1.1,0-2.1,0-3,0.3
			c5.5,2.6,10.6,6.1,15.3,10.6c-0.8,0.9-1.8,1.7-2.8,2.5c-4.5-4.9-9.5-9.5-15.1-12.2c-1.1,0.1-2.1,0.8-3.1,1.3
			c-4.5,2.9-9,6.6-12.4,11.1l-2.9-2.4c4.6-4.7,9.8-8.3,15.4-10.9c-5.5-1.7-9.1,2.9-13.3,5.2c-4.9,3.4-11.9,5-17.8,2.7
			c-3.2-1.2-6.2-3-8.5-5.8c4.6,3.2,11.5,3.5,16.8,1.4c7.1-3.1,14.4-7,22.9-5.1c1.3,0,2.6,1.4,3.9,0.2c6.3-1.6,13.5-0.5,19,2.4
			l5.6,2.2c5.2,1.9,12,1.4,16.4-1.8C130.8,141.6,127.7,143.7,124.4,144.9"/>
		<path class="st1" d="M132.2,137.4c-8.1,3.1-16.3-0.7-24.1-2l-1.5-0.2l0,0c3.7-0.8,7.3-2,10.3-4.6c4.4-4.2,8.3-8.5,13.1-11.8
			c-3.6,4.6-4,11.2-9.9,14.2c-1.5,1-3.3,1.1-4.9,1.9c2.2,0,4.2-0.7,6.3-0.9c8-1.3,17.1,0,22.7-6.8
			C142.1,131.7,136.9,135.7,132.2,137.4"/>
		<path class="st1" d="M147,114.5c-3.2,2.1-6.5,4.1-9.6,6.4v-0.3c4.7-7.9,2.4-18.7,5.3-27.3l1.1-2.9c-0.6,5.4,1.7,10,1.6,15.4
			c-0.2,3.3-1.2,6.2-2.9,8.8h0.3c2.3-3,4.1-6.3,6.8-9.2c4.2-4.1,8.5-8.2,9-13.8C160,100.9,154.8,109.2,147,114.5"/>
		<path class="st1" d="M136.5,85.2c-0.5,11.3-4.7,21.1-12.1,29.5l-0.2,0.4c-1.5-1.7-3.5-3.8-5.4-5.3c1.1-0.7,2-2.1,2.8-3.1
			c4.6-6.3,7.3-13.4,7.7-21.4l-0.2-0.7l0.4,0.3h6.9l0.4-0.2L136.5,85.2z M92.2,129.4l-0.5,0.3c0.2-2.5,0.2-5.1,0-7.6
			c1.2,0.4,2.5,0,3.8,0l3.7-0.7c1.8,0.4,3.1,3.3,5.2,1.5c0.7-0.8,1.9-0.8,2.4-1.9c1.2-0.4,1.5-1.6,2.3-2.4c0.8-2.3,3.4-2.6,4.9-4.2
			c1.1-1,2.6-1.9,3.3-3.2l0.1,0.6l5.1,4.9C113.9,124.5,103.8,128.9,92.2,129.4z M92.1,114c0.9,0.4,2.4-0.4,2.9,0.6
			c-0.3,0.6-0.7,1.1-0.5,1.7c0.4,0.9,0.9,2.1,2,2.2c0.3,0.4,0.7,0.5,1.1,0.6c-1.9,0.3-4,0.2-5.8,0.8c0.2-2,0-4,0-6l-0.4-0.5
			C91.7,113.5,91.9,113.8,92.1,114z M90.3,101.7c-0.5,0.1-1,0-1.4-0.2c-0.2,0-0.1-0.3-0.2-0.4c0.7,0,1-0.8,1.8-0.7
			c0.4-0.4,0.5-1,1.1-1.3c-0.2-0.6,0.6-0.2,0.7-0.6c0.2-0.2,0.5-0.4,0.8-0.2c0.5,0.7,1.5,0.4,2,1.2c0.2,0.1,0.3-0.2,0.3-0.3v-0.3
			c0.8-0.1,1.2,1,2,0.3c0.2-0.2,0.1-0.5,0-0.7c-0.1,0-0.2-0.1-0.2-0.2c0.6-0.3,0.9,0.8,1.6,0.5c0.6-0.5,0.9-1,1.7-1l0.2,0.2
			c0.1,1.4-1.1,2.3-2.2,3c-0.7,0.3-2,0.2-1.9,1.3c-0.8,0.7-1.5-0.4-2.5-0.1c-0.5-0.2,0-0.9-0.7-1C92.3,101.5,91.1,100.6,90.3,101.7z
			 M84.5,129.1c-9.7-1.3-18.2-5.5-25.7-12l5-5l0.1-0.3c6.9,6.6,15.2,10,24.6,10.6l0.7-0.2l-0.2,0.4v6.5l0.4,0.6
			C87.8,129.2,86,129.4,84.5,129.1z M50.5,106.2C47,99.7,45,92.7,44.6,85h6.7l0.7-0.2c-0.1,0.4-0.1,0.8-0.1,1.4v-0.1
			c-0.2,0.1,0.1,0.2,0.1,0.4c0.1,2.6,0.6,5,1.2,7.3l0.3,0.5c-0.5-0.5-0.7-1-1.1-1.5c-0.6,0.1-1.2,0.2-1.6,0.6
			c0.3,0.7-0.4,0.5-0.7,0.7c-0.1-0.2-0.3-0.4-0.5-0.5c-0.5,0-1,0.1-1.3,0.6c0.1,0.4-0.3,0.5-0.5,0.8c-0.1,1.1-0.5,2.5,0.3,3.4
			c0,0.8,0.4,1.5,1,2c0.2,0,0.4-0.1,0.5-0.2c0.7,0.5,1,1.7,2,1.4c0.3-0.1,0.2-0.4,0.3-0.7c0.5,0.5,0.7,1.5,1.7,1.4
			c0.2,0.2,0.4,0.7,0.8,0.7c1-0.3,0.7,1.2,1.4,1.6c0.6,0.4,0.9,1.2,1.7,0.8l0.3-0.4c0.3,0.2,0,0.7,0.3,0.9c0.4,0.8,1.2,1.3,2,1.5
			c0.7,0.8,1.4,1.7,2.2,2.3l-0.6,0.2l-4.8,5C54.7,112.3,52.2,109.4,50.5,106.2z M44.9,78c1.2-10,5.5-18.7,12.4-26.4l0.2,0.7
			c1.6,1.6,3.3,3.3,4.9,4.8c-1.4,0.9-2.1,2.5-3.2,3.7c-4.3,6.1-6.8,13-7.2,20.7l0.2,0.9c-2.4-0.2-5-0.2-7.5,0
			C44.8,80.9,44.6,79.4,44.9,78z M62.9,46.7c7.7-5.5,16.3-8.8,26-9.2l-0.3,0.6l0.1,5.8l0.2,0.6c-9.4,0.4-17.6,4-24.7,10.4l-0.1,0.3
			c-1.6-1.7-3.4-3.7-5.3-5.1h-0.2C60.1,49.2,61.4,47.7,62.9,46.7z M89,63.8c-1.3-0.3-2.4,0.3-3.6,0.4c-2.7,0.7-5.1,2.2-7.4,3.8
			c-0.1,0.2-0.2,0.4-0.4,0.5c-1.7-1.5-3.3-3.5-5.1-4.8c4.7-3.8,10-6.4,16.1-6.8l0.4-0.2C88.7,59,88.7,61.5,89,63.8z M87.1,71.6
			c-0.1-0.3,0.3-0.7-0.1-0.9c-1.1,0.5-0.7,1.7-1.4,2.5c-0.1,0.6-0.9,0.3-1.3,0.7c-0.3-0.5-0.9-0.4-1.3-0.2c-0.6,0-0.7-1.2-1.3-0.6
			c-0.2,0.2-0.1,0.6-0.5,0.5c-0.1-0.2-0.3-0.2-0.4-0.3c0-0.4,0.6-0.3,0.4-0.7c-0.4-0.8-1.4-0.7-2-1.2h-0.6c2.8-3,6.4-4.3,10.3-4.9
			c0,1.7-0.2,3.7,0.4,5.3C88.7,71,87.8,71.9,87.1,71.6z M80.4,91.2c0.4-0.4,0.8-1,1-1.6l0.8,0.4C81.4,90.1,81,90.9,80.4,91.2
			L80.4,91.2z M88.1,98.5c-0.3,0.6-0.1,1.4-0.2,2c-3.2-0.6-6.1-1.9-8.7-4c1.5-1.6,3.4-3.1,4.5-4.8c0.1,0.8,1.1,1.1,1.7,1.5
			c1.3,0.6,2.8,1.5,4.3,0.9c-0.1,0.1-0.2,0.2-0.3,0.3c0.4,0.4-0.3,0.8,0.2,1.2c0.1,0.3-0.3,0.3-0.3,0.5c0.2,0.4-0.1,1.2,0.6,1.4
			c0.2,0.2,0,0.6-0.3,0.6C89,98,88.4,98,88.1,98.5z M73.2,72.5c-0.7,0.4-1.2,1.1-1.6,1.7c-0.6,0.4-1.3,0.3-1.8,1
			c0,0.3,0.3,0.6,0,0.8c-0.6,0.5-1.7-0.1-2,0.9c-0.1,0.9-1.2,1.4-1.1,2.4c-0.6,0.4-0.5,1.1-0.4,1.7c0.3,0.4-0.1,1.1,0.4,1.4
			c-0.9-0.1-2.2-0.3-3,0.1c0.5-1.1,0.3-2.4,0.6-3.6c0.9-5,3.2-9.4,6.5-13.4c1.7,1.6,3.5,3.6,5.3,5C74.7,70.5,74.7,72.5,73.2,72.5z
			 M69.9,101l-0.2-1.5c-1.4-1.2-0.9-3.4-1.2-4.9c-1-0.8-0.2-2-0.9-2.9c0-1.4-2.2-1.9-1.5-3.4c-0.3-0.4-0.6-0.9-0.3-1.4
			c0.4-0.5,1.4,0,1.7-0.7l0.2-1.3c0.5-0.3,1.2,0.4,1.5-0.3c0.5-1.2-1.8-2.7,0.2-3.3c0.7-0.1,1.5-0.2,1.8,0.6c0.1,0.9,0.4,1.9,0,2.8
			c0.6,0.2,0.1,0.8,0.1,1.2c-0.4,0.2-0.7,0.6-1.2,0.4c-0.2-0.3-0.5-0.9-1-0.8c-0.4,0.5,0.1,1,0.1,1.6c-0.1,0.3,0,0.7-0.2,1
			c-0.2-0.1-0.3-0.2-0.6-0.2c-0.4,0.2-0.1,0.7,0,0.9c0.4,0.3,0.7,0.7,1.3,0.7l0.2-0.3c-0.1-0.8,0.3-1.4,0.3-2.1l0.7,0.4
			c0.6,3,2,5.7,3.7,8.3l0.9,0.9c-2.2,1.9-4.3,4.2-6.2,6.3l0,0c0-0.1-0.1-0.5-0.4-0.3C68.7,101.8,70.2,102.1,69.9,101z M85.3,109.6
			l1.2,0.5c-4.2-1-8.7-2.5-12.3-5.5c-0.6-0.4-1-1.2-1.8-1.2c1.7-1.4,3.4-3.2,4.8-4.9c0.6,1.2,2,1.8,3,2.6c1.8,0.8,3.7,2.4,5.9,2
			c-0.7,0.2-1.3,0.6-1.8,1.2c-0.3,0.7-0.2,1.6-1.1,1.9C83.2,107.4,84.4,108.6,85.3,109.6z M78.1,90.7c0,0.2,0.3,0.5,0.6,0.3
			c0.3-0.4-0.6-1,0-1.2c0.4,0.4,0.2,1.2,0.4,1.7c0.2,0.3,0.3,0.6,0.2,0.9c-0.7,0.8-1.6,1.5-2,2.4c-0.4-1.1-1.4-2-1.8-3.1
			c-0.7-1.3-1.1-2.7-1.7-3.9c0.6,0.7,2.1-0.1,2.1,1.3c0.1,0.1,0.2,0,0.4,0c0.2-0.2,0.2-0.2,0.5-0.1c0.1,0.2,0.7,0.4,0.2,0.6
			C77.1,90.1,77.6,90.6,78.1,90.7z M88.9,54.3c-1.3-0.3-2.5,0.2-3.8,0.3c-5.4,1.1-10.4,3.4-14.5,7.3l-0.2-0.5
			c-1.6-1.5-3.1-3.4-4.9-4.5c1.5-0.9,2.9-2.3,4.4-3.3c5.6-3.8,11.9-5.9,18.9-6.3C88.6,49.6,88.8,52,88.9,54.3z M61.5,82.4l-0.6-0.2
			l-6.6,0.1c0.6-7.4,2.6-14.2,6.9-20l2.6-3.3v-0.5c1.5,1.8,3.3,3.5,5.1,5.1c-4.8,5.1-7.2,11.3-7.7,18.1C61.3,82,61.3,82.3,61.5,82.4
			z M56.6,93.6c-0.7,0.1-0.5,0.8-0.7,1.2c0.1-1.7-0.7-3.3-0.9-5l-0.5-4.4L54.2,85c2.1,0.3,4.5,0.1,6.7,0.2l0.5-0.2
			c-0.2,1.1-0.2,2.6,0.5,3.5c-0.3-0.3-0.7-1.1-1.3-1.1c-1.2,0.1-1.3,1.7-2.6,1.7c-1,0.8-1.2,2-1.4,3.2
			C57.1,92.6,56.3,93.1,56.6,93.6z M63.9,85.3l-0.3-0.6c0.7,0.5,1.5,0.4,2.3,0.2c-1.2,0.4-0.7,1.8-1.2,2.7c-0.1,0.4,0.6,0.6,0.5,1
			c-0.6,0.3-0.7,0.9-0.9,1.4C64.6,88.4,64,86.9,63.9,85.3z M89.2,120.1l-0.7-0.5c-9-0.5-16.7-4.2-23.4-10c1.1-0.1,1.5,1.3,2.7,1
			c1.3-0.1,2.3-1.2,3.7-1c0.7,0,1.5,0,1.9-0.7c0.2-0.7-0.6-1.1-0.7-1.7c4.6,3.4,9.7,5.6,15.6,5.8l0.6-0.2v6.4L89.2,120.1z
			 M90.3,75.3l0.4,0.2c-0.5,0-1.1-0.3-1.5,0.1c-0.3,0.2-0.1,0.6,0,0.9c0.9,0.3,1.1,1.8,2.2,1.2c0.5,0.1,1.1,0.2,1.3,0.7
			c0.7,0.3,0.8,1.5,1.7,1.2c0,0.5-0.2,1.3,0.4,1.6c-0.1,0.4-0.7,0.6-0.7,1.1c-0.1,0.1-0.2,0.4-0.1,0.6c0.9,0.1,0.8,1.1,1.3,1.7
			c-0.2,0.7,0,1.4,0.7,1.8c-0.1,0.8-0.5,1.5-0.8,2.2c-0.9,0.5-2.5-0.7-2.8,1c-0.5,0.6-0.1,1.9-1.1,1.9c-2,0.1-3.8-0.3-5.3-1.4
			c1-0.5,2.7,0.2,3-1.3c0.3-0.2,0.4-0.6,0.2-0.9c0.5-0.5,0.6-1.1,0.9-1.6c-0.4-0.4-0.2-0.6-0.1-1c-1-1-2.3-0.5-3.6-0.5
			c-0.8,0.4,0,1.3-0.5,1.8c-1,0.1-1,1.1-1.7,1.6c-0.4-0.2-0.7-0.7-0.7-1.1h0.1c-0.1,0.2,0.1,0.4,0.2,0.4c0.9,0.1,0.6-0.9,0.9-1.4
			c0.1-0.6,1.5-1.4,0.4-1.8c-0.1-0.2,0.1-0.6-0.2-0.7c-0.3,0.1-0.9,0.1-0.9,0.7c0.2,0.4,0,0.9-0.4,1.2h-0.2c0.1-0.3-0.1-0.5-0.3-0.6
			c-0.6,0-1,0.4-1.6,0.3c-0.8,0.2-1.6,0.3-2.4,0.3c-0.1-0.5,0.6-0.3,0.8-0.7c-0.1-0.7,0.4-1.2,0.7-1.7c0.2-0.2,0.6-0.1,0.8,0
			c0.2,0.2,0.4,0.4,0.7,0.3l0.2-0.4c0.7,0.4,0.3,2.5,1.7,1.6c0.2-0.9,0-2,0.4-2.8c-0.3-0.8,0.5-1.1,0.7-1.6c0.7,0.1,0.7-0.8,1-1.2
			c1.1-0.3,2.3-0.6,3.1-1.8c-0.3-0.6-0.1-1.5-0.6-2C89.1,75.1,89.9,74.9,90.3,75.3z M94.4,47.5c4.2,0.5,8,1.7,11.7,3.4
			c0.6,0.8,1.6,1.3,1.8,2.3c-0.6,1.5,2,1.4,0.8,2.9c-0.1,0.5,0.3,0.7,0.5,1.1c0.1,0.4-0.1,1,0.4,1.3c0.9,0.2,1.2-1,2.1-0.7
			c1.1,0.8,1.4,2.2,1.4,3.4c0.1,0.8,0.8,1.3,1.5,1.6c1.4-0.4,0.8,1.2,1.7,1.6c1.1,0.1,1.7,1.6,2.9,1.4c1.1,0.8,1.7,2,2.7,2.9
			c0,0.2,0.1,0.4,0.3,0.5c0.6,0.1,0.9-0.3,1.4-0.3c1.9,3.8,2.8,8,3.1,12.5l0.2,0.5c-2.3,0-4.7,0-7.1,0.2c-0.1-1.4,0-2.8-0.7-3.9
			c0.4-0.7,0.5-1.7,0.4-2.5c-0.1-0.4-0.5,0-0.6,0c-0.8,0.7-0.9,1.8-1.3,2.7c-0.7,0.9-0.8,2.4-0.4,3.4l0.3,0.3h-2.7
			c0.7-0.4-0.6-1.2,0.1-1.9l1.2-0.2c0.4-0.9,1.4-1.5,1.3-2.6c0.5-0.7,1-1.5,0.6-2.4c-0.6-1.3,1-2.7-0.2-3.9c0.1-0.4-0.1-0.9-0.6-0.9
			c-0.4-0.1-0.8,0-0.8-0.5c0.2-0.3,0.8-0.7,0.6-1.2c-0.3-0.4-0.7,0-1.1-0.1c-0.1-0.6,1-1.2,0-1.7c-0.7-0.1-1,0.7-1.7,0.4
			c-0.3-0.2-0.5-0.7-0.2-1l-1.4-1.8c-0.1-0.2-0.6,0.1-0.6-0.2c0.1-1.4-1.6-2.2-1.7-3.6c-0.5-0.5-0.1-1.4-0.8-1.8
			c-0.4-0.3-0.8-0.6-1.4-0.4c-0.6-0.9-1.3-1.7-2.1-2.5c-0.2-0.1-0.4,0.1-0.5,0.2c0.1,0.7,0.9,1.1,0.9,1.8c-0.1,0-0.2,0-0.3,0.1
			c0.1,0.7,0.7,1.3,1.1,1.7c-3.8-2.9-8.3-4.4-13-5.2c-0.9,0-1.9-0.4-2.8-0.1c0.2-2.1,0.1-4.5,0.1-6.7l-0.2-0.5
			C92.4,47.6,93.4,47.3,94.4,47.5z M96.3,37.8c9.7,1.3,18.3,5.2,25.6,12.1l-0.8,0.3c-1.3,1.4-2.9,2.6-3.6,4.2
			c-0.1-0.5-0.8-0.8-1-1.2c-0.1-1.3-1.4-2.6-2.6-3.3c-0.9-0.2-1.2-1.6-2.3-1.2c-1-0.8-2.2-0.2-3.1,0.2V49c-4.6-2.6-9.7-4.2-15.2-4.6
			c-0.3,0-0.4,0.2-0.7,0.2c0.3-0.2,0.1-0.8,0.1-1.1c-0.1-0.2-0.4-0.5-0.8-0.3c-0.1,0.2-0.2,0.4-0.2,0.6c0.1-2.1,0.2-4.8-0.1-6.7
			C93,37.7,94.7,37.5,96.3,37.8z M100.8,100.1c2.1,0.2,4.1,0.7,6,1.4c0.5,0,1,0,1.3-0.4c-0.1-0.8,0.8-1.2,0.7-2
			c0.4-0.7,0.1-1.6,0.7-2.2c0.1-0.8,0-1.8-0.6-2.4c-0.5-0.3-1,0.1-1.5,0.2c-0.6,0.4-0.4,1.7-1.4,1.4c-0.2,0.3-0.7,0.3-1,0.2
			c-0.1-0.1-0.2-0.1-0.2-0.3c0.7-0.4,2-0.1,2.1-1.3c0.5-0.5,1.4-0.3,1.9-0.8c0.4-0.6,0.5-1.1,1-1.6c0-0.2,0.1-0.5,0.1-0.7
			c0.1,0.3,0.1,0.8,0.6,1c0.6,0.2,0.8-0.3,1-0.7c0-0.2,0.1-0.5,0.3-0.3c0.6,0.5,1.4,0.1,2.1,0.1c0.6-0.2,1.3-0.3,1.9-0.3
			c-0.6,2.7-1.9,5.1-3.5,7.5c-0.6,0.7-1.1,1.5-1.8,2.3c-0.2-0.6-0.2-1.3-0.7-1.8l-0.3,0.1c-0.4,0.8-1.2,1.4-1.1,2.3
			c-0.6,0.9-2,0.1-2.9,0.6c-1,0.3-1.6-0.7-2.4-0.9c-0.9-0.4-2-0.4-2.8-0.9C100.5,100.3,100.6,100.1,100.8,100.1z M107.4,64.3
			c-1.3,1.4-2.9,2.8-4,4.3l-0.2-0.5c-3.2-2.6-6.8-3.9-10.8-4.4l-0.6,0.1v-6.5l-0.2-0.5c2.7,0.4,5.3,0.8,7.8,1.6c3.1,1.1,6,2.8,8.7,5
			l0.6,0.2L107.4,64.3z M117.5,84.8c-0.4,1.3-0.4,2.8-0.7,4.1c-0.1,0.2-0.1,0.5-0.2,0.7c-0.4-0.8-0.8-1.9-1.7-2.4
			c-0.8-0.4-0.3-1.5-1-2l-0.7-0.7C114.3,85,116,84.9,117.5,84.8z M113.2,72c0.8,0.2,1.3,1.1,2.1,1.3c0.7,1.1,1,2.4,1.4,3.6
			c-0.7,0.7-0.7,2.3-2.1,2.1c-0.3-0.8,0.6-1.2,0.4-2c0.2-0.2,0.6-0.3,0.7-0.7c-0.1-0.7-1-0.6-1.1-1.3c-0.3-0.4-0.8-0.4-1.2-0.5
			c-0.9-0.4-1.8,1.9-2,0c0.3-0.2,0.5-0.6,0.2-0.9c-0.8-0.4-0.9-1.5-1.7-2c-1.2,0-2.3-0.5-3.4-0.2c-0.7-0.2-1.6-0.7-2.2,0.1
			c0,0.6-0.4,1.1-0.5,1.7c-0.3-0.1-0.5-0.4-0.7-0.7c2.1-2.4,4.6-4.8,6.8-7.1l0.1-0.3c1.1,1.4,2.4,2.8,3.2,4.3
			C113.5,70.4,111.7,71.4,113.2,72z M99.6,95.1c0,0.9-1.3,0.8-1.9,1.4c-0.3-0.1-0.1-0.5,0-0.7C98.3,95.5,98.7,95,99.6,95.1z
			 M97.5,75.1c-0.4,0.1-0.8,0.4-1.2,0.2c-0.4-0.4-0.9-1-1.6-1.1c-0.5,0.1-0.8,0.7-1.3,0.4c0.9-0.9,2.4-1.1,3.1-2.4
			c0.2-0.6,0.4-1.3,0.3-1.9c-0.2-0.3-0.6-0.6-0.9-0.3c-0.5,0.8-1.6,1-2.1,1.8l-1.7-0.6c-0.3-1.6,0.1-3.6-0.3-5
			c0.9,0.3,1.9,0.4,2.9,0.6c2.5,0.6,4.7,1.8,6.9,3.1c-0.5,0.2-1,0.8-1.4,1.2c0,0.4,0.5,0.3,0.6,0.6l0.5-0.2
			C100.3,73.4,97.8,73.1,97.5,75.1z M111,112.6c-1.3-1.2,0.8-2.1,1.2-3.2c-0.2-1.1-1.5-1.8-2.4-2.1c-0.5-0.3-0.3-0.8-0.3-1.2
			c0.4-0.4,0.9-0.8,1.1-1.4l0.2,0.5l3,3.1c0,0.7,0.1,1.3,0.8,1.6c0.3,0.1,0.7-0.1,1,0h-0.2c-1.3,1.4-2.8,2.5-4.3,3.6l-0.3,0.5
			C110.5,113.4,111.4,113.1,111,112.6z M116.7,105.6c-0.6-0.6-0.6-1.7-1.7-1.7c-0.4,0-0.5,0.3-0.5,0.6c0,0.2,0.1,0.4-0.1,0.5
			l-2.2-1.9c1-0.5,1.8-1.9,2.6-2.9c2-2.8,3.2-6,4.2-9.2c0.3,0.3,0.8,0.3,1.1,0.1c0.3-0.3,0.4-0.8,0.2-1.1l-0.7-1
			c0.1-1.5,0.5-2.9,0.3-4.3l0.5,0.2c2.2,0,4.5,0.1,6.7-0.1l-0.3,0.4c-0.6,8.7-3.6,16.6-9.7,23C117.4,107.3,116.6,106.5,116.7,105.6z
			 M136.4,79.5c0.1,0.8-0.1,1.8,0.4,2.5l-7,0.1c-0.2,0.1-0.4,0.2-0.6,0.2l0.2-0.3c-0.1-5.5-1.6-10.4-3.7-15
			c-0.1-2.1-2.1-3.5-2.9-5.3c-1.5-1.1-2-2.9-3.8-3.9c-0.3-0.4-0.5-1-1-1.1l0.8-0.2c1.7-1.7,3.5-3.4,4.8-5.2
			C130.9,59.5,135.5,68.7,136.4,79.5z M134.1,62.4c-7.9-16.9-25.3-27.6-43.5-27.6c-8,0.1-15.3,1.9-22,5.2C56.7,45.7,47,58,43.7,70.2
			c-5.3,20.6,1.9,41.4,19.5,53.5c12.7,9.1,32.9,10.8,47.2,3.9c12.7-5.3,23.5-18.4,26.8-31.3C140.5,85.5,139.1,72.1,134.1,62.4z"/>
		<path class="st1" d="M112,47.2c0,0.3,0,0.5,0.2,0.7c1,0.4,1.1,1.8,2.4,1.5c0.4-0.4-0.2-0.9-0.1-1.5c-0.2-0.5-0.6-0.7-1.1-0.9
			C112.8,47.6,112.4,46.7,112,47.2"/>
		<path class="st1" d="M92.7,43.1c1.3,1.6,3.5,0.7,5.1,0.4c1.2,0.5,2.3-0.1,3.1-0.8v-0.2c-0.8-1.2-2.4-1.3-3.8-1.4l-3.5,1.5
			c-0.3-0.1-0.8-0.3-1,0.1C92.5,42.9,92.6,43,92.7,43.1"/>
	</g>
</g>
</svg>
