<?xml version="1.0" encoding="utf-8"?>
<!-- Generator: Adobe Illustrator 20.1.0, SVG Export Plug-In . SVG Version: 6.00 Build 0)  -->
<svg version="1.1" id="Слой_1" xmlns="http://www.w3.org/2000/svg" xmlns:xlink="http://www.w3.org/1999/xlink" x="0px" y="0px"
	 viewBox="0 0 28.42 28.06" style="enable-background:new 0 0 28.42 28.06;" xml:space="preserve">
<style type="text/css">
	.st0{enable-background:new    ;}
	.st1{fill:#3E3E3E;}
	.st2{fill:none;stroke:#3D3F3C;stroke-miterlimit:100;}
</style>
<g id="user_1_" class="st0">
	<g id="user">
		<path class="st1" d="M23.12,23.15c0-0.1,0-0.2-0.1-0.4c-0.5-2.9-2.5-5.4-5.3-6.5c1.6-1.1,2.7-2.9,2.7-4.9c0-3.3-2.8-5.9-6.3-5.9
			s-6.3,2.7-6.3,5.9c0,2,1.1,3.8,2.7,4.9c-2.6,1.2-4.6,3.6-5,6.6c-0.1,0.1-0.1,0.2-0.1,0.4v0.1c0,0.5,0.4,0.8,0.9,0.8
			s0.9-0.4,0.9-0.8l0,0l0,0c0.4-3.3,3.3-5.8,6.9-5.9c0.1,0,0.2,0,0.2,0c0.1,0,0.2,0,0.2,0c3.5,0.1,6.4,2.7,6.9,5.9l0,0l0,0
			c0,0.5,0.4,0.8,0.9,0.8C22.72,24.15,23.12,23.75,23.12,23.15L23.12,23.15z M14.22,15.65c-2.5,0-4.5-1.9-4.5-4.2s2-4.2,4.5-4.2
			s4.5,1.9,4.5,4.2S16.72,15.65,14.22,15.65z"/>
		<g>
			<path class="st1" d="M23.12,23.15c0-0.1,0-0.2-0.1-0.4c-0.5-2.9-2.5-5.4-5.3-6.5c1.6-1.1,2.7-2.9,2.7-4.9c0-3.3-2.8-5.9-6.3-5.9
				s-6.3,2.7-6.3,5.9c0,2,1.1,3.8,2.7,4.9c-2.6,1.2-4.6,3.6-5,6.6c-0.1,0.1-0.1,0.2-0.1,0.4v0.1c0,0.5,0.4,0.8,0.9,0.8
				s0.9-0.4,0.9-0.8l0,0l0,0c0.4-3.3,3.3-5.8,6.9-5.9c0.1,0,0.2,0,0.2,0c0.1,0,0.2,0,0.2,0c3.5,0.1,6.4,2.7,6.9,5.9l0,0l0,0
				c0,0.5,0.4,0.8,0.9,0.8C22.72,24.15,23.12,23.75,23.12,23.15L23.12,23.15z M14.22,15.65c-2.5,0-4.5-1.9-4.5-4.2s2-4.2,4.5-4.2
				s4.5,1.9,4.5,4.2S16.72,15.65,14.22,15.65z"/>
		</g>
	</g>
</g>
<g id="Ellipse_2_copy_1_" class="st0">
	<g id="Ellipse_2_copy">
		<g>
			<ellipse class="st2" cx="14.22" cy="14.05" rx="13.7" ry="13.5"/>
		</g>
	</g>
</g>
</svg>
