<svg xmlns="http://www.w3.org/2000/svg" viewBox="0 0 29 29"><style>.st0{enable-background:new}.st1,.st2{fill:#fff}.st2{fill-rule:evenodd;clip-rule:evenodd}.st3{fill:none;stroke:#fff;stroke-miterlimit:100}</style><g id="Ellipse_2_copy_6_1_" class="st0"><path class="st1" d="M14.5 2C21.4 2 27 7.6 27 14.5S21.4 27 14.5 27 2 21.4 2 14.5 7.6 2 14.5 2m0-2C6.5 0 0 6.5 0 14.5S6.5 29 14.5 29 29 22.5 29 14.5 22.5 0 14.5 0z" id="Ellipse_2_copy_6"/></g><g id="user_1_" class="st0"><g id="user"><path class="st2" d="M23.2 23.6c0-.1 0-.2-.1-.4-.5-2.9-2.5-5.4-5.3-6.5 1.6-1.1 2.7-2.9 2.7-4.9 0-3.3-2.8-5.9-6.3-5.9s-6.3 2.7-6.3 5.9c0 2 1.1 3.8 2.7 4.9-2.6 1.2-4.6 3.6-5 6.6-.1.1-.1.2-.1.4v.1c0 .5.4.8.9.8s.9-.4.9-.8c.4-3.3 3.3-5.8 6.9-5.9h.4c3.5.1 6.4 2.7 6.9 5.9 0 .5.4.8.9.8.4 0 .8-.4.8-1zm-8.9-7.5c-2.5 0-4.5-1.9-4.5-4.2 0-2.3 2-4.2 4.5-4.2s4.5 1.9 4.5 4.2c0 2.3-2 4.2-4.5 4.2z"/><path class="st3" d="M23.2 23.6c0-.1 0-.2-.1-.4-.5-2.9-2.5-5.4-5.3-6.5 1.6-1.1 2.7-2.9 2.7-4.9 0-3.3-2.8-5.9-6.3-5.9s-6.3 2.7-6.3 5.9c0 2 1.1 3.8 2.7 4.9-2.6 1.2-4.6 3.6-5 6.6-.1.1-.1.2-.1.4v.1c0 .5.4.8.9.8s.9-.4.9-.8c.4-3.3 3.3-5.8 6.9-5.9h.4c3.5.1 6.4 2.7 6.9 5.9 0 .5.4.8.9.8.4 0 .8-.4.8-1zm-8.9-7.5c-2.5 0-4.5-1.9-4.5-4.2 0-2.3 2-4.2 4.5-4.2s4.5 1.9 4.5 4.2c0 2.3-2 4.2-4.5 4.2z"/></g></g></svg>