<svg id="Слой_1" xmlns="http://www.w3.org/2000/svg" viewBox="0 0 28.42 28.06"><style>.st0{enable-background:new}.st1{fill:#3e3e3e}.st2{fill:none;stroke:#3d3f3c;stroke-miterlimit:100}</style><g id="user_1_" class="st0"><g id="user"><path class="st1" d="M23.12 23.15c0-.1 0-.2-.1-.4-.5-2.9-2.5-5.4-5.3-6.5 1.6-1.1 2.7-2.9 2.7-4.9 0-3.3-2.8-5.9-6.3-5.9s-6.3 2.7-6.3 5.9c0 2 1.1 3.8 2.7 4.9-2.6 1.2-4.6 3.6-5 6.6-.1.1-.1.2-.1.4v.1c0 .5.4.8.9.8s.9-.4.9-.8c.4-3.3 3.3-5.8 6.9-5.9h.4c3.5.1 6.4 2.7 6.9 5.9 0 .5.4.8.9.8.4 0 .8-.4.8-1zm-8.9-7.5c-2.5 0-4.5-1.9-4.5-4.2s2-4.2 4.5-4.2 4.5 1.9 4.5 4.2-2 4.2-4.5 4.2z"/><path class="st1" d="M23.12 23.15c0-.1 0-.2-.1-.4-.5-2.9-2.5-5.4-5.3-6.5 1.6-1.1 2.7-2.9 2.7-4.9 0-3.3-2.8-5.9-6.3-5.9s-6.3 2.7-6.3 5.9c0 2 1.1 3.8 2.7 4.9-2.6 1.2-4.6 3.6-5 6.6-.1.1-.1.2-.1.4v.1c0 .5.4.8.9.8s.9-.4.9-.8c.4-3.3 3.3-5.8 6.9-5.9h.4c3.5.1 6.4 2.7 6.9 5.9 0 .5.4.8.9.8.4 0 .8-.4.8-1zm-8.9-7.5c-2.5 0-4.5-1.9-4.5-4.2s2-4.2 4.5-4.2 4.5 1.9 4.5 4.2-2 4.2-4.5 4.2z"/></g></g><g id="Ellipse_2_copy_1_" class="st0"><ellipse class="st2" cx="14.22" cy="14.05" rx="13.7" ry="13.5" id="Ellipse_2_copy"/></g></svg>