<svg id="Фигура_6_1_" xmlns="http://www.w3.org/2000/svg" viewBox="0 0 32 28"><style>.st0{fill-rule:evenodd;clip-rule:evenodd;fill:#8e908f}</style><path class="st0" d="M16 19.25c-.98 0-1.78.78-1.78 1.75s.8 1.75 1.78 1.75 1.78-.78 1.78-1.75-.8-1.75-1.78-1.75zm15.65 4.82L18.31 1.32A2.664 2.664 0 0 0 16 0c-.99 0-1.85.53-2.31 1.32L.35 24.07c-.22.38-.35.83-.35 1.3C0 26.82 1.19 28 2.67 28h26.67c1.47 0 2.67-1.18 2.67-2.62-.01-.48-.14-.93-.36-1.31zM2.66 25.38L16 2.62l13.33 22.75-26.67.01zm11.56-14.01c0 .1.01.2.02.29l.88 5.1c.07.41.44.73.88.73s.81-.31.88-.73l.88-5.1c.02-.1.03-.19.03-.29 0-.97-.8-1.75-1.78-1.75-.99 0-1.79.79-1.79 1.75z" id="Фигура_6"/></svg>