<?xml version="1.0" encoding="utf-8"?>
<!-- Generator: Adobe Illustrator 20.1.0, SVG Export Plug-In . SVG Version: 6.00 Build 0)  -->
<svg version="1.1" id="Forma_1_1_" xmlns="http://www.w3.org/2000/svg" xmlns:xlink="http://www.w3.org/1999/xlink" x="0px" y="0px"
	 viewBox="0 0 27.6 38" style="enable-background:new 0 0 27.6 38;" xml:space="preserve">
	<path class="st0" d="M10.3,14.2h6.9c0.6,0,1.1-0.5,1.1-1.2s-0.5-1.2-1.1-1.2h-6.9c-0.6,0-1.1,0.5-1.1,1.2
	C9.2,13.7,9.7,14.2,10.3,14.2z M25.3,7.1h-4.6C20.6,3.2,17.6,0,13.8,0S7,3.2,6.9,7.1H2.3C1,7.1,0,8.2,0,9.5v26.1
	C0,36.9,1,38,2.3,38h23c1.3,0,2.3-1.1,2.3-2.4V9.5C27.6,8.2,26.5,7.1,25.3,7.1z M13.8,2.4c2.5,0,4.5,2.1,4.6,4.7H9.2
	C9.3,4.5,11.3,2.4,13.8,2.4z M25.3,35.6h-23V9.5h23V35.6z" fill="#FFFFFF"/>
</svg>