<svg id="Forma_1_1_" xmlns="http://www.w3.org/2000/svg" viewBox="0 0 18.56 24.94"><style>.st0{fill-rule:evenodd;clip-rule:evenodd;fill:#fff}.st1{fill:none;stroke:#fff;stroke-width:.5333;stroke-miterlimit:100}</style><g id="Forma_1"><path class="st0" d="M7.06 9.45h4.51c.41 0 .75-.34.75-.76s-.34-.76-.75-.76H7.06c-.41 0-.75.34-.75.76 0 .41.34.76.75.76zm9.78-4.58h-3.01C13.79 2.34 11.79.3 9.33.3c-2.47 0-4.47 2.04-4.5 4.57H1.8c-.83 0-1.5.68-1.5 1.52v16.76c0 .84.67 1.52 1.5 1.52h15.03c.83 0 1.5-.68 1.5-1.52V6.4c.01-.84-.67-1.53-1.49-1.53zM9.32 1.83c1.63 0 2.96 1.36 3 3.05h-6c.03-1.69 1.36-3.05 3-3.05zm7.52 21.33H1.8V6.4h15.03v16.76z"/><path class="st1" d="M7.06 9.45h4.51c.41 0 .75-.34.75-.76s-.34-.76-.75-.76H7.06c-.41 0-.75.34-.75.76 0 .41.34.76.75.76zm9.78-4.58h-3.01C13.79 2.34 11.79.3 9.33.3c-2.47 0-4.47 2.04-4.5 4.57H1.8c-.83 0-1.5.68-1.5 1.52v16.76c0 .84.67 1.52 1.5 1.52h15.03c.83 0 1.5-.68 1.5-1.52V6.4c.01-.84-.67-1.53-1.49-1.53zM9.32 1.83c1.63 0 2.96 1.36 3 3.05h-6c.03-1.69 1.36-3.05 3-3.05zm7.52 21.33H1.8V6.4h15.03v16.76z"/></g></svg>