<svg id="Слой_1" xmlns="http://www.w3.org/2000/svg" viewBox="0 0 28.42 28"><style>.st0{enable-background:new}.st1,.st2{fill:none;stroke:#3d3f3c;stroke-miterlimit:100}.st2{fill:#3d3f3c;stroke-miterlimit:10}</style><g id="Ellipse_2_copy_3_1_" class="st0"><ellipse class="st1" cx="14.24" cy="14.03" rx="13.7" ry="13.5" id="Ellipse_2_copy_3"/></g><g id="Google_Plus_Logo_1_" class="st0"><path class="st2" d="M13.75 7.8c-1.53 0-2.55.31-3.46 1.02-.71.61-1.22 1.43-1.22 2.24 0 1.32 1.02 2.65 3.06 2.65h.61v.1c-.1.2-.2.31-.2.61 0 .51.31.82.51 1.12h-.1c-.82.1-2.34.1-3.46.82-1.35.71-1.45 1.73-1.45 2.03 0 1.22 1.22 2.45 3.97 2.45 3.16 0 4.79-1.63 4.79-3.16 0-1.22-.71-1.73-1.53-2.34l-.51-.61c-.2-.2-.51-.31-.51-.71 0-.41.31-.61.51-.82.71-.51 1.53-1.12 1.53-2.45s-.92-1.94-1.32-2.24h1.12l.92-.51v-.1h-.1l-3.16-.1c0 .1 0 0 0 0zm2.03 10.39c0 1.12-1.02 1.83-2.75 1.83-1.94 0-3.26-.82-3.26-2.04 0-.82.51-1.43 1.53-1.73.82-.31 1.94-.31 1.94-.31h.41c1.42.92 2.13 1.43 2.13 2.25zm-1.53-5.4c-.31.31-.82.51-1.22.51-1.63 0-2.34-1.94-2.34-3.06 0-.51.1-.92.41-1.22.31-.31.82-.51 1.32-.51 1.53 0 2.34 1.83 2.34 3.16 0 .1 0 .71-.51 1.12zm8.66 1.02h-1.73v-1.63s0-.1-.1-.1h-.71s-.1 0-.1.1v1.63h-1.73s-.1 0-.1.1v.71s0 .1.1.1h1.73v1.63s0 .1.1.1h.71s.1 0 .1-.1v-1.63h1.73s.1 0 .1-.1l-.1-.81c0 .1 0 0 0 0z" id="Google_Plus_Logo"/></g></svg>