<svg id="Слой_1" xmlns="http://www.w3.org/2000/svg" viewBox="0 0 29.46 29"><style>.st0{enable-background:new}.st1{fill:none;stroke:#3d3f3c;stroke-width:2;stroke-miterlimit:100}.st2{fill:#3d3f3c}</style><g id="Ellipse_2_copy_2_1_" class="st0"><ellipse class="st1" cx="14.77" cy="14.52" rx="13.7" ry="13.5" id="Ellipse_2_copy_2"/></g><g id="Instagram_Social_Network_Logo_Of_Photo_Camera_1_" class="st0"><path class="st2" d="M19.77 8.17h-10c-1 0-1.7.7-1.7 1.6v9.5c0 1 .8 1.6 1.7 1.6h10c1 0 1.7-.7 1.7-1.6v-9.5c0-.9-.7-1.6-1.7-1.6zm-2.5 2c0-.3.3-.6.6-.6h1.5c.3 0 .6.3.6.6v1.4c0 .3-.3.6-.6.6h-1.5c-.3 0-.6-.3-.6-.6v-1.4zm-2.5 1.9c1.5 0 2.7 1.1 2.7 2.5s-1.2 2.5-2.7 2.5-2.7-1.1-2.7-2.5 1.2-2.5 2.7-2.5zm5.2 6.9c0 .3-.2.5-.5.5h-9.4c-.3 0-.5-.2-.5-.5v-5.4h1.2c-.1.3-.2.7-.2 1.1 0 2.1 1.9 3.8 4.2 3.8s4.2-1.7 4.2-3.8c0-.4-.1-.7-.2-1.1h1.2v5.4z" id="Instagram_Social_Network_Logo_Of_Photo_Camera"/></g></svg>