<?xml version="1.0" encoding="utf-8"?>
<!-- Generator: Adobe Illustrator 20.1.0, SVG Export Plug-In . SVG Version: 6.00 Build 0)  -->
<svg version="1.1" id="Слой_1" xmlns="http://www.w3.org/2000/svg" xmlns:xlink="http://www.w3.org/1999/xlink" x="0px" y="0px"
	 viewBox="0 0 29.46 29" style="enable-background:new 0 0 29.46 29;" xml:space="preserve">
<style type="text/css">
	.st0{enable-background:new    ;}
	.st1{fill:none;stroke:#3D3F3C;stroke-width:2;stroke-miterlimit:100;}
	.st2{fill:#3D3F3C;}
</style>
<g id="Ellipse_2_copy_2_1_" class="st0">
	<g id="Ellipse_2_copy_2">
		<g>
			<ellipse class="st1" cx="14.77" cy="14.52" rx="13.7" ry="13.5"/>
		</g>
	</g>
</g>
<g id="Instagram_Social_Network_Logo_Of_Photo_Camera_1_" class="st0">
	<g id="Instagram_Social_Network_Logo_Of_Photo_Camera">
		<g>
			<path class="st2" d="M19.77,8.17h-10c-1,0-1.7,0.7-1.7,1.6v9.5c0,1,0.8,1.6,1.7,1.6h10c1,0,1.7-0.7,1.7-1.6v-9.5
				C21.47,8.87,20.77,8.17,19.77,8.17z M17.27,10.17c0-0.3,0.3-0.6,0.6-0.6h1.5c0.3,0,0.6,0.3,0.6,0.6v1.4c0,0.3-0.3,0.6-0.6,0.6
				h-1.5c-0.3,0-0.6-0.3-0.6-0.6V10.17z M14.77,12.07c1.5,0,2.7,1.1,2.7,2.5s-1.2,2.5-2.7,2.5s-2.7-1.1-2.7-2.5
				S13.27,12.07,14.77,12.07z M19.97,18.97c0,0.3-0.2,0.5-0.5,0.5h-9.4c-0.3,0-0.5-0.2-0.5-0.5v-5.4h1.2c-0.1,0.3-0.2,0.7-0.2,1.1
				c0,2.1,1.9,3.8,4.2,3.8s4.2-1.7,4.2-3.8c0-0.4-0.1-0.7-0.2-1.1h1.2V18.97z"/>
		</g>
	</g>
</g>
</svg>
