<svg id="location_1_" xmlns="http://www.w3.org/2000/svg" viewBox="0 0 27.9 35.07"><style>.st0{fill:#fff}</style><path class="st0" d="M8.3 14.6c0 3.2 2.5 5.9 5.6 5.9s5.6-2.6 5.6-5.9c0-3.2-2.5-5.9-5.6-5.9s-5.6 2.6-5.6 5.9zm8.4 0c0 1.6-1.2 2.9-2.8 2.9s-2.8-1.3-2.8-2.9 1.2-2.9 2.8-2.9 2.8 1.3 2.8 2.9zm9.7-6.7c-.1-.7-.7-1.3-1.4-1.2-.8 0-1.4.7-1.4 1.5v.1c0 .4.2.8.5 1l-.1.1c.8 1.6 1.2 3.3 1.2 5.2 0 2.9-1 5.5-2.7 7.6-.1.1-.2.1-.3.2L21 23.6l-.1.1-4.7 5-2.2 2.6-2.3-2.5L7 23.6l-.6-.6-.6-.7c-1.8-2.1-2.9-4.8-2.9-7.7C2.8 8.2 7.8 3 14 3c2.1 0 4.1.6 5.8 1.7.3.3.8.5 1.2.5.8 0 1.4-.7 1.4-1.5v-.1c0-.6-.4-1.1-.9-1.3C19.3.8 16.7 0 14 0 6.3 0 0 6.5 0 14.5c0 3.7 1.4 7.1 3.6 9.7.1.1.1.2.2.3l9.2 10s0 .1.1.1c.1.1.3.2.5.3.5.3 1.2.2 1.6-.3.1-.1.2-.2.2-.4l8.9-9.7c.1-.1.1-.1.1-.2 2.2-2.6 3.6-6 3.6-9.7-.1-2.5-.6-4.7-1.6-6.7z" id="location"/></svg>