<svg id="Слой_1" xmlns="http://www.w3.org/2000/svg" viewBox="0 0 40 49.2"><style>.st0{fill:#262c26}</style><path class="st0" d="M5.1 22.8c-.1-.2-.3-.4-.6-.3-.2.1-.4.4-.3.6.5 1.3 1.3 2.4 2.3 3.3.1.1.2.1.3.1s.3-.1.3-.2c.2-.2.1-.5-.1-.6-.8-.8-1.5-1.8-1.9-2.9z"/><path class="st0" d="M40 14.1C40 6.3 33.7 0 26.1 0c-5.8 0-10.7 3.5-12.9 8.5-.5-.1-1-.1-1.4-.1C5.3 8.4 0 13.7 0 20.3c0 5.4 3.6 10 8.6 11.4l-.1.3c-.2.6-.2 1.2.2 1.7.3.5.9.8 1.5.8h.9c0 .7-.2 1.1-.4 1.5-.3.6-.5 1.3-.5 2.7 0 1.3.3 2 .5 2.7.2.5.4 1 .4 2s-.2 1.4-.4 2c-.3.6-.5 1.3-.5 2.7 0 .5.4.9.9.9s.9-.4.9-.9c0-1 .2-1.4.4-2 .3-.6.5-1.3.5-2.7 0-1.3-.3-2-.5-2.7-.2-.5-.4-1-.4-2s.2-1.4.4-2c.2-.5.5-1.2.5-2.2h.6c.6 0 1.2-.3 1.5-.8s.4-1.1.2-1.7l-.1-.3c2.6-.7 4.8-2.3 6.3-4.5.4.2.9.3 1.3.4l-.3.8c-.2.6-.2 1.2.2 1.7.3.5.9.8 1.5.8h1.4c0 .1-.1.2-.1.3 0 1.2-.2 1.8-.5 2.5s-.6 1.6-.6 3.2.3 2.4.6 3.2c.3.7.5 1.2.5 2.5 0 1.2-.2 1.8-.5 2.5s-.6 1.6-.6 3.2c0 .5.4.9.9.9s.9-.4.9-.9c0-1.2.2-1.8.5-2.5s.6-1.6.6-3.2-.3-2.4-.6-3.2c-.3-.7-.5-1.2-.5-2.5 0-1.2.2-1.8.5-2.5s.6-1.6.6-3.2c0-.1 0-.2-.1-.3h1c.6 0 1.2-.3 1.5-.8s.4-1.1.2-1.7l-.3-.7c6-1.6 10.5-7.1 10.5-13.6zM27 26.3l.1.2 1 2.6h-4.2l1-2.6.1-.2c-1-.1-1.9-.3-2.8-.6l-.9-.3c-.3-.1-.5-.2-.8-.4-4-2-6.7-6.1-6.7-10.9 0-1.2.2-2.4.5-3.5l.3-.9c.1-.3.2-.6.4-.8 1.9-4.2 6.1-7.1 11-7.1 6.7 0 12.1 5.5 12.1 12.2.1 6.5-4.8 11.8-11.1 12.3zm-14.4 4.1l.1.2.8 2.1h-3.4l.8-2.1.1-.2c-5.2-.4-9.2-4.7-9.2-10 0-5.6 4.5-10.1 10-10.1h.8c-.2.7-.3 1.4-.4 2.2-.1-.2-.2-.3-.4-.3-4.4 0-8.1 3.6-8.1 8.1 0 .3.2.5.5.5.2 0 .5-.2.5-.5v-.5c.2-3.6 3.1-6.5 6.7-6.7h.5c.2 0 .3-.1.4-.2 0 .4-.1.8-.1 1.2 0 5.4 3.1 10.1 7.6 12.5-1.8 2.1-4.4 3.5-7.2 3.8z"/><path class="st0" d="M26.1 4.3c-3.8 0-7.1 2.3-8.7 5.5-.1.3-.2.5-.4.8l-.3.9c-.2.8-.3 1.7-.3 2.5 0 .3.2.5.5.5.2 0 .5-.2.5-.5v-.5c0-.5.1-1 .2-1.6l.3-.9c.1-.3.2-.6.3-.8 1.3-2.9 4.2-4.9 7.5-5.1h.5c.2 0 .5-.2.5-.5-.2-.1-.4-.3-.6-.3zm-8.3 12.8c-.1-.2-.3-.3-.6-.3-.2.1-.4.4-.3.6.6 1.5 1.5 2.9 2.8 3.9.1.1.2.1.3.1.1 0 .3-.1.3-.2.2-.2.1-.5-.1-.6-1-.9-1.9-2.1-2.4-3.5z"/></svg>