<svg id="Слой_1" xmlns="http://www.w3.org/2000/svg" viewBox="0 0 30.6 48.2"><style>.st0{fill:#262c26}</style><path class="st0" d="M29.4 9.4c-.1-.3-.1-.7-.1-1.1 0-.7-.1-1.5-.5-2.1s-1.1-.9-1.7-1.2c-.4-.2-.8-.3-1-.5s-.4-.5-.6-.9c-.3-.6-.7-1.2-1.4-1.6-.5-.3-1.1-.3-1.6-.3h-.7c-.3 0-.6 0-.8-.1-.3-.1-.6-.4-.9-.6-.5-.4-1.1-.9-1.8-1H18c-.5 0-1.1.2-1.6.4-.4.1-.8.3-1.1.3s-.7-.2-1.1-.3c-.5-.2-1-.4-1.6-.4h-.3c-.8 0-1.3.5-1.8.9-.3.3-.6.5-.9.6-.2.1-.5.1-.8.1h-.7c-.5 0-1.1 0-1.6.3-.6.4-1 1-1.3 1.6-.2.4-.4.7-.6.9s-.6.4-1 .5c-.6.1-1.3.4-1.7 1S1.5 7.3 1.4 8c0 .4 0 .8-.1 1.1s-.3.6-.5.9c-.4.6-.8 1.2-.8 2s.5 1.4.9 2c.2.3.4.6.5.9s.1.7.1 1.1c0 .7.1 1.5.5 2.1.4.5 1 .8 1.5 1.1.2 1.9 1.3 7.2 5.3 12.9-.2 0-.5 0-.8.3-.7.6-1.1 2.1-1.1 4.6s.4 4 1.2 4.6c.3.2.5.3.7.3h.1c.7 0 1.4-.1 2-.3-.7 1.1-1.4 2.5-2 4.1-.1.3 0 .6.2.8L11 48c.1.1.3.1.4.1h.2c.2-.1.4-.2.5-.4 0 0 .2-.4.4-.9.6.7 1.6 1.4 3.2 1.4s2.6-.6 3.1-1.3c.3.6.4.9.4.9.1.2.3.3.5.4h.2c.2 0 .3 0 .4-.1l1.9-1.5c.2-.2.3-.5.2-.8-.6-1.7-1.4-3.1-2.1-4.2.6.2 1.3.3 2 .3h.1c.2 0 .4 0 .7-.3.7-.6 1.1-2.1 1.1-4.6s-.4-4-1.2-4.6c-.3-.2-.6-.3-.8-.3 3.8-5.5 4.8-10.7 5-12.7.5-.2 1.1-.5 1.5-1 .4-.6.4-1.4.5-2.1 0-.4 0-.8.1-1.1s.3-.6.5-.9c.4-.6.8-1.2.8-2m-4.1-5.9c.5.2.9.4 1.1.7.2.3.2.8.2 1.3v.1c-.6-.3-1.3-.4-2.1-.4-.2 0-.5 0-.7.1.1-.2.3-.4.4-.6.2-.5.3-1.1.3-1.6.3.1.5.3.8.4zm-9.8 28.4c-.2 0-.3-.1-.5-.1h-1c-.2 0-.3 0-.5.1-.8-.9-2.1-2-3.9-2.5-3.8-4.8-5.2-9.5-5.7-12 .1.1.1.2.2.4.3.6.7 1.2 1.4 1.6.5.3 1.1.3 1.6.3H9c.3 0 .6 0 .8.1.3.1.6.4.9.6.5.4 1.1.9 1.8 1h.3c.6 0 1.1-.2 1.6-.4.4-.1.8-.3 1.1-.3s.7.2 1.1.3c.5.2 1 .4 1.6.4h.3c.7-.1 1.3-.6 1.8-1 .3-.3.6-.5.9-.6.2-.1.5-.1.8-.1h.7c.5 0 1.1 0 1.6-.3.6-.4 1-1 1.3-1.6.1-.1.1-.2.2-.4-.4 2.5-1.7 7.1-5.4 11.9-1.6.7-2.9 1.7-3.7 2.6zm.3 2.1c0 .4-.3.8-.8.8h-1c-.4 0-.8-.4-.8-.8s.3-.8.8-.8h1c.4.1.8.4.8.8zM13.1 6.3c-.6.7-1.7.7-2.4.1-.5-.4-.7-1-.8-1.6 0-.6.2-1.2.6-1.7 1.1-1.3 3.1-1.3 4.4-.1.9.8 2 2.6 1.8 4.6-.1 0-.3-.1-.4-.1-.8-.2-1.5-.2-2.3 0l.1-.1m7 6.5c-.7-.1-1.5-.1-2.2.2.4-.4.6-1 .7-1.5.1-.3.1-.5.1-.8.3.2.7.4 1 .6.1.5.2 1 .4 1.5zm-1.9 6.6c-1.3-.3-2.1-1.6-1.8-2.8.2-.8.6-1.5 1.3-1.9.7-.4 1.5-.6 2.3-.4 2.1.5 3.6 2.9 3.2 5.1-.2.3-.4.6-.6.7s-.6.1-.9.1h-1.1M12 22.4c-.8-.6-1-1.8-.4-2.6.4-.5 1-.9 1.6-.9.7-.1 1.3.1 1.8.5.7.5 1.2 1.3 1.3 3-.3-.1-.6-.1-.9-.1h-.2m2.6.6c0-.6-.1-1.1-.1-1.5.4.3.8.5 1.3.6.2.1.4.1.7.1h.2c-.1.1-.3.2-.4.3-.4.3-.8.6-1.1.7h-.1c-.2-.1-.3-.2-.5-.2zm-.7-7.6c-.5.6-.9 1.3-1.1 2.1v.3c-1.5-.4-2.9-1.4-3.7-2.5-.7-1.1-1-2.3-.8-3.5.4-2.1 2.4-3.4 4.5-2.9 1.6.4 2.6 1.9 2.3 3.5m-5.6 5.2c-.2 0-.3.1-.5.1 0-.2-.1-.4-.1-.7.2.3.4.4.6.6zm-2.6-4.8c0 .4.1.8.2 1.2-.4-.3-.8-.5-1.2-.7.3-.2.7-.3 1-.5zm-4.6 5.7c-.4-.4-.7-1-.7-1.6s.2-1.2.6-1.6c.5-.6 1.2-.9 2-.9s1.5.3 2.1.8c.9.8 1.4 2.2 1.3 3.5l-.3.3c-.5.7-.7 1.5-.6 2.3-.3-.1-.6-.1-.9-.1h-.7c-.3 0-.7 0-.9-.2-.2-.1-.5-.4-.7-.8M22.2 9.4c-.2.1-.4.3-.5.5-.3.3-.5.7-.7 1.1-.9-.5-1.7-1.3-2.1-2.3-.5-1.1-.5-2.3-.1-3.3.3-.8.9-1.3 1.7-1.6.8-.3 1.6-.2 2.4.1.6.3 1 .7 1.2 1.3s.2 1.2 0 1.8c-.2.4-.5.7-1 .9m-6.2-6.3c.4-.1.8-.3 1.1-.3h.1c.3.1.7.4 1.1.7.2.2.4.3.6.5-.9.4-1.7 1.1-2.2 2.1-.4-1.1-1-2-1.7-2.7.4 0 .7-.1 1-.3zM8.2 5.5c-.6-.6-1.3-.9-2-1.1.1-.1.1-.2.2-.3.2-.4.5-.9.8-1 .2-.2.6-.2.9-.2h.7c-.2.5-.4 1.1-.3 1.8.1 1 .5 1.9 1.2 2.6.7.6 1.6.9 2.4.8-.8.6-1.5 1.5-1.8 2.5l-.1.1c-1.6 1.6-4.7 1.6-6.2 0-.6-.6-.9-1.4-.9-2.2s.3-1.6.9-2.2c.9-.9 2.4-.9 3.3 0M3.2 17.2c-.2-.3-.2-.8-.2-1.3s0-1-.2-1.5-.4-.9-.7-1.3-.6-.9-.6-1.2c0-.4.3-.8.6-1.2 0-.1.1-.1.1-.2.2.5.5.9.9 1.2.7.7 1.6 1.2 2.6 1.4-.5.2-.9.6-1.3 1-.6.7-1 1.6-.9 2.6 0 .2 0 .4.1.6-.2.1-.3 0-.4-.1zm5.3 19.6c0-2.6.4-3.3.5-3.4 2.1 0 3.6 1.2 4.5 2.1-.3.4-.5.8-.5 1.4 0 .5.2 1 .5 1.4l-.2.2c-.9.9-2.4 1.8-4.3 1.8-.1-.2-.5-.9-.5-3.5zm2.9 9.4l-.8-.6c1.3-3.5 3.2-5.5 3.8-6.1l.2-.2c.1-.1.1-.2.2-.2h.2c-1.4 2.2-3 5.6-3.6 7.1zm6.8-.9c-.1.3-.6 1.4-2.4 1.4s-2.3-1.1-2.4-1.5v-.1c.7-1.4 1.5-3.2 2.4-4.5.8 1.4 1.7 3.2 2.4 4.7 0-.1 0 0 0 0zm2.9.5l-.8.6c-.7-1.6-2.4-5-3.8-7.2h.2c.1.2.3.3.5.5.6.5 2.5 2.6 3.9 6.1zM23 37c0 2.6-.4 3.3-.5 3.4-1.9 0-3.3-1-4.3-1.9-.1-.1-.2-.2-.3-.2.3-.4.5-.8.5-1.4 0-.5-.2-1-.5-1.4.9-.9 2.4-2 4.5-2 .1.2.5.9.6 3.5zm0-22.8c-1-.9-1-2.4-.2-3.3.7-.8 1.9-1.3 3.1-1.3.7 0 1.7.1 2.5.9.1.2.3.5.4.7.3.4.6.9.6 1.2 0 .4-.3.8-.6 1.2-.3.4-.5.8-.7 1.3-.1.5-.2 1-.2 1.5s0 1-.2 1.3-.6.4-1.1.6c-.4.1-.7.3-1.1.5-.1-.7-.4-1.4-.8-2.1-.1-.2-.2-.4-.4-.5"/></svg>