<svg id="Слой_1" xmlns="http://www.w3.org/2000/svg" viewBox="0 0 55.8 42.9"><style>.st0{fill:#262c26}</style><path class="st0" d="M22.1 29.7c-.1-.3-.4-.4-.7-.4-.9-.1-1.7-.1-2.4-.1-3.1 0-5.5.7-6.9 1.9v-8h.6c2.6 0 4.9-.9 6.3-2.4 1.3-1.4 1.9-3.3 1.8-5.5-.2-2.6-.9-3.9-1.6-5-.3-.5-.6-1-.8-1.5-1-2.9 1.1-5.6 1.1-5.7.2-.3.2-.7 0-1s-.6-.4-1-.3c-.1 0-1 .3-2.3.9L13.4.2c-.2-.2-.5-.3-.8-.2-4.1 1.1-6 2.2-6.7 2.7-.2-.1-2-.7-2.4-.8-.8-.2-1-.3-1.3-.1-.3 0-.5.2-.5.5s0 .5.2.7c0 0 2 2.2 1.1 5-.1.3-.3.7-.5 1.1-.6 1.4-1.5 3.4-1.5 6.1 0 2.1.7 3.9 2.1 5.2 2.2 2.2 5.5 2.5 7.2 2.6v5.4c-1.4-1.4-3.8-2.1-7.1-2.1-.8 0-1.6 0-2.4.1-.3 0-.6.2-.7.4s-.2.6 0 .8c2.4 4.7 5 7.1 7.9 7.1 1 0 1.8-.3 2.3-.6V42c0 .5.4.9.9.9s.9-.4.9-.9v-5c.6.3 1.3.5 2.2.5 2.9 0 5.6-2.4 7.9-7.1 0-.2 0-.5-.1-.7zM9.9 32.3c-.3.2-1.1.7-2 .7C6 33 4 31.3 2.2 28.1h.9c3 0 5.1.7 6.1 1.9.7.8.7 1.8.7 2.3zm2.6-30.6l1.8 1.6c-1.1.5-2.3 1.2-3.4 2-1-.7-2.1-1.3-3.1-1.8M4.3 19.2c-1-1-1.6-2.3-1.6-4 0-2.3.8-4 1.4-5.4.2-.4.4-.8.5-1.2.6-1.8.3-3.4-.1-4.6 1.3.5 3.2 1.3 5 2.5C7.8 8 6.3 9.8 5.6 11.9c-1.2 3.7-.5 6.2.3 7.6.2.4.5.7.7 1-.8-.2-1.6-.7-2.3-1.3zM9 20.4c-.2-.1-3.8-2.3-1.8-8 1.4-4.2 6.6-7 9.6-8.3-.5 1.3-.9 3.2-.2 5.1.3.7.6 1.3.9 1.8.6 1.1 1.2 2 1.4 4.3.1 1.7-.3 3.1-1.3 4.2-1.1 1.2-3 1.9-5 1.9-1.4-.1-2.7-.4-3.6-1zm5.1 15.4c-1 0-1.7-.4-2-.7 0-.5 0-1.5.7-2.4 1-1.2 3.1-1.9 6.1-1.9h.9c-1.8 3.3-3.7 5-5.7 5zm41.6-6.1c-.1-.3-.4-.4-.7-.4-.9-.1-1.7-.1-2.4-.1-3.1 0-5.5.7-6.9 1.9v-8h.6c2.6 0 4.9-.9 6.3-2.4 1.3-1.4 1.9-3.3 1.8-5.5-.2-2.6-.9-3.9-1.6-5-.3-.5-.6-1-.8-1.5-1-2.9 1.1-5.6 1.1-5.7.2-.3.2-.7 0-1s-.6-.4-1-.3c-.1 0-1 .3-2.3.9L47 .2c-.2-.2-.5-.3-.8-.2-4.1 1.1-6 2.2-6.7 2.7-.2-.1-2-.7-2.4-.8-.8-.2-1-.3-1.3-.1-.3 0-.5.2-.5.5s0 .5.2.7c0 0 2 2.2 1.1 5-.1.3-.3.7-.5 1.1-.6 1.4-1.5 3.4-1.5 6.1 0 2.1.7 3.9 2.1 5.2 2.2 2.2 5.5 2.5 7.2 2.6v5.4c-1.4-1.4-3.8-2.1-7.1-2.1-.8 0-1.6 0-2.4.1-.3 0-.6.2-.7.4-.1.2-.2.6 0 .8 2.4 4.7 5 7.1 7.9 7.1 1 0 1.8-.3 2.3-.6V42c0 .5.4.9.9.9s.9-.4.9-.9v-5c.6.3 1.3.5 2.2.5 2.9 0 5.6-2.4 7.9-7.1 0-.2 0-.5-.1-.7zm-12.2 2.6c-.3.2-1.1.7-2 .7-1.9 0-3.9-1.7-5.7-4.9h.9c3 0 5.1.7 6.1 1.9.8.8.8 1.8.7 2.3zm2.7-30.6L48 3.3c-1.1.5-2.3 1.2-3.4 2-1-.7-2.1-1.3-3.1-1.8m-3.6 15.7c-1-1-1.6-2.3-1.6-4 0-2.3.8-4 1.4-5.4.2-.4.4-.8.5-1.2.6-1.8.3-3.4-.1-4.6 1.3.5 3.2 1.3 5 2.5-1.7 1.5-3.2 3.3-3.9 5.4-1.2 3.7-.5 6.2.3 7.6.2.4.5.7.7 1-.8-.2-1.6-.7-2.3-1.3zm4.8 1.2c-.1 0-.1 0 0 0-.2-.1-3.8-2.3-1.8-8 1.4-4.2 6.6-7 9.6-8.3-.5 1.3-.9 3.2-.2 5.1.3.7.6 1.3.9 1.8.6 1.1 1.2 2 1.4 4.3.1 1.7-.3 3.1-1.3 4.2-1.1 1.2-3 1.9-5 1.9-1.5-.1-2.8-.4-3.6-1zm5 15.4c-1 0-1.7-.4-2-.7 0-.5 0-1.5.7-2.4 1-1.2 3.1-1.9 6.1-1.9h.9c-1.8 3.3-3.7 5-5.7 5zm-25.5-13h9.6v1.9h-9.6v-1.9z"/><path class="st0" d="M26.1 19H28v9.6h-1.9V19z"/></svg>