<svg id="Forma_1_1_" xmlns="http://www.w3.org/2000/svg" viewBox="0 0 82 113"><style>.st0{fill-rule:evenodd;clip-rule:evenodd;fill:#121212}</style><path class="st0" d="M81.5 39.8l-6-7.8 1.3-9.8c.1-1.1-.5-2.2-1.5-2.6l-9-3.8-3.7-9.1c-.4-1-1.5-1.7-2.6-1.5l-9.7 1.3-7.8-6c-.9-.7-2.1-.7-3 0l-7.8 6L22 5.2c-1.1-.1-2.2.5-2.6 1.5l-3.7 9.1-9 3.8c-1 .4-1.7 1.5-1.5 2.6L6.4 32 .5 39.8c-.7.9-.7 2.1 0 3l5.9 7.8-1.3 9.8c-.1 1.1.5 2.2 1.5 2.6l9 3.8 3.7 9.1c.3.8 1 1.4 1.9 1.5v33.1c0 .9.5 1.7 1.3 2.2.8.4 1.8.4 2.5-.1l16-10.1 15.9 10.2c.4.3.9.4 1.3.4s.8-.1 1.2-.3c.8-.4 1.3-1.3 1.3-2.2V77.4c.8-.1 1.5-.7 1.9-1.5l3.7-9.1 9-3.8c1-.4 1.7-1.5 1.5-2.6l-1.3-9.8 5.9-7.8c.8-.8.8-2.1.1-3zM55.7 106l-13.4-8.6c-.8-.5-1.8-.5-2.6 0L26.2 106V76.9l5.5-.7 7.8 6c.4.3 1 .5 1.5.5s1.1-.2 1.5-.5l7.8-6 5.5.7V106zM71 48.5c-.4.5-.6 1.2-.5 1.8l1.2 8.9-8.2 3.4c-.6.3-1.1.7-1.3 1.3l-3.4 8.3L50 71c-.6-.1-1.3.1-1.8.5L41 77l-7.1-5.5c-.4-.3-1-.5-1.5-.5h-.3l-8.8 1.2-3.4-8.2c-.3-.6-.7-1.1-1.3-1.4l-8.2-3.4 1.2-8.9c.1-.7-.1-1.3-.5-1.8l-5.4-7.1 5.4-7.1c.4-.5.6-1.2.5-1.8l-1.2-8.9 8.2-3.4c.6-.3 1.1-.7 1.3-1.4l3.4-8.3 8.8 1.2c.6.1 1.3-.1 1.8-.5L41 5.6l7.1 5.5c.5.4 1.2.6 1.8.5l8.8-1.2 3.4 8.3c.3.6.7 1.1 1.3 1.4l8.2 3.4-1.2 8.9c-.1.7.1 1.3.5 1.8l5.4 7.1-5.3 7.2zM25.9 25.3c.6 0 1.1-.2 1.6-.6 3.8-3.1 8.6-4.9 13.5-4.9 1.4 0 2.5-1.1 2.5-2.5s-1.1-2.5-2.5-2.5c-6.1 0-12 2.1-16.7 6-1.1.9-1.2 2.4-.3 3.5.5.6 1.2 1 1.9 1zm23.9-8.9c-1.3-.5-2.7.2-3.2 1.5s.2 2.7 1.5 3.2c8.5 3 14.2 11.2 14.2 20.3 0 11.9-9.6 21.5-21.3 21.5-11.8 0-21.3-9.7-21.3-21.5 0-4.2 1.2-8.3 3.5-11.8.8-1.1.4-2.7-.7-3.5-1.1-.8-2.7-.4-3.4.7-2.8 4.3-4.3 9.4-4.3 14.6C14.7 56 26.5 67.8 41 67.8s26.3-11.9 26.3-26.5c0-11.2-7-21.2-17.5-24.9z" id="Forma_1"/></svg>