<?xml version="1.0" encoding="utf-8"?>
<!-- Generator: Adobe Illustrator 20.1.0, SVG Export Plug-In . SVG Version: 6.00 Build 0)  -->
<svg version="1.1" id="Слой_1" xmlns="http://www.w3.org/2000/svg" xmlns:xlink="http://www.w3.org/1999/xlink" x="0px" y="0px"
	 viewBox="0 0 55.8 42.9" style="enable-background:new 0 0 55.8 42.9;" xml:space="preserve">
<style type="text/css">
	.st0{fill:#262C26;}
</style>
<path class="st0" d="M22.1,29.7c-0.1-0.3-0.4-0.4-0.7-0.4c-0.9-0.1-1.7-0.1-2.4-0.1c-3.1,0-5.5,0.7-6.9,1.9v-8c0.2,0,0.4,0,0.6,0
	c2.6,0,4.9-0.9,6.3-2.4c1.3-1.4,1.9-3.3,1.8-5.5c-0.2-2.6-0.9-3.9-1.6-5c-0.3-0.5-0.6-1-0.8-1.5c-1-2.9,1.1-5.6,1.1-5.7
	c0.2-0.3,0.2-0.7,0-1s-0.6-0.4-1-0.3c-0.1,0-1,0.3-2.3,0.9l-2.8-2.4C13.2,0,12.9-0.1,12.6,0c-4.1,1.1-6,2.2-6.7,2.7
	C5.7,2.6,3.9,2,3.5,1.9c-0.8-0.2-1-0.3-1.3-0.1C1.9,1.8,1.7,2,1.7,2.3s0,0.5,0.2,0.7c0,0,2,2.2,1.1,5C2.9,8.3,2.7,8.7,2.5,9.1
	C1.9,10.5,1,12.5,1,15.2c0,2.1,0.7,3.9,2.1,5.2c2.2,2.2,5.5,2.5,7.2,2.6v5.4c-1.4-1.4-3.8-2.1-7.1-2.1c-0.8,0-1.6,0-2.4,0.1
	c-0.3,0-0.6,0.2-0.7,0.4s-0.2,0.6,0,0.8c2.4,4.7,5,7.1,7.9,7.1l0,0c1,0,1.8-0.3,2.3-0.6V42c0,0.5,0.4,0.9,0.9,0.9s0.9-0.4,0.9-0.9
	v-5c0.6,0.3,1.3,0.5,2.2,0.5c2.9,0,5.6-2.4,7.9-7.1C22.2,30.2,22.2,29.9,22.1,29.7z M9.9,32.3c-0.3,0.2-1.1,0.7-2,0.7l0,0
	C6,33,4,31.3,2.2,28.1c0.3,0,0.6,0,0.9,0c3,0,5.1,0.7,6.1,1.9C9.9,30.8,9.9,31.8,9.9,32.3z M12.5,1.7l1.8,1.6
	c-1.1,0.5-2.3,1.2-3.4,2l0,0C9.9,4.6,8.8,4,7.8,3.5 M4.3,19.2c-1-1-1.6-2.3-1.6-4c0-2.3,0.8-4,1.4-5.4C4.3,9.4,4.5,9,4.6,8.6
	C5.2,6.8,4.9,5.2,4.5,4c1.3,0.5,3.2,1.3,5,2.5C7.8,8,6.3,9.8,5.6,11.9c-1.2,3.7-0.5,6.2,0.3,7.6c0.2,0.4,0.5,0.7,0.7,1
	C5.8,20.3,5,19.8,4.3,19.2z M9,20.4L9,20.4c-0.2-0.1-3.8-2.3-1.8-8c1.4-4.2,6.6-7,9.6-8.3c-0.5,1.3-0.9,3.2-0.2,5.1
	c0.3,0.7,0.6,1.3,0.9,1.8c0.6,1.1,1.2,2,1.4,4.3c0.1,1.7-0.3,3.1-1.3,4.2c-1.1,1.2-3,1.9-5,1.9C11.2,21.3,9.9,21,9,20.4z M14.1,35.8
	c-1,0-1.7-0.4-2-0.7c0-0.5,0-1.5,0.7-2.4c1-1.2,3.1-1.9,6.1-1.9c0.3,0,0.6,0,0.9,0C18,34.1,16.1,35.8,14.1,35.8z"/>
<path class="st0" d="M55.7,29.7c-0.1-0.3-0.4-0.4-0.7-0.4c-0.9-0.1-1.7-0.1-2.4-0.1c-3.1,0-5.5,0.7-6.9,1.9v-8c0.2,0,0.4,0,0.6,0
	c2.6,0,4.9-0.9,6.3-2.4c1.3-1.4,1.9-3.3,1.8-5.5c-0.2-2.6-0.9-3.9-1.6-5c-0.3-0.5-0.6-1-0.8-1.5c-1-2.9,1.1-5.6,1.1-5.7
	c0.2-0.3,0.2-0.7,0-1s-0.6-0.4-1-0.3c-0.1,0-1,0.3-2.3,0.9L47,0.2C46.8,0,46.5-0.1,46.2,0c-4.1,1.1-6,2.2-6.7,2.7
	c-0.2-0.1-2-0.7-2.4-0.8c-0.8-0.2-1-0.3-1.3-0.1c-0.3,0-0.5,0.2-0.5,0.5c0,0.3,0,0.5,0.2,0.7c0,0,2,2.2,1.1,5
	c-0.1,0.3-0.3,0.7-0.5,1.1c-0.6,1.4-1.5,3.4-1.5,6.1c0,2.1,0.7,3.9,2.1,5.2c2.2,2.2,5.5,2.5,7.2,2.6v5.4c-1.4-1.4-3.8-2.1-7.1-2.1
	c-0.8,0-1.6,0-2.4,0.1c-0.3,0-0.6,0.2-0.7,0.4c-0.1,0.2-0.2,0.6,0,0.8c2.4,4.7,5,7.1,7.9,7.1l0,0c1,0,1.8-0.3,2.3-0.6V42
	c0,0.5,0.4,0.9,0.9,0.9s0.9-0.4,0.9-0.9v-5c0.6,0.3,1.3,0.5,2.2,0.5c2.9,0,5.6-2.4,7.9-7.1C55.8,30.2,55.8,29.9,55.7,29.7z
	 M43.5,32.3c-0.3,0.2-1.1,0.7-2,0.7l0,0c-1.9,0-3.9-1.7-5.7-4.9c0.3,0,0.6,0,0.9,0c3,0,5.1,0.7,6.1,1.9
	C43.6,30.8,43.6,31.8,43.5,32.3z M46.2,1.7L48,3.3c-1.1,0.5-2.3,1.2-3.4,2l0,0c-1-0.7-2.1-1.3-3.1-1.8 M37.9,19.2
	c-1-1-1.6-2.3-1.6-4c0-2.3,0.8-4,1.4-5.4c0.2-0.4,0.4-0.8,0.5-1.2c0.6-1.8,0.3-3.4-0.1-4.6c1.3,0.5,3.2,1.3,5,2.5
	c-1.7,1.5-3.2,3.3-3.9,5.4c-1.2,3.7-0.5,6.2,0.3,7.6c0.2,0.4,0.5,0.7,0.7,1C39.4,20.3,38.6,19.8,37.9,19.2z M42.7,20.4
	C42.6,20.4,42.6,20.4,42.7,20.4c-0.2-0.1-3.8-2.3-1.8-8c1.4-4.2,6.6-7,9.6-8.3c-0.5,1.3-0.9,3.2-0.2,5.1c0.3,0.7,0.6,1.3,0.9,1.8
	c0.6,1.1,1.2,2,1.4,4.3c0.1,1.7-0.3,3.1-1.3,4.2c-1.1,1.2-3,1.9-5,1.9C44.8,21.3,43.5,21,42.7,20.4z M47.7,35.8c-1,0-1.7-0.4-2-0.7
	c0-0.5,0-1.5,0.7-2.4c1-1.2,3.1-1.9,6.1-1.9c0.3,0,0.6,0,0.9,0C51.6,34.1,49.7,35.8,47.7,35.8z"/>
<path class="st0" d="M22.2,22.8h9.6v1.9h-9.6V22.8z"/>
<path class="st0" d="M26.1,19H28v9.6h-1.9V19z"/>
</svg>
