<svg id="Слой_1" xmlns="http://www.w3.org/2000/svg" viewBox="0 0 43 44"><style>.st0{fill:#262c26}</style><path class="st0" d="M42.3 34.6c-1-1.2-2.6-1.4-3.5-1.2-1.5.3-3 1.4-3.6 1.9h-.7c.4-.4.7-.8 1.1-1.3 1-1.2 1.6-2.4 2.1-3.5h.4c2.3 0 4.1-2 4.1-4.4s-1.9-4.4-4.1-4.4c-.4 0-.8.1-1.1.2-1-1.4-2.3-2.5-3.9-3.3.7-1.5 1.1-3.2 1.1-4.9 0-1.3-.2-2.6-.7-3.8 2-.7 3.4-2.6 3.4-4.8 0-2.8-2.3-5.1-5.2-5.1-2 0-3.8 1.2-4.7 2.9-1.6-.8-3.5-1.2-5.5-1.2s-3.9.4-5.5 1.2C15.2 1.2 13.4 0 11.3 0 8.5 0 6.1 2.3 6.1 5.1c0 2.2 1.4 4.1 3.4 4.8-.4 1.2-.7 2.5-.7 3.8 0 1.7.4 3.4 1.1 4.9-1.6.7-3 1.9-3.9 3.3-.4-.1-.8-.2-1.1-.2-2.3 0-4.1 2-4.1 4.4s1.9 4.4 4.1 4.4h.4c.4 1.1 1.1 2.3 2.1 3.5.3.4.7.8 1.1 1.3h-.7c-.6-.5-2.1-1.6-3.6-1.9-.9-.2-2.6 0-3.5 1.2-.7.8-1.2 2.4.1 5.1C2.9 44.2 8.7 44 9.2 44h24.9c1.4 0 6.2-.3 8.1-4.3 1.3-2.7.8-4.3.1-5.1zm-4.3-11c1.2 0 2.2 1.1 2.2 2.5 0 1.3-.9 2.4-2 2.5.3-1.5.2-2.8 0-3.7-.1-.4-.2-.9-.4-1.3h.2zM4.8 24.9c-.2 1-.3 2.3 0 3.7-1.1-.1-2-1.2-2-2.5 0-1.4 1-2.5 2.2-2.5h.2c-.2.5-.3.9-.4 1.3zm1.9.4c.7-3.2 4-5.7 7.5-5.7 2.6 0 4.9 1.2 6.5 3.5.2.2.5.4.8.4s.6-.1.8-.4c1.6-2.2 4-3.5 6.5-3.5 3.6 0 6.8 2.4 7.5 5.7 1.2 5.5-4.3 11.6-14.8 16.4C11 36.9 5.5 30.8 6.7 25.3zm25-23.4c1.8 0 3.2 1.4 3.2 3.2 0 1.4-.9 2.6-2.3 3.1-.9-1.7-2.3-3.2-3.9-4.3.5-1.2 1.7-2 3-2zM21.5 3.6c5.9 0 10.7 4.6 10.7 10.2 0 1.5-.4 3-1 4.3-.8-.2-1.5-.3-2.3-.3-2.8 0-5.4 1.2-7.3 3.3-1.9-2.1-4.5-3.3-7.3-3.3-.8 0-1.6.1-2.3.3-.7-1.3-1-2.8-1-4.3-.2-5.7 4.6-10.2 10.5-10.2zM8.1 5.1c0-1.8 1.5-3.2 3.2-3.2 1.3 0 2.5.8 3 2-1.6 1.1-3 2.6-3.9 4.3C9 7.7 8.1 6.5 8.1 5.1zm1.1 37s-5 .3-6.6-3.2c-.7-1.5-.8-2.6-.3-3.2.4-.5 1.3-.6 1.6-.5 1.1.2 2.5 1.3 2.9 1.7.2.2.4.3.7.3h3c2 1.7 4.5 3.4 7.5 4.9H9.2zm31.2-3.2c-1.6 3.4-6.6 3.2-6.6 3.2H25c3-1.5 5.5-3.2 7.5-4.9h3.1c.2 0 .5-.1.7-.3.4-.4 1.8-1.5 2.9-1.7.4-.1 1.2 0 1.6.5.5.6.3 1.8-.4 3.2z"/><path class="st0" d="M21.5 18.6c3 0 5.4-2.1 5.4-4.6s-2.4-4.6-5.4-4.6-5.4 2.1-5.4 4.6 2.4 4.6 5.4 4.6zm0-7.3c1.9 0 3.5 1.2 3.5 2.7s-1.6 2.7-3.5 2.7S18 15.5 18 14s1.5-2.7 3.5-2.7zm-4.2-1c.3 0 .5-.1.7-.3s.3-.4.3-.7c0-.2-.1-.5-.3-.7-.2-.2-.4-.3-.7-.3-.3 0-.5.1-.7.3s-.3.4-.3.7c0 .2.1.5.3.7.2.2.4.3.7.3zm8.7 0c.3 0 .5-.1.7-.3.2-.2.3-.4.3-.7 0-.2-.1-.5-.3-.7-.2-.2-.4-.3-.7-.3s-.5.1-.7.3c-.2.2-.3.4-.3.7 0 .2.1.5.3.7s.4.3.7.3z"/></svg>