<svg id="Слой_1" xmlns="http://www.w3.org/2000/svg" viewBox="0 0 52 58"><style>.st0{fill:#262c26}</style><path class="st0" d="M21.6 30.9h.5c2.2 0 4.1-.7 5.4-2 1.1-1.2 1.6-2.7 1.5-4.6-.2-2.2-.8-3.2-1.3-4.2-.2-.4-.5-.8-.7-1.3-.9-2.4.9-4.7.9-4.7.2-.2.2-.6 0-.9-.2-.3-.5-.4-.9-.3-.1 0-.9.3-2 .7l-2.3-2c-.2-.2-.5-.2-.7-.2-3.5.9-5.1 1.8-5.7 2.3-.2-.1-1.7-.6-2.1-.7-.7-.2-.8-.2-1.1-.1-.2.1-.4.3-.4.5s0 .5.2.6c0 0 1.7 1.8.9 4.1-.1.3-.2.6-.4.9-.5 1.2-1.3 2.9-1.3 5.1 0 1.8.6 3.3 1.8 4.4 1.9 1.8 4.7 2.1 6.1 2.1m2.1-17.5l1.6 1.3c-.9.5-1.9 1-2.9 1.7-.9-.6-1.8-1.1-2.6-1.5m-3.1 13.1c-.9-.8-1.3-2-1.3-3.3 0-1.9.7-3.4 1.2-4.5.2-.4.3-.7.4-1 .5-1.5.3-2.9-.1-3.8 1.1.4 2.7 1.1 4.2 2.1-1.5 1.2-2.7 2.7-3.4 4.5-1 3.1-.4 5.2.3 6.4l.6.9c-.7-.4-1.3-.8-1.9-1.3zm4 1.1c0-.1 0-.1 0 0-.2-.1-3.2-1.9-1.6-6.7 1.2-3.5 5.6-5.8 8.2-6.9-.4 1.1-.7 2.6-.1 4.3.2.6.5 1.1.8 1.5.5.9 1 1.7 1.2 3.6.1 1.4-.3 2.6-1.1 3.5-1 1-2.5 1.6-4.3 1.6-1.2-.2-2.4-.5-3.1-.9z"/><path class="st0" d="M20.5 58c-8.4 0-15.3-6.4-15.3-14.2s6.9-14.2 15.3-14.2S35.8 36 35.8 43.8c0 3.3-1.3 6.6-3.6 9.1-.4.4-1.1.5-1.5.1-.5-.4-.5-1-.1-1.4 2-2.2 3.1-5 3.1-7.8 0-6.7-5.9-12.2-13.1-12.2S7.5 37.1 7.5 43.8 13.4 56 20.6 56c1.3 0 2.6-.2 3.8-.5.6-.2 1.2.1 1.4.7.2.5-.1 1.1-.7 1.3-1.6.3-3.1.5-4.6.5z"/><path class="st0" d="M36.7 58c-8.4 0-15.3-6.4-15.3-14.2 0-3.2 1.2-6.4 3.4-8.9.4-.4 1.1-.5 1.5-.2.5.3.5 1 .2 1.4-1.9 2.2-2.9 4.8-2.9 7.6 0 6.7 5.9 12.2 13.1 12.2s13.1-5.5 13.1-12.2-5.9-12.2-13.1-12.2c-1.4 0-2.8.2-4.1.6-.6.2-1.2-.1-1.4-.6s.1-1.1.7-1.3c1.5-.5 3.1-.7 4.8-.7 8.4 0 15.3 6.4 15.3 14.2C52 51.6 45.1 58 36.7 58zm1.4-45.8L35.7 15l1.3-3.4-2.8-2.4 3.5 1.3 2.4-2.8-1.2 3.4 2.8 2.3-3.6-1.2zM23.4 4.5L21 7.3l1.3-3.4-2.9-2.4 3.5 1.3L25.3 0l-1.2 3.4 2.8 2.3-3.5-1.2zM3.9 22.1l-2.4 2.8 1.3-3.4L0 19.1l3.5 1.2 2.4-2.8-1.2 3.4 2.8 2.3-3.6-1.1z"/></svg>