<svg id="call_1_" xmlns="http://www.w3.org/2000/svg" viewBox="0 0 25.92 35.06"><style>.st0{fill:#fff}</style><path class="st0" d="M20.62 21.36c-2.6-.6-5.2.4-6.8 2.3-3-2.5-5-6-5.7-9.9 2.7-.4 5-2.4 5.6-5.3.8-3.7-1.5-7.4-5.1-8.3-3.1-.7-6.3 1-7.6 3.9h-.1c-.1.3-.2.6-.2.9 0 .2-.1.3-.1.5v.2c-2.8 12.4 4.1 24.6 15.6 28.7.4.2.9.4 1.4.5.6.1 1.1.2 1.7.2.3 0 .6 0 1-.1l-.1-.2s.1 0 .1-.1c.5-.5.5-1.4 0-1.9l-.1-.1c-.4-.4-1-.5-1.5-.3v-.1c-.1 0-.3 0-.4-.1-.4-.1-.7-.2-1-.4-2.1-.7-3.7-1.6-4.8-2.4-.1-.1-.2-.1-.3-.2-.1 0-.1-.1-.2-.1-4.8-3.4-8.1-8.7-9.1-14.5-.2-.8-.7-3.9.2-8.1v-.3c.6-2.3 2.8-3.7 5-3.1 2.2.5 3.6 2.7 3.1 5-.5 2-2.3 3.3-4.3 3.2-.7-.1-1.4.3-1.5 1v.1c-.1.4 0 .8.2 1.1l-.2.2c.7 5 3.2 9.5 7.1 12.5l.3-.1c.1.2.2.4.3.5l.1.1c.5.5 1.4.5 1.9 0 .2-.2.2-.4.3-.6.8-1.6 2.7-2.5 4.5-2.1 2.2.5 3.6 2.7 3.1 4.9-.1.4-.3.8-.5 1.2l.1.1s-.1 0-.1.1c-.5.5-.5 1.3 0 1.8l.1.1c.4.4.9.5 1.4.3l.1.2c.8-.8 1.3-1.9 1.6-3.1.9-3.6-1.4-7.3-5.1-8.2z" id="call"/></svg>