<svg id="Forma_1_1_" xmlns="http://www.w3.org/2000/svg" viewBox="0 0 88 80"><style>.st0{fill:#121212}</style><path class="st0" d="M87.7 25.2L73 1.2C72.6.4 71.8 0 70.9 0H17.1c-.8 0-1.6.4-2.1 1.2L.4 25.2v.1c-.1.2-.2.4-.2.6v.1c-.2.1-.2.2-.2.4v.2c0 .2.1.4.1.6v.1l.3.6v.1L42 79.2c.1.1.2.3.4.4h.1c.2.1.4.3.6.3.2.1.4.1.5.1h.2c.2 0 .4 0 .6-.1h.1c.1 0 .1 0 .2-.1.1 0 .1 0 .2-.1.1 0 .1-.1.2-.1l.1-.1h.1l.3-.3.1-.1 41.6-51.2c.8-.8.9-1.9.4-2.7zM49.2 4.8L56.9 24H31.1l7.7-19.2h10.4zm-30.8 0h15.2L25.9 24H6.7L18.4 4.8zm-10.9 24h18.3l12 37.3L7.5 28.8zM44 69.7L30.8 28.8h26.4L44 69.7zm6.2-3.6l12-37.3h18.3L50.2 66.1zM62.1 24L54.4 4.8h15.2L81.3 24H62.1z" id="Forma_1"/></svg>