<?xml version="1.0" encoding="utf-8"?>
<!-- Generator: Adobe Illustrator 20.1.0, SVG Export Plug-In . SVG Version: 6.00 Build 0)  -->
<svg version="1.1" id="Forma_1_1_" xmlns="http://www.w3.org/2000/svg" xmlns:xlink="http://www.w3.org/1999/xlink" x="0px" y="0px"
	 viewBox="0 0 20.27 20.27" style="enable-background:new 0 0 20.27 20.27;" xml:space="preserve">
<style type="text/css">
	.st0{fill-rule:evenodd;clip-rule:evenodd;fill:#FFFFFF;}
</style>
<g id="Forma_1">
	<g>
		<path class="st0" d="M19.89,18.1l-6.1-6.1c0.88-1.24,1.41-2.76,1.41-4.4c0-4.2-3.4-7.6-7.6-7.6C3.4,0,0,3.4,0,7.6
			c0,4.2,3.4,7.6,7.6,7.6c1.64,0,3.15-0.52,4.4-1.41l6.1,6.1c0.25,0.25,0.57,0.37,0.9,0.37c0.32,0,0.65-0.12,0.9-0.37
			C20.39,19.4,20.39,18.6,19.89,18.1z M11.73,10.53l-0.5,0.7l-0.7,0.5c-0.86,0.61-1.88,0.94-2.93,0.94c-2.79,0-5.07-2.27-5.07-5.07
			c0-2.79,2.27-5.07,5.07-5.07c2.79,0,5.07,2.27,5.07,5.07C12.67,8.65,12.34,9.66,11.73,10.53z"/>
	</g>
</g>
</svg>
