<svg id="Forma_1_1_" xmlns="http://www.w3.org/2000/svg" viewBox="0 0 20.27 20.27"><style>.st0{fill-rule:evenodd;clip-rule:evenodd;fill:#fff}</style><path class="st0" d="M19.89 18.1l-6.1-6.1a7.59 7.59 0 0 0 1.41-4.4c0-4.2-3.4-7.6-7.6-7.6C3.4 0 0 3.4 0 7.6c0 4.2 3.4 7.6 7.6 7.6 1.64 0 3.15-.52 4.4-1.41l6.1 6.1c.25.25.57.37.9.37.32 0 .65-.12.9-.37.49-.49.49-1.29-.01-1.79zm-8.16-7.57l-.5.7-.7.5c-.86.61-1.88.94-2.93.94-2.79 0-5.07-2.27-5.07-5.07 0-2.79 2.27-5.07 5.07-5.07 2.79 0 5.07 2.27 5.07 5.07 0 1.05-.33 2.06-.94 2.93z" id="Forma_1"/></svg>