<svg xmlns="http://www.w3.org/2000/svg" viewBox="-269 2820.9 28.4 28.4"><path d="M-242.4 2833.6l-2.2-1.6-2.1-5.2c-.1-.2-.3-.3-.5-.3h-19.1c-.3 0-.5.2-.5.5v2c0 .3.2.5.5.5s.5-.2.5-.5v-1.5h14.7v10.1h-14.7v-2c0-.3-.2-.5-.5-.5s-.5.2-.5.5v2.5c0 .3.2.5.5.5h.2v1.8c0 .3.2.5.5.5h22.8c.3 0 .5-.2.5-.5v-6.4c.1-.2 0-.3-.1-.4zm-5.1-6.1l1.7 4.3h-4.3v-4.3h2.6zm-2.5 5.3h4.8l2 1.5v3.4h-6.8v-4.9zm-15 7.1v-1.3h21.8v1.3H-265z"/><path d="M-263.2 2831.4c0-.3-.2-.5-.5-.5h-4.8c-.3 0-.5.2-.5.5s.2.5.5.5h4.8c.3 0 .5-.2.5-.5zm-1.2 2.3c0-.3-.2-.5-.5-.5h-2.4c-.3 0-.5.2-.5.5s.2.5.5.5h2.4c.2 0 .5-.2.5-.5z"/><circle fill="#FFF" cx="-261.7" cy="2840.4" r="1.9"/><path d="M-261.7 2837.6c-1.5 0-2.8 1.3-2.8 2.8s1.3 2.8 2.8 2.8c1.5 0 2.8-1.3 2.8-2.8s-1.3-2.8-2.8-2.8zm0 4.6c-1 0-1.8-.8-1.8-1.8s.8-1.8 1.8-1.8 1.8.8 1.8 1.8-.8 1.8-1.8 1.8z"/><circle fill="#FFF" cx="-247" cy="2840.4" r="2.3"/><path d="M-247 2837.6c-1.5 0-2.8 1.3-2.8 2.8s1.3 2.8 2.8 2.8c1.5 0 2.8-1.3 2.8-2.8s-1.2-2.8-2.8-2.8zm0 4.6c-1 0-1.8-.8-1.8-1.8s.8-1.8 1.8-1.8 1.8.8 1.8 1.8-.8 1.8-1.8 1.8z"/></svg>