<svg id="Слой_1" xmlns="http://www.w3.org/2000/svg" viewBox="0 0 26.78 16.74"><style>.st0{fill:#121212}.st1{fill:#f5f5f5}</style><path class="st0" d="M26.58 7.1l-2.2-1.64L22.3.31a.502.502 0 0 0-.47-.31H2.78c-.28 0-.5.22-.5.5v1.98c0 .28.22.5.5.5s.5-.22.5-.5V1h14.69v10.13H3.28v-2c0-.28-.22-.5-.5-.5s-.5.22-.5.5v2.5c0 .28.22.5.5.5h.19v1.81c0 .28.22.5.5.5h22.81c.28 0 .5-.22.5-.5V7.5a.48.48 0 0 0-.2-.4zM21.5 1l1.73 4.28h-4.26V1h2.53zm-2.53 5.28h4.84l1.98 1.47v3.37h-6.81c-.01.01-.01-4.84-.01-4.84zm-15 7.16v-1.31h21.81v1.31H3.97z"/><path class="st0" d="M5.81 4.97c0-.28-.22-.5-.5-.5H.53c-.28 0-.5.22-.5.5s.22.5.5.5h4.78c.28 0 .5-.22.5-.5zM4.56 7.22c0-.28-.22-.5-.5-.5H1.63c-.28 0-.5.22-.5.5s.22.5.5.5h2.44c.27 0 .49-.22.49-.5z"/><circle class="st1" cx="7.28" cy="13.94" r="2.3"/><path class="st0" d="M7.28 16.74c-1.54 0-2.8-1.25-2.8-2.8s1.26-2.8 2.8-2.8 2.8 1.25 2.8 2.8-1.26 2.8-2.8 2.8zm0-4.6c-.99 0-1.8.81-1.8 1.8s.81 1.8 1.8 1.8 1.8-.81 1.8-1.8-.81-1.8-1.8-1.8z"/><circle class="st1" cx="22.02" cy="13.94" r="2.3"/><path class="st0" d="M22.02 16.74c-1.54 0-2.8-1.25-2.8-2.8s1.25-2.8 2.8-2.8 2.8 1.25 2.8 2.8-1.26 2.8-2.8 2.8zm0-4.6c-.99 0-1.8.81-1.8 1.8s.81 1.8 1.8 1.8 1.8-.81 1.8-1.8-.81-1.8-1.8-1.8z"/></svg>