<?xml version="1.0" encoding="utf-8"?>
<!-- Generator: Adobe Illustrator 20.1.0, SVG Export Plug-In . SVG Version: 6.00 Build 0)  -->
<svg version="1.1" id="Ellipse_2_copy_4_1_" xmlns="http://www.w3.org/2000/svg" xmlns:xlink="http://www.w3.org/1999/xlink"
	 x="0px" y="0px" viewBox="0 0 29.4 28.9" style="enable-background:new 0 0 29.4 28.9;" xml:space="preserve">
<style type="text/css">
	.st0{fill:none;stroke:#FFFFFF;stroke-width:2;stroke-miterlimit:100;}
	.st1{fill:#FFFFFF;}
	.st2{fill:#121212;}
</style>
<g id="Ellipse_2_copy_4">
	<g>
		<ellipse class="st0" cx="14.7" cy="14.5" rx="13.7" ry="13.5"/>
	</g>
</g>
<g>
	<path class="st1" d="M22.2,11.49c0,0-0.1-0.97-0.6-1.51c-0.6-0.54-1.2-0.65-1.5-0.65c-2.1-0.11-5.3-0.11-5.3-0.11l0,0
		c0,0-3.2,0-5.3,0.11c-0.3,0-0.9,0-1.5,0.65c-0.5,0.43-0.6,1.51-0.6,1.51s-0.3,1.29-0.3,2.59v1.08c0,1.19,0.2,2.48,0.2,2.48
		s0.1,0.97,0.6,1.51c0.6,0.54,1.3,0.54,1.7,0.65c1.2,0.11,5.2,0.11,5.2,0.11s3.2,0,5.3-0.11c0.3,0,0.9,0,1.5-0.65
		c0.5-0.43,0.6-1.51,0.6-1.51s0.2-1.19,0.2-2.48v-1.08C22.3,12.78,22.2,11.49,22.2,11.49z"/>
	<polygon class="st2" points="12.8,11.92 12.8,17.3 17.6,14.61 	"/>
</g>
</svg>
