<svg id="Ellipse_2_copy_4_1_" xmlns="http://www.w3.org/2000/svg" viewBox="0 0 29.4 28.9"><style>.st0{fill:none;stroke:#3d3f3c;stroke-width:2;stroke-miterlimit:100}.st1{fill:#3d3f3c}.st2{fill:#f1f1f1}</style><ellipse class="st0" cx="14.7" cy="14.5" rx="13.7" ry="13.5" id="Ellipse_2_copy_4"/><path class="st1" d="M22.2 11.49s-.1-.97-.6-1.51c-.6-.54-1.2-.65-1.5-.65-2.1-.11-5.3-.11-5.3-.11s-3.2 0-5.3.11c-.3 0-.9 0-1.5.65-.5.43-.6 1.51-.6 1.51s-.3 1.29-.3 2.59v1.08c0 1.19.2 2.48.2 2.48s.1.97.6 1.51c.6.54 1.3.54 1.7.65 1.2.11 5.2.11 5.2.11s3.2 0 5.3-.11c.3 0 .9 0 1.5-.65.5-.43.6-1.51.6-1.51s.2-1.19.2-2.48v-1.08l-.2-2.59z"/><path class="st2" d="M12.8 11.92v5.38l4.8-2.69z"/></svg>