<svg xmlns="http://www.w3.org/2000/svg" viewBox="0 0 369 192"><style>.st0{enable-background:new}.st1{fill-rule:evenodd;clip-rule:evenodd;fill:#0f0f0f}.st2,.st3{fill:#f5f5f5}.st3{fill-rule:evenodd;clip-rule:evenodd}</style><g id="Фигура_4_5_" class="st0"><path class="st1" d="M0 .01h369v191.98H0z" id="Фигура_4"/></g><g id="Фигура_4_копия_1_" class="st0"><g id="Фигура_4_копия"><path class="st1" d="M9.87 9.88h349.26v172.24H9.87z"/><path class="st2" d="M358.63 10.38v171.24H10.37V10.38h348.26m1-1H9.37v173.24h350.26V9.38z"/></g></g><g id="Фигура_4_4_" class="st0"><path class="st3" d="M315.03 125.09c-2.04-.54-2.4-2.41-2.88-4.25-2.39-9.2-4.82-18.39-7.18-27.6-.28-1.09-.68-1.39-1.65-1.37-2.85.07-5.71.03-8.56.03-1.85 0-2.07.21-2.39 2.18-.1.62.13 1.14.27 1.69 1.53 6.19 3.07 12.38 4.65 18.56.25.97.16 1.35-.83 1.29-1.19-.07-2.39.11-3.56-.05-1.44-.19-2.02.46-2.27 1.96-.17 1 .08 1.16.88 1.14 1.81-.05 3.62.06 5.42-.04 1.09-.06 1.73.23 1.83 1.52.02.31.13.61.2.92.58 2.41.58 2.41-1.27 3.84-.86.66-.77 1.7.18 2.22.49.27 1.01.26 1.53.26 4.56 0 9.13-.01 13.69.01.99 0 1.87-.22 2.63-.96v-.63c-.22-.25-.42-.65-.69-.72zM58.21 72.32c2.42-2.3 4.62-4.92 7.45-6.8-.59-.55-1.1-.32-1.61-.24-2.11.35-4.17 1.05-6.32 1.16-.63.03-1.65.23-1.69-.57-.04-.75.96-.8 1.62-.8 2.81-.02 5.59-.46 8.35-1 1.55-.3 3.07-.83 4.8-1.32-.34-.31-.44-.46-.56-.49-4.37-1.06-8.76-.99-13.17-.26-3.84.64-7 2.83-10.12 5.17-2.24 1.69-4.49 3.59-7.2 4.02-4.59.73-8.47 2.9-11.94 6.16-.14.13-.32.23-.47.34v.32c1.01.5 2.03.42 3.07.15 1.48-.38 3.02-.91 4.5-.4 4.28 1.46 8.45.66 12.65-.39 3.84-.96 7.68-2.24 10.64-5.05zm4.68 15.78c2.69-.59 4.65-2.17 5.96-4.89 1.32-2.74 2.74-5.43 4.39-7.94 3-4.56 6.98-7.2 12.1-7.65 3.77-.33 7.34.85 10.95 1.74 3.01.74 5.88 2.12 9 2.32 8.56.54 14.57-4.09 19.09-11.67.38-.64 1.14-1.36.37-2.23-.75-.86-1.71-.93-2.64-.49-.6.29-1.12.79-1.64 1.24-2.41 2.12-5.17 3.06-8.23 2.99-2.35-.06-4.61-.67-6.86-1.37-4.8-1.48-9.64-2.56-14.63-1.42-3.08.7-5.83 2.59-8.93 3.21-3.19.64-5.88 2.26-8.24 4.69-1.67 1.71-3.74 2.69-5.94 3.27-.47.13-1 .39-1.62-.41 3.08-1.59 6.08-3.18 8.51-6.04-4-.36-7.05 1.44-9.83 3.99-3.38 3.1-5.86 7.03-8.21 11.07-1.15 1.99-2.19 4.3-4.34 5.07-3.85 1.38-4.71 5.06-6.16 8.65.83.13 1.15-.23 1.5-.48 2.63-1.86 5.45-2.94 8.63-2.67 2.32.21 4.53-.48 6.77-.98zm121.83-27.56c-1.04-.08-2.12.14-3.13-.05-1.65-.3-2.15.61-2.4 2.16-.11.72-.02.94.63.93 1.52-.03 3.05-.01 4.57-.01 2.56 0 2.5.02 3.25 2.73.45 1.63.47 2.89-1.27 3.49-.5.17-.76.63-.69 1.24.07.59.43.95.92 1.07.46.12.93.19 1.4.19 2.28.02 4.57.01 6.85.01 2.28 0 4.57.01 6.85-.01.47 0 .95-.05 1.41-.17.53-.13.98-.42 1-1.14.02-.64-.33-1.05-.8-1.17-1.63-.42-2-1.85-2.4-3.36-2.45-9.46-4.93-18.91-7.39-28.36-.19-.73-.32-1.33-1.25-1.31-3.28.07-6.56.05-9.84.01-.65-.01-.91.26-1.11.9-.32 1.02-.38 1.98-.1 3.06 1.56 6.07 3.01 12.18 4.61 18.24.38 1.44-.01 1.63-1.11 1.55zm67.6-4.47c1.48 1.26 3.12 2.21 4.87 2.94 2.09.87 4.19 1.71 6.27 2.6.88.38 1.75.82 2.51 1.48 2.12 1.87 1.89 4.67-.53 5.99-.67.37-1.44.53-2.15.82-1.2.5-.49 1.64-.59 2.47-.1.87.62.63 1.03.59 3.32-.3 6.47-1.2 9.2-3.43 5.66-4.62 5.66-12.58.04-17.24-1.74-1.44-3.75-2.25-5.75-3.09-2.26-.94-4.61-1.67-6.73-3.01-1.3-.82-2.32-1.93-2.14-3.77.16-1.71 1.3-2.52 2.62-2.98.83-.29 1.2-.74 1.01-1.71-.11-.64.42-1.68-.9-1.57-3.14.26-6.11 1.07-8.67 3.2-5.1 4.27-5.15 12.39-.09 16.71zm-37.12.39c1.37 1.07 2.85 1.9 4.41 2.55 2.09.87 4.19 1.7 6.27 2.6 1.02.44 2.02.93 2.83 1.79 1.63 1.72 1.4 4.16-.52 5.46-.74.5-1.57.73-2.39 1-1.26.42-.56 1.6-.65 2.43-.11.99.67.69 1.12.65 3.02-.28 5.92-1.08 8.47-2.97 2.93-2.17 4.76-5.1 4.84-10.39.05-1.46-.87-3.7-2.5-5.63-1.46-1.72-3.22-2.95-5.2-3.8-2.44-1.04-4.89-2.03-7.32-3.09-.79-.35-1.57-.77-2.26-1.32-2.35-1.88-2.07-4.75.55-6.08.3-.15.62-.26.93-.4 1.18-.53.48-1.65.56-2.48.09-1-.72-.59-1.15-.56-2.6.16-5.07.88-7.32 2.36-6.28 4.11-6.61 13.23-.67 17.88zm72.63-16.81c1.11.24 1.44.96 1.44 2.13-.02 8.48-.02 16.97 0 25.45 0 1.24-.32 2.02-1.5 2.24-.75.14-1.44.54-1.37 1.5.08 1.07.94 1.29 1.7 1.3 5.04.04 10.08.04 15.12 0 .75-.01 1.59-.17 1.69-1.29.09-1.04-.63-1.34-1.35-1.51-1.04-.25-1.54-.87-1.54-2.08.01-8.59.01-17.18.01-25.77 0-1.02.36-1.69 1.32-1.93.79-.2 1.71-.44 1.54-1.66-.17-1.27-1.18-1.2-2.02-1.21-2.33-.03-4.66-.01-6.99-.01v.01c-2.57 0-5.13-.01-7.7.01-.79.01-1.63.16-1.77 1.2-.15 1.09.66 1.46 1.42 1.62zM137.44 124.5c-1.55-.2-2-1.17-1.97-2.82.07-4.64.03-9.27.03-13.91 0-4.85-.01-9.69.01-14.54 0-.83-.02-1.38-1.02-1.36-4.28.06-8.56.02-12.83.03-.78 0-1.62.1-1.78 1.16-.17 1.1.62 1.48 1.39 1.64 1.19.25 1.48 1.05 1.48 2.27-.02 8.43-.03 16.86 0 25.29 0 1.24-.35 2.01-1.5 2.26-.73.16-1.44.48-1.39 1.49.06 1.13.93 1.31 1.67 1.31 5.23.04 10.46.04 15.68-.01.79-.01 1.73-.2 1.79-1.38.05-1.1-.79-1.33-1.56-1.43zm116.66.19c-.31-.13-.64-.21-.97-.26-1.27-.18-1.73-.96-1.71-2.38.06-4.74.02-9.49.02-14.23V93.11c0-.65.08-1.24-.82-1.24-4.42.04-8.85.01-13.27.04-.73 0-1.48.21-1.57 1.23-.08.92.52 1.36 1.2 1.49 1.38.26 1.69 1.18 1.68 2.59-.04 8.01-.04 16.02 0 24.03.01 1.72-.06 3.17-2 3.45-.54.08-.9.56-.9 1.25 0 .79.48 1.11 1.07 1.25.41.1.84.17 1.27.17 4.76.01 9.51.02 14.27 0 .56 0 1.14-.11 1.68-.28.53-.16.92-.55.89-1.25-.02-.62-.37-.95-.84-1.15zm-77.13-31.38c-.04-1.19-.94-1.38-1.76-1.39-5.28-.03-10.56-.02-15.84 0-.74 0-1.47.24-1.55 1.26-.07.94.55 1.34 1.23 1.47 1.39.26 1.67 1.21 1.66 2.61-.04 7.96-.05 15.92 0 23.89.01 1.76.02 3.3-2.03 3.59-.54.08-.89.6-.87 1.28.02.7.43 1.05.97 1.18.51.12 1.03.19 1.55.2 1.95.02 3.9.01 5.85.01 1.81 0 3.62.01 5.42 0 2.1-.02 1.85.29 1.85-1.98.01-9.33.02-18.67-.02-28-.01-1.58.41-2.51 1.94-2.67.76-.1 1.64-.33 1.6-1.45zm-47.95-23.68c-.6.09-.98.61-.95 1.37.04.81.57 1.05 1.14 1.19.46.11.94.12 1.41.12 4.61.01 9.22.01 13.83 0 .33 0 .67.03 1-.04.8-.15 1.74-.25 1.78-1.42.03-1.08-.81-1.33-1.59-1.42-1.57-.19-2-1.21-1.98-2.82.05-4.64.02-9.27.02-13.91 0-4.85.01-9.69-.01-14.54 0-.56.27-1.34-.71-1.34-4.47.02-8.94.01-13.4.04-.69.01-1.36.25-1.46 1.18-.1.92.44 1.39 1.15 1.52 1.45.26 1.76 1.24 1.75 2.71-.04 8.01-.04 16.02 0 24.02 0 1.69-.1 3.06-1.98 3.34zm142.15 51.86c-.19.16-.35.35-.52.53-.25.28-.54.46-.89.31-.39-.16-.37-.58-.37-.94-.01-1.58-.01-3.16 0-4.74 0-1.96-.78-3.43-2.24-4.48a9.624 9.624 0 0 0-3.54-1.58c-.87-.2-1.74-.38-2.88-.63 1.58-.59 2.9-.98 4.14-1.56 3.19-1.49 4.78-4.25 4.67-7.88-.11-3.46-2.12-6.1-5.78-7.56-2.78-1.11-5.7-1.08-8.59-1.04-.49.01-1.41-.52-1.41.65 0 .92-.51 2.06.92 2.55 1.8.61 2.23 1.44 2.24 3.51.02 2.27.02 4.53 0 6.8-.02 2.02-.52 2.83-2.24 3.27-.8.21-1.01.62-.92 1.41.08.71-.29 1.51.82 1.83 1.76.51 2.33 1.54 2.35 3.6.01 1.79-.02 3.58.01 5.37.05 3.13 1.53 5.43 4.19 6.47 2.21.86 4.48.87 6.75.36 2.35-.52 4.19-1.92 5.52-4.13.42-.69.61-1.45-.12-2.12-.73-.64-1.42-.6-2.11 0zm-62.72 3.65c-2.17-.83-2.26-2.75-2.27-4.73-.02-7.38.01-14.75-.02-22.13 0-1.89.38-3.4 2.18-4.14 1.06-.43.52-1.56.51-2.36 0-.96-.78-.52-1.21-.5-8.69.48-15.01 8.24-15.01 18.37 0 10.12 5.97 17.37 15.11 18.3.39.04 1.12.44 1.11-.42-.01-.8.59-2.01-.4-2.39zm3.93-33.86c-.37-.02-1.13-.52-1.11.36.01.83-.61 2.03.5 2.5 1.78.75 2.21 2.24 2.21 4.13-.02 7.33 0 14.65-.01 21.98 0 .52-.06 1.05-.1 1.57-.12 1.54-.69 2.67-2.09 3.25-1.14.48-.48 1.64-.51 2.47-.03.86.72.45 1.1.41 9.17-.95 15.14-8.16 15.15-18.27.01-10.19-6.26-17.83-15.14-18.4zm-65.26-51.37c1.68.43 2.17 1.38 2.19 3.36.02 2.68-.02 5.37.01 8.05.03 2.19-.41 3.93-2.66 4.53-1.1.29-.35 1.43-.52 2.16-.12.55.23.72.68.71 3.33-.08 6.65-.21 9.73-1.87 3.61-1.94 5.4-5.12 5.31-9.6-.08-4.3-2.18-7.03-5.53-8.78-2.41-1.27-5.02-1.46-7.82-1.64-.2 0-.59-.07-.96.02-.51.12-1.41-.52-1.44.62 0 .9-.51 2.05 1.01 2.44zM98.25 71.58c-3.37-1.54-6.84-2.56-10.29-2.69-5.82-.05-10.85 2.82-13.74 7.65-.48.81-.63 1.38.07 2.16.9 1.01 1.71 2.13 2.49 3.26.45.65.81.66 1.4.21 1.52-1.18 3.12-2.23 4.61-3.44 1.18-.95 2.17-2.72 3.41-2.93 1.24-.21 2.67 1.13 4.05 1.65 3.43 1.3 7.14-.63 8.57-4.32.32-.85.17-1.21-.57-1.55zM87.3 77.05c-.38-.28-.63-.29-.98.06-2.32 2.38-5.01 4.17-7.84 5.7-.7.38-.63.74-.21 1.29.83 1.09 1.9 1.82 3.12 2.08 4.77 1.01 9.29.19 13.36-2.78 2.16-1.58 3.39-3.9 3.54-7.17-3.68 3.2-7.28 3.6-10.99.82zm82.47-4.76c2.66.04 5.32.04 7.98 0 .72-.01 1.52-.17 1.65-1.15.13-1-.62-1.3-1.29-1.61-2.4-1.09-2.7-1.81-1.86-4.6 1.5-4.99 3-9.98 4.51-14.96.19-.61.37-1.19.18-1.84-.41-1.45-.81-2.9-1.22-4.4-.5.51-.54 1.17-.72 1.76-1.94 6.38-3.88 12.76-5.78 19.15-.68 2.27-1.77 4.05-3.94 4.81-.7.25-1.64.46-1.44 1.59.19 1.08 1.11 1.24 1.93 1.25zm119.57 52.23c-2.14-.95-2.5-1.84-1.77-4.28 1.31-4.34 2.42-8.78 4-12.99 1.15-3.07.53-5.69-.56-8.52-.17.53-.32.96-.45 1.41-1.98 6.53-3.99 13.06-5.93 19.61-.7 2.35-1.87 4.12-4.1 4.83-.23.07-.45.19-.65.32-.38.25-.71.55-.67 1.11.04.53.36.88.78 1.04.44.17.92.33 1.38.33 2.52.03 5.04.04 7.56 0 .8-.01 1.76-.05 1.9-1.22.1-1.09-.78-1.33-1.49-1.64zm-78.35-53.85c.01.76.2 1.5.89 1.85.73.37 1.42.16 1.94-.48.87-1.06 1.86-1.09 2.98-.6 1.55.67 3.11 1.31 4.78 1.47.45.05 1.33.57 1.31-.52-.02-.88.69-2.17-.82-2.56-2.28-.59-3.96-2.17-5.41-4.12-1.13-1.52-1.94-3.24-2.5-5.1-.3-1-.86-1.5-1.81-1.31-.94.19-1.36.88-1.36 1.9-.01 1.53 0 3.05 0 4.58h.01c-.02 1.62-.04 3.25-.01 4.89zm37.61-.21c0 .89.15 1.72.98 2.09.75.33 1.39.02 1.92-.6.79-.93 1.69-1.02 2.73-.59 1.55.65 3.11 1.32 4.77 1.51.51.06 1.43.61 1.49-.46.05-.91.7-2.27-.92-2.64-1.57-.35-2.86-1.35-4.03-2.55-1.74-1.79-2.96-3.96-3.71-6.45-.31-1.01-.78-1.69-1.85-1.5-1.13.2-1.4 1.07-1.39 2.19.02 1.47.01 2.95.01 4.42v4.58zm-21.13-31.15c3.81 1.12 6.25 3.84 7.39 7.99.3 1.1.96 1.58 1.91 1.46 1.07-.13 1.54-.91 1.52-2.09-.02-1.37-.01-2.74-.01-4.11s.02-2.74-.01-4.11c-.02-.8-.09-1.61-.9-1.98-.85-.39-1.5.02-1.98.75-.63.95-1.4.93-2.27.57-1.65-.68-3.34-1.25-5.1-1.43-.45-.05-1.33-.59-1.32.5.02.82-.64 2.04.77 2.45zm-41.49 75.85c-.62-.23-1.25-.2-1.71.37-.28.34-.49.78-.64 1.22-1.31 3.83-3.22 6.89-7.24 7.62-1.14.21-.44 1.5-.57 2.29-.13.83.48.73.94.73h4.42c1.57 0 3.14-.02 4.71.01.61.01.84-.2.84-.89-.02-3.32-.02-6.64-.01-9.96 0-.65-.16-1.18-.74-1.39zm79.68-75.65c1.02.18 1.95.8 2.81 1.48 2 1.59 3.35 3.69 4.01 6.32.28 1.09.97 1.57 1.92 1.44.99-.13 1.47-.81 1.43-1.97-.04-1.42-.01-2.84-.01-4.26 0-1.47.01-2.95 0-4.42 0-.72-.15-1.36-.85-1.66-.72-.31-1.36-.09-1.78.55-.76 1.19-1.66 1.12-2.75.67-1.64-.68-3.34-1.15-5.1-1.39-.81-.11-1.05.15-1.08 1.07-.04 1.21.15 1.94 1.4 2.17zM148.55 91.88c-1.52.03-3.04.01-4.57.01h-4.85c-.58 0-1.25-.08-1.09.91.13.8-.59 2.05.84 2.24 3.78.5 6.44 2.61 7.85 6.59.3.85.97 1.11 1.76.94.79-.17 1.07-.76 1.06-1.61-.01-2.69-.03-5.38.01-8.07.04-.92-.34-1.03-1.01-1.01zm-3.88 12.1c0-.94-.31-1.66-1.24-1.8-.86-.12-1.54.26-1.76 1.21-.45 1.99-1.49 3.36-3.22 4.11-1.03.45-.49 1.44-.57 2.2-.05.47-.19 1.04.5 1.26 1.78.56 2.69 2.04 3.21 3.89.31 1.1.92 1.71 2.01 1.49 1.09-.22 1.04-1.22 1.06-2.1.03-1.63.01-3.26.01-4.89v-5.37zM83.8 53.42c.97-2.97 1.4-6.23 3.22-9.04.46.94.12 1.57-.09 2.18-.71 2.06-1.48 4.1-2.19 6.17-.16.46-.61 1.1-.08 1.41.64.38.83-.49 1.11-.91.59-.9.92-1.95 1.26-3 .51-1.59 1.12-3.13 2-4.52.25-.39.48-1.05 1.09-.61.51.37.42.98.14 1.41-1.54 2.35-1.93 5.39-3.72 7.6-.23.29-.66.61-.42 1.07.26.5.74.6 1.24.4 1.72-2.36 3.42-4.74 5.16-7.08.52-.69 1.25-1.9 1.98-1.18.81.8-.36 1.58-.84 2.27-1.7 2.47-3.67 4.63-6.08 6.25-.01.32.1.53.41.4 2.79-1.18 5.59-2.36 8.37-3.57.84-.37.96-1.05.31-1.7-1.48-1.47-1.2-3.03-.33-4.68.24-.46.78-1.02.08-1.47-.62-.4-.91.24-1.22.71-.27.4-.46.95-1.11.56-1.42-.86-2.48-3.83-1.89-5.47.2-.55.47-1.1.02-1.61-.48-.52-.98-.17-1.44.09-3.07 1.73-5.48 4.13-6.58 7.9-.41 1.4-.86 2.79-1.4 4.13-.51 1.24-.32 1.99 1 2.29zm-11.69 5.69c.22-.4-.02-.67-.31-.91-1.77-1.45-3.22-3.26-4.77-4.97-.23-.26-.46-.54-.88-.59-.19-.01-.42.06-.49.37-.12.48.18.79.44 1.09 1.59 1.82 3.41 3.34 5.2 4.9.23.19.52.64.81.11zm.64-1.55c.12-.14.19-.36.3-.57-.12-.17-.23-.34-.35-.49-.92-1.28-1.82-2.56-2.75-3.82-.22-.3-.46-.82-.9-.46-.35.29-.23.77-.03 1.16.81 1.57 1.95 2.84 3.14 4.05.15.14.35.4.59.13zM49.07 39.57c1.73 1.3 4.91 1.08 6.33-.71.97-1.23 1.89-1.41 3.24-.98 2.49.78 4.96 1.16 6.89-1.55.59-.83 1.2-.51 1.66.4.71 1.4.87 3 1.4 4.47.59 1.64.45 1.92-1.09 2.19-1.15.2-2.26.39-2.78 1.81-.16.45-.51.53-.93.22-1.07-.77-2.1-.28-3.1.23-.34.17-.78.39-.7.88.06.38.48.45.81.53 1.35.33 2.63.89 3.89 1.49 1.18.56 2.42.58 3.59-.1.84-.49.87-1.09-.03-1.56-.55-.29-1.16-.44-1.74-.67-.34-.14-.82-.16-.86-.68-.04-.57.39-.83.79-1 1.35-.58 2.76-.73 3.93.34 1.16 1.07 2.35 2.14 3.27 3.51 2.33 3.45 2.41 5.23.36 8.9-.6 1.07-1.22 2.14-1.3 3.46-.06.99.15 1.6 1.23 1.57 4.49-.1 8.68-1.58 12.77-3.46.74-.34.76-.82.2-1.42-1.7-1.8-3.5-3.32-5.87-3.99-2.63-.74-4.68-2.31-5.09-5.63-.06-.5-.27-1.01-.51-1.46-.88-1.67-.91-1.71.87-2.27 2.09-.65 4.03-1.56 5.54-3.37.35-.41.64-.82.38-1.39-.29-.65-.79-.45-1.24-.29-1.04.38-2.09.69-3.2.68-1.17-.02-2.13.47-2.77 1.6-.06.3-.24.79-.15.86.88.71.32 1.28-.14 1.77-.7.73-1.69 1.11-2.49.68-.82-.44-.23-1.21.29-1.57.77-.52 1.6-.93 2.15-1.77 0-1.18-.93-1.5-1.58-2.06-1.27-1.1-2.6-2.12-3.89-3.2-.26-.21-.56-.54-.41-.93.14-.38.55-.36.88-.36.24 0 .49-.04.71.04 3.03 1.07 4.87-.67 6.36-3.27.31-.54.63-1.05 1.18-1.34.51-.26.88-.16.82.53-.08.83-.21 1.62.79 1.85.99.24 1.78-.11 2.31-1.08.47-.86.92-1.72 1.36-2.6.84-1.68.78-1.86-.7-2.75h-1.14c-.75.64-1.54 1.23-1.8 2.35-.07.29-.28.61-.62.51-1.54-.44-2.33.71-2.97 1.87-1.44 2.61-3.38 3.54-6.05 2.64-.67-.23-1.42-.27-1.81.71-.38.96-.88.89-1.27.01-.43-.96-1.16-1.32-2.05-1.48-1.17-.2-2.34-.44-3.51-.66-.87-.16-1.04-.9-.97-1.66.09-.98.77-.4 1.21-.42.18-.01.37.12.55.14.74.08 1.32-.23 1.59-1.02.28-.84-.08-1.4-.74-1.81-1.21-.75-2.54-.84-3.87-.82-.92.02-1.02.94-1.2 1.7-.17.74.19 1.13.78 1.22.73.11.83.63.72 1.24-.28 1.6.52 2.19 1.76 2.41 1.12.2 2.25.38 3.37.62.88.19 1.13.79.54 1.58-.97 1.34-2.03 2.46-3.82 2.29-1.02-.1-1.95-.47-2.9-.76-.82-.26-1.56-.45-2.25.3-.5.53-.74.16-1.09-.32-.89-1.23-2.27-1.16-3.14.08-.39.57-.85.8-1.49.53-.54-.23-1.24.34-1.44.86-.24.58-.35.93.18 1.34zm32.45 12.86c.3-.01.37-.25.39-.53.16-2.1-.15-4.13-.78-6.13-.61 2.11.1 4.24-.18 6.34-.03.25.32.33.57.32zm-23.55 4c.33.07.66.12.98.21 3.71.93 7.14 2.85 10.85 3.8.58.15 1.14.35 2.05.02-2-1.15-3.92-1.9-5.44-3.22-2.98-2.59-6.31-2.91-9.83-2.64-.71.05-1.43.05-2.14.1-1.48.1-2.72-.37-3.55-1.82-.65-1.14-1.23-.75-1.68.15-.25.49-.38 1.08-.44 1.64-.33 3.02 1.17 5.2 2.8 7.3.33.43.79.49 1.3.29 4.01-1.58 8.18-1.73 12.37-1.59.64.37 1.34.27 2.02.32.36.29.79.26 1.2.29.37.36.77.39 1.38.09l-1.14-.38c-.37-.11-.74-.22-1.1-.32-.38-.11-.76-.21-1.14-.32-3.02-1.21-6.17-2.03-9.07-3.61-.23-.07-.57-.3-.41-.46.27-.29.68-.16.99.15zm153.24 25.8c8.31-2.71 16.54-2.96 24.88-.45 5.56 1.67 11.19 2.97 16.97 3.15 5.9.19 11.48-1.51 17-3.56 4.5-1.67 8.94-3.6 13.66-4.43 7.01-1.22 13.53-.01 19.26 4.98 2.25 1.96 3.78 4.39 4.47 7.49.45 2.04.89 4.1 1.74 6 .17.6.32 1.21 1.03 1.49l-.76-1.82c-.44-1.99-.95-3.97-1.32-5.97-.6-3.24-2.1-5.82-4.39-7.91-5.54-5.04-12-6.27-18.9-5.55-4.87.51-9.42 2.42-14.01 4.13-6.19 2.3-12.42 4.35-19.07 3.89-5.05-.35-9.99-1.41-14.84-2.93-8.88-2.78-17.7-2.84-26.54.24-4.26 1.48-8.57 2.75-12.86 4.13-4.64 1.48-9.33 2.62-14.19 1.72-4.64-.86-9.1-2.59-13.67-3.83-.33-.09-.57-.28-.73-.67-.52-1.25-.94-2.22-2.48-2.81-1.83-.7-3.7-1.88-5.33-3.25-1.57-1.32-3.07-2.73-3.91-4.98 2.69.85 4.27.58 5.47-.83 1.19-1.4.81-3.03-.87-3.45-1.48-.37-3.04-.31-4.22.81-1.16 1.1-1.41.38-1.78-.67-.36-1.01-.02-1.78.63-2.38 1.09-1.01 2.24-1.95 3.36-2.93.58-.33 1.1-.72 1.56-1.69-.89.38-1.42.83-1.9 1.37-1.34.81-2.64 1.68-3.77 2.83-.65.66-1.31 1.53-.93 2.48.84 2.05 1.18 4.3 2.11 6.27 1.01 2.14 2.74 3.61 4.55 4.93 1.25.91 2.23 2.1 3.52 3.61-.79-.16-1.11-.21-1.43-.29-4.18-1.04-8.41-1.74-12.69-2.02-11.01-.72-21.84.51-32.47 3.84-1.2.38-2.35.81-3.58.13-.63-.35-1.29-.02-1.73.42-1.34 1.34-2.53.69-3.67-.26a23.11 23.11 0 0 1-2.47-2.38c-1.93-2.22-4.31-3.6-6.85-4.71-.33-.14-.65-.49-.94.13-.79 1.68-.33 3.16 1.3 3.78 2.49.94 4.86 2.04 6.79 4.15 1.05 1.15 2.45 1.8 3.92 2.13.51.12 1.1.04.98.95-.11.81-.57 1.07-1.22.94-.93-.18-1.85-.51-2.79-.61-6.33-.64-11.84 1.2-16.1 6.7-.43.56-.96 1.02-1.4 1.57-1.42 1.8-3.08 2.01-4.99 1.06-.64-.32-1.35-.51-2.05-.65-3-.6-5.94-.79-8.66 1.23-3.03 2.25-4.78 5.97-7.82 8.21-.36.27-.54.79-.29 1.27.24.46.69.53 1.14.43.37-.09.73-.22 1.09-.35 1.55-.55 3.11-.93 4.76-.52 1.39.35 2.51-.34 3.46-1.39.9-.99 1.97-1.65 3.15-2.09 1.14-.42 2.14-.47 2.7 1.07.64 1.77.54 2.24-.94 3.22-.41.27-.83.51-1.25.76-2.41 1.46-3.06 2.82-2.65 5.8.66 4.75 1.95 9.33 3.1 13.95.17.69.56 1.13 1.21 1.12.61-.01 1.11-.35 1.29-1.04.14-.5.22-1.03.29-1.54.47-3.26 1.91-5.79 4.51-7.49 1.35-.88 2.7-1.77 4-2.75 1.62-1.22 1.66-1.65.57-3.39-1.67-2.67-1.4-5.13.79-7.3.92-.91 1.69-.77 2.4.28.93 1.37 1.32 2.88 1.19 4.6-.16 2.13-.13 2.26 1.75 2.19 1.99-.08 3.4.85 4.41 2.61.51.87 1.01 1.41 1.94.81.92-.59 1.61-1.76 1.12-2.61-1.38-2.42-.93-4.85-.53-7.34.12-.73.02-1.49-.65-1.76-1.8-.73-2.85-2.4-4.12-3.8-1.05-1.16-2.24-1.99-3.81-1.69-1.61.3-3.23.18-4.84.26-1.24.06-2.29-.34-3.32-1.26 1.49-1.25 2.78-2.62 3.94-4.16 1.12-1.48 2.57-2.47 4.21-3.15 3.95-1.63 7.9-2.58 12.09-.9 1.79.71 3.38.3 4.9-1.39.95-1.05 1.63-2.59 3.14-3.07 10.31-3.3 20.81-5.02 31.55-4.37 5.48.33 11.04.46 16.15 3.25.43.24 1.03.22 1.54.15 1.07-.14 2.08.07 3.09.37 2.66.8 5.34 1.51 7.98 2.38 5.02 1.64 10.07 2.02 15.21.77 6.1-1.49 11.94-3.73 17.86-5.66zM159.2 68.11c.09-.04.17-.09.27-.1.88-.15 1.78-.37 2.58.3.3.26.28.64.09.99-.55 1.04-1.42 1.46-2.43 1.53-.91-.04-2.02-.2-2.17-1.13-.15-.9.93-1.26 1.66-1.59zm-73.86 40.11a7.12 7.12 0 0 1-1.44 3.35c-.5 1.04-1.09 1.99-2.25 2.35.64-.92 1.28-1.83 1.92-2.75 1.03-2.06 1.08-4.43 1.72-6.61.49-1.64.88-3.33 1.75-4.79.29-.49.55-1.08 1.13-1.28.1.18.19.31.17.34-1.77 2.82-2.47 6.07-3 9.39zm-14.73 13.93c-.36.08-.58.09-.7-.45-.5-2.17-2.14-3.11-4.03-2.38-.66.25-1.24.65-1.31 1.49-.06.76.41 1.24.92 1.67.75.63 1.69.49 2.84.72-3.02 3.24-11.65 2.62-12.54 2.61-.03 0-.05.01-.08.02-.28.03-.6.12-.53.39.1.4.43.18.63-.08v-.01c1.78-.06 8.6.02 10.15-.28.68-.13 1.42-.29 1.81-.83 1.3-1.86 3.2-2.21 5.04-2.76.18-.05.34-.19.51-.29.45-.13.91-.25 1.15-.93-.64.07-1.08.28-1.48.61-.79.17-1.59.33-2.38.5zm-2.74.09c-.85-.19-2-.11-2.11-1.37-.06-.66.81-.78 1.38-.7.74.09 1.59.12 1.67 1.28.04.73-.37.89-.94.79zm22.1-66.29c-.63.25-1.39.45-1.65 1.48 1.41.09 2.54-.92 3.85-.94.3-.36.7-.31 1.09-.33.73-.42 1.52-.55 2.32-.65 1.96-.24 3.81-.82 5.52-1.91.25-.15.51-.28.78-.38.41-.16.92-.36 1.1.22.15.49-.38.66-.7.82-2.01.96-4.12 1.55-6.29 1.9-.79.13-1.6.2-2.4.29l-1.42.33c-.03.04-.07.08-.08.12-.01.04-.01.12.01.13.55.42 1.18.28 1.77.29 3.85.05 7.68.16 11.43 1.35 2.46.78 4.58-.13 6.35-2.13 1.78-2.01 3.1-4.39 4.32-6.83.41-.82 1.07-1.57 1.07-2.54 0-2.65.81-4.91 2.33-6.92.34-.45.88-1.14.37-1.66-.53-.54-1.29-.28-1.79.31-2.01 2.37-4.6 3.6-7.37 4.18-2.76.59-4.9 2.14-6.86 4.21-1.03 1.09-2.09 2.15-3.13 3.23-1.51 1.58-3.26 2.7-5.24 3.41-1.8.65-3.6 1.3-5.38 2.02z" id="Фигура_4_1_"/></g><g id="Фигура_4_3_" class="st0"><path class="st3" d="M66.97 148.07h-1.1v11.2h-7.29v-11.2h-1.11v12.26H67.5v4.16h1.11v-5.22h-1.64v-11.2zm12.08 5.77v-.08c.86-.17 1.48-.48 1.86-.92.38-.44.57-1.04.57-1.82 0-.96-.35-1.7-1.05-2.2-.7-.5-1.74-.75-3.14-.75h-5.18v12.26h5.15c1.49 0 2.62-.32 3.4-.95.77-.63 1.16-1.54 1.16-2.72 0-.85-.22-1.5-.66-1.96-.42-.46-1.13-.74-2.11-.86zm-5.81-4.71h4.02c1.02 0 1.78.15 2.29.46.51.31.76.82.76 1.53 0 .77-.25 1.33-.74 1.68-.49.35-1.31.53-2.45.53h-3.88v-4.2zm4.13 10.14h-4.13v-4.89h3.97c2.3 0 3.45.75 3.45 2.25 0 1.76-1.1 2.64-3.29 2.64zm13.29-11.44c-1.62 0-2.91.59-3.87 1.77-.96 1.18-1.44 2.74-1.44 4.7 0 1.98.5 3.52 1.49 4.61.99 1.1 2.37 1.65 4.15 1.65.7 0 1.35-.05 1.93-.16.58-.11 1.22-.31 1.91-.61v-1.02c-.81.32-1.48.53-2 .63-.53.1-1.14.15-1.84.15-1.43 0-2.53-.44-3.29-1.33-.77-.89-1.16-2.17-1.17-3.86h8.79v-.9c0-1.73-.41-3.1-1.24-4.11-.85-1.01-1.98-1.52-3.42-1.52zm-4.08 5.53c.12-1.46.54-2.59 1.25-3.36.71-.78 1.66-1.17 2.83-1.17 1.09 0 1.93.4 2.55 1.2.61.8.92 1.91.92 3.33h-7.55zm11.43-4.32h4.17v11.29h1.1v-11.29h4.06v-.97h-9.33v.97zm17.47-1.21c-1.68 0-3.01.56-3.97 1.68-.97 1.12-1.45 2.67-1.45 4.67 0 1.27.22 2.39.65 3.36.43.97 1.06 1.71 1.88 2.23.81.52 1.76.78 2.83.78 1.7 0 3.03-.56 4-1.69.97-1.12 1.45-2.69 1.45-4.69 0-1.97-.48-3.52-1.43-4.65-.97-1.12-2.29-1.69-3.96-1.69zm3.1 10.29c-.74.94-1.78 1.42-3.13 1.42s-2.39-.47-3.13-1.42c-.74-.94-1.11-2.26-1.11-3.94 0-1.7.37-3.01 1.09-3.94.73-.93 1.77-1.39 3.12-1.39s2.39.47 3.14 1.4c.75.93 1.12 2.24 1.12 3.93.01 1.68-.36 3-1.1 3.94zm14.71-4.67c-.72.58-1.41 1-2.08 1.26-.67.26-1.36.39-2.1.39-1.04 0-1.81-.23-2.31-.69-.5-.46-.75-1.21-.75-2.24v-4.1h-1.1v4.24c0 1.23.32 2.18.96 2.83.64.66 1.58.98 2.83.98.84 0 1.62-.13 2.34-.37.72-.25 1.46-.66 2.2-1.24v5.82h1.11v-12.26h-1.11v5.38zm14.97 0h-7.75v-5.38h-1.11v12.26h1.11v-5.91h7.75v5.91h1.1v-12.26h-1.1v5.38zm10.34-5.6c-1.31 0-2.63.32-3.97.95l.41.97c1.21-.63 2.38-.95 3.51-.95 1.05 0 1.81.3 2.28.89.47.59.71 1.47.71 2.64v.81l-2.32.07c-1.88.04-3.31.39-4.31 1.05-.99.66-1.49 1.59-1.49 2.78 0 1.09.33 1.94 1 2.56.66.62 1.6.93 2.79.93.88 0 1.65-.17 2.3-.49.65-.33 1.28-.88 1.89-1.67h.09l.28 1.94h.82v-8.15c0-1.48-.33-2.57-.99-3.27-.66-.71-1.66-1.06-3-1.06zm2.9 7.45c0 1.33-.38 2.37-1.13 3.12-.75.75-1.78 1.12-3.08 1.12-.85 0-1.51-.21-1.98-.64-.47-.43-.7-1.02-.7-1.79 0-.96.37-1.67 1.1-2.13.73-.45 1.95-.72 3.66-.81l2.13-.09v1.22zm6.01-6.27c-.75.64-1.12 1.52-1.12 2.63 0 .89.25 1.63.74 2.2.5.57 1.31.96 2.43 1.17l-3.68 5.29h1.4l3.42-5.15h3.73v5.15h1.1v-12.26h-5.03c-1.24.01-2.25.33-2.99.97zm6.93 5.08h-3.61c-1.09 0-1.91-.2-2.45-.61-.54-.41-.81-1.04-.81-1.88 0-.81.26-1.43.77-1.85.51-.42 1.23-.64 2.16-.64h3.95v4.98zm19.37 3.05l-.7 1.97c-.18-.63-.41-1.31-.68-2.04l-3.52-9.02h-1.47v12.26h1.01v-10.95c.15.44.29.86.41 1.24s.26.75.4 1.09l3.38 8.61h.99c2.26-5.8 3.48-8.95 3.66-9.45.18-.5.36-.98.52-1.45v10.9h1.05v-12.26h-1.54l-3.51 9.1zm14.29-9.31c-1.31 0-2.63.32-3.97.95l.41.97c1.21-.63 2.38-.95 3.51-.95 1.05 0 1.81.3 2.28.89.47.59.71 1.47.71 2.64v.81l-2.32.07c-1.88.04-3.31.39-4.31 1.05-.99.66-1.49 1.59-1.49 2.78 0 1.09.33 1.94 1 2.56.66.62 1.6.93 2.79.93.88 0 1.65-.17 2.3-.49.65-.33 1.28-.88 1.89-1.67h.1l.28 1.94h.82v-8.15c0-1.48-.33-2.57-.99-3.27-.67-.71-1.66-1.06-3.01-1.06zm2.9 7.45c0 1.33-.38 2.37-1.13 3.12-.75.75-1.78 1.12-3.08 1.12-.85 0-1.51-.21-1.98-.64-.47-.43-.7-1.02-.7-1.79 0-.96.37-1.67 1.1-2.13.73-.45 1.95-.72 3.66-.81l2.13-.09v1.22zm10.99-6.45c.78 0 1.7.18 2.75.53l.3-.99c-.97-.37-1.98-.55-3.03-.55-1.78 0-3.19.57-4.21 1.7s-1.54 2.71-1.54 4.74c0 1.98.49 3.52 1.48 4.62s2.35 1.66 4.1 1.66c1.27 0 2.29-.19 3.06-.58v-1.04c-.95.4-1.98.6-3.09.6-1.39 0-2.46-.47-3.23-1.4-.77-.94-1.16-2.23-1.16-3.88 0-1.75.39-3.08 1.16-4.01.78-.94 1.91-1.4 3.41-1.4zm5.24.19h4.17v11.29h1.1v-11.29h4.06v-.97h-9.33v.97zm17.35-1.21c-1.62 0-2.91.59-3.87 1.77-.96 1.18-1.44 2.74-1.44 4.7 0 1.98.5 3.52 1.49 4.61.99 1.1 2.37 1.65 4.15 1.65.7 0 1.35-.05 1.93-.16.58-.11 1.22-.31 1.91-.61v-1.02c-.81.32-1.48.53-2 .63-.53.1-1.14.15-1.84.15-1.43 0-2.53-.44-3.29-1.33-.77-.89-1.16-2.17-1.17-3.86h8.79v-.9c0-1.73-.41-3.1-1.24-4.11-.84-1.01-1.98-1.52-3.42-1.52zm-4.07 5.53c.12-1.46.54-2.59 1.25-3.36.71-.78 1.66-1.17 2.83-1.17 1.09 0 1.93.4 2.55 1.2.61.8.92 1.91.92 3.33h-7.55zm18.25-5.53c-1.84 0-3.18.66-4.02 1.98h-.07l-.21-1.75h-.94v17.8h1.11v-4.67c0-.66-.01-1.27-.05-1.82l-.03-.95h.08c.86 1.41 2.23 2.12 4.11 2.12 1.57 0 2.81-.55 3.72-1.66.91-1.11 1.36-2.67 1.36-4.69 0-2.08-.43-3.66-1.3-4.74-.85-1.07-2.11-1.62-3.76-1.62zm2.86 10.33c-.69.93-1.65 1.4-2.9 1.4-1.44 0-2.49-.41-3.13-1.23-.64-.82-.96-2.19-.96-4.11v-.36c0-1.77.33-3.05 1-3.84.67-.78 1.71-1.18 3.13-1.18 2.59 0 3.88 1.8 3.88 5.4.01 1.69-.34 2.99-1.02 3.92zm11.52-9.31c.78 0 1.7.18 2.75.53l.3-.99c-.97-.37-1.98-.55-3.03-.55-1.78 0-3.19.57-4.21 1.7s-1.54 2.71-1.54 4.74c0 1.98.49 3.52 1.48 4.62s2.35 1.66 4.1 1.66c1.27 0 2.29-.19 3.06-.58v-1.04c-.95.4-1.98.6-3.09.6-1.39 0-2.46-.47-3.23-1.4-.77-.94-1.16-2.23-1.16-3.88 0-1.75.39-3.08 1.16-4.01.78-.94 1.91-1.4 3.41-1.4zm14.83-.78h-1.38l-5.49 5.95v-5.95h-1.14v12.26h1.14v-6.21l5.77 6.21h1.49L282.5 154l5.47-5.93zm7.7-.22c-1.31 0-2.63.32-3.97.95l.41.97c1.21-.63 2.38-.95 3.51-.95 1.05 0 1.81.3 2.28.89.47.59.71 1.47.71 2.64v.81l-2.32.07c-1.88.04-3.31.39-4.31 1.05-.99.66-1.49 1.59-1.49 2.78 0 1.09.33 1.94 1 2.56.66.62 1.6.93 2.79.93.88 0 1.65-.17 2.3-.49.65-.33 1.28-.88 1.89-1.67h.09l.28 1.94h.82v-8.15c0-1.48-.33-2.57-.99-3.27-.66-.71-1.66-1.06-3-1.06zm2.9 7.45c0 1.33-.38 2.37-1.13 3.12-.75.75-1.78 1.12-3.08 1.12-.85 0-1.51-.21-1.98-.64-.47-.43-.7-1.02-.7-1.79 0-.96.37-1.67 1.1-2.13.73-.45 1.95-.72 3.66-.81l2.13-.09v1.22zm9.01-7.23c-1.26 0-2.26.32-3 .96-.75.64-1.12 1.52-1.12 2.63 0 .89.25 1.63.75 2.2.5.57 1.31.96 2.43 1.17l-3.68 5.29h1.4l3.42-5.15h3.73v5.15h1.1v-12.26h-5.03zm3.93 6.04h-3.61c-1.09 0-1.91-.2-2.45-.61-.54-.41-.81-1.04-.81-1.88 0-.81.26-1.43.77-1.85.51-.42 1.23-.64 2.16-.64h3.95v4.98z" id="Фигура_4_2_"/></g></svg>