<svg id="Фигура_4_1_" xmlns="http://www.w3.org/2000/svg" viewBox="0 0 87 31"><style>.st0{fill-rule:evenodd;clip-rule:evenodd;fill:#fff}</style><path class="st0" d="M86.79 29.74c-.62-.16-.72-.72-.87-1.28-.72-2.77-1.46-5.53-2.17-8.3-.08-.33-.2-.42-.5-.41-.86.02-1.72.01-2.58.01-.56 0-.62.06-.72.66-.03.19.04.34.08.51.46 1.86.92 3.72 1.4 5.58.07.29.05.41-.25.39-.36-.02-.72.03-1.07-.01-.44-.06-.61.14-.69.59-.05.3.03.35.27.34.55-.01 1.09.02 1.64-.01.33-.02.52.07.55.46.01.09.04.18.06.28.17.73.17.73-.38 1.15-.26.2-.23.51.06.67.15.08.3.08.46.08h4.13c.3 0 .57-.07.79-.29v-.19c-.07-.09-.13-.21-.21-.23zM9.31 13.88c.73-.69 1.39-1.48 2.25-2.04-.18-.16-.33-.1-.48-.07-.64.11-1.26.31-1.91.35-.19.01-.5.07-.51-.17-.01-.22.29-.24.49-.24.85 0 1.69-.14 2.52-.3.47-.09.93-.25 1.45-.4-.1-.09-.13-.14-.17-.15-1.32-.32-2.64-.3-3.97-.08-1.16.19-2.11.85-3.05 1.56-.68.51-1.35 1.08-2.17 1.21-1.38.22-2.55.87-3.6 1.85-.06.03-.11.06-.16.1v.1c.3.15.61.13.93.04.45-.12.91-.27 1.36-.12 1.29.44 2.55.2 3.82-.12 1.15-.29 2.31-.68 3.2-1.52zm1.41 4.74c.81-.18 1.4-.65 1.8-1.47.4-.82.83-1.63 1.33-2.39.9-1.37 2.11-2.16 3.65-2.3 1.14-.1 2.22.26 3.31.52.91.22 1.78.64 2.72.7 2.58.16 4.4-1.23 5.76-3.51.11-.19.34-.41.11-.67-.23-.26-.52-.28-.8-.15-.18.09-.34.24-.5.37-.73.64-1.56.92-2.48.9-.71-.02-1.39-.2-2.07-.41-1.45-.45-2.91-.77-4.41-.43-.93.21-1.76.78-2.69.97-.96.19-1.77.68-2.49 1.41-.5.51-1.13.81-1.79.98-.14.04-.3.12-.49-.12.93-.48 1.83-.96 2.57-1.82-1.21-.11-2.13.43-2.97 1.2-1.02.93-1.77 2.11-2.48 3.33-.35.6-.66 1.29-1.31 1.53-1.16.42-1.42 1.52-1.86 2.6.25.04.35-.07.45-.14.79-.56 1.64-.88 2.6-.8.7.06 1.37-.15 2.04-.3zm37.1-8.74c.11.43 0 .48-.34.46-.31-.02-.64.04-.95-.02-.5-.09-.65.18-.72.65-.03.22-.01.28.19.28.46-.01.92 0 1.38 0 .77 0 .75.01.98.82.14.49.14.87-.38 1.05-.15.05-.23.19-.21.37.02.18.13.28.28.32.14.04.28.06.42.06.69.01 1.38 0 2.07 0h2.07c.14 0 .29-.02.42-.05.16-.04.3-.13.3-.34.01-.19-.1-.31-.24-.35-.49-.13-.6-.56-.72-1.01-.74-2.84-1.49-5.68-2.23-8.53-.06-.22-.1-.4-.38-.39-.99.02-1.98.01-2.97 0-.19 0-.28.08-.34.27-.1.31-.11.6-.03.92.48 1.83.91 3.66 1.4 5.49zm21.52 0c.63.26 1.26.51 1.89.78.27.11.53.25.76.45.64.56.57 1.4-.16 1.8-.2.11-.43.16-.65.25-.36.15-.15.49-.18.74-.03.26.19.19.31.18 1-.09 1.95-.36 2.78-1.03 1.71-1.39 1.71-3.78.01-5.18-.53-.43-1.13-.68-1.74-.93-.68-.28-1.39-.5-2.03-.9-.39-.25-.7-.58-.65-1.13.05-.52.39-.76.79-.89.25-.09.36-.22.3-.51-.03-.19.13-.5-.27-.47-.95.08-1.84.32-2.61.96-1.54 1.28-1.56 3.72-.03 5.02.46.35.96.64 1.48.86zm-12.67-.77c.41.32.86.57 1.33.77.63.26 1.26.51 1.89.78.31.13.61.28.85.54.49.52.42 1.25-.16 1.64-.22.15-.47.22-.72.3-.38.13-.17.48-.2.73-.03.3.2.21.34.2.91-.08 1.79-.32 2.56-.89.88-.65 1.44-1.54 1.46-3.12.02-.44-.26-1.11-.76-1.69-.44-.52-.97-.89-1.57-1.14-.74-.31-1.48-.61-2.21-.93-.24-.1-.47-.23-.68-.4-.71-.57-.62-1.43.17-1.83.09-.05.19-.08.28-.12.36-.16.15-.5.17-.74.03-.3-.22-.18-.35-.17-.78.05-1.53.26-2.21.71-1.88 1.22-1.98 3.96-.19 5.36zm21.9 3.91c-.23.04-.44.16-.41.45.02.32.28.39.51.39 1.52.01 3.04.01 4.56 0 .23 0 .48-.05.51-.39.03-.31-.19-.4-.41-.46-.31-.07-.47-.26-.46-.63V4.63c0-.31.11-.51.4-.58.24-.06.51-.13.47-.5-.05-.38-.36-.36-.61-.36-.7-.01-1.41 0-2.11 0H78.7c-.24 0-.49.05-.54.36-.05.33.2.44.43.49.34.07.43.29.43.64-.01 2.55-.01 5.1 0 7.65 0 .39-.1.63-.45.69zM33.21 29.57c-.47-.06-.6-.35-.59-.85.02-1.39.01-2.79.01-4.18v-4.37c0-.25-.01-.41-.31-.41-1.29.02-2.58.01-3.87.01-.24 0-.49.03-.54.35-.05.33.19.45.42.49.36.08.45.32.45.68-.01 2.53-.01 5.07 0 7.6 0 .37-.11.6-.45.68-.22.05-.43.14-.42.45.02.34.28.39.5.4 1.58.01 3.15.01 4.73 0 .24 0 .52-.06.54-.42.02-.33-.23-.4-.47-.43zm35.2.05c-.09-.04-.19-.06-.29-.08-.38-.06-.52-.29-.52-.72.02-1.43.01-2.85.01-4.28v-4.42c0-.2.02-.37-.25-.37-1.33.01-2.67 0-4 .01-.22 0-.45.06-.47.37-.03.28.16.41.36.45.42.08.51.36.51.78-.01 2.41-.01 4.82 0 7.23 0 .52-.02.95-.6 1.04-.16.02-.27.17-.27.38 0 .24.14.33.32.38.13.03.25.05.38.05h4.3c.17 0 .34-.03.51-.08.16-.05.28-.17.27-.38-.01-.2-.12-.3-.26-.36zm-23.27-9.43c-.01-.36-.28-.42-.53-.42-1.59-.01-3.19-.01-4.78 0-.22 0-.44.07-.47.38-.02.28.17.4.37.44.42.08.5.36.5.79-.01 2.39-.01 4.79 0 7.18 0 .53 0 .99-.61 1.08-.16.02-.27.18-.26.38 0 .21.13.31.29.35.15.04.31.06.47.06.59.01 1.18 0 1.77 0h1.64c.63-.01.56.09.56-.59 0-2.81.01-5.61 0-8.42 0-.47.12-.76.59-.8.21-.02.47-.09.46-.43zm-14.47-7.12c-.18.03-.3.18-.29.41.01.24.17.32.34.36.14.03.28.04.43.04h4.17c.1 0 .2.01.3-.01.24-.05.53-.08.54-.43.01-.32-.25-.4-.48-.43-.47-.06-.6-.36-.6-.85.02-1.39.01-2.79.01-4.18V3.61c0-.17.08-.4-.21-.4-1.35.01-2.7 0-4.04.01-.21 0-.41.07-.44.35-.03.28.13.42.35.46.44.08.53.37.53.81-.01 2.41-.01 4.82 0 7.22-.01.51-.04.93-.61 1.01zm42.89 15.59c-.06.05-.11.1-.16.16-.08.08-.16.14-.27.09-.12-.05-.11-.17-.11-.28V27.2c0-.59-.23-1.03-.68-1.35a3.12 3.12 0 0 0-1.07-.48c-.26-.06-.52-.11-.87-.19.48-.18.87-.29 1.25-.47.96-.45 1.44-1.28 1.41-2.37-.03-1.04-.64-1.83-1.74-2.27-.84-.33-1.72-.33-2.59-.31-.15 0-.43-.16-.43.2 0 .28-.15.62.28.76.54.18.67.43.68 1.06.01.68.01 1.36 0 2.04-.01.61-.16.85-.68.98-.24.06-.31.19-.28.42.02.21-.09.45.25.55.53.15.7.46.71 1.08 0 .54-.01 1.08 0 1.62.02.94.46 1.63 1.26 1.94.67.26 1.35.26 2.04.11.71-.16 1.26-.58 1.66-1.24.13-.21.18-.44-.03-.64-.21-.17-.42-.16-.63.02zm-18.92 1.1c-.66-.25-.68-.83-.68-1.42-.01-2.22 0-4.44-.01-6.65 0-.57.11-1.02.66-1.24.32-.13.16-.47.15-.71 0-.29-.23-.16-.37-.15-2.62.14-4.53 2.48-4.53 5.52 0 3.04 1.8 5.22 4.56 5.5.12.01.34.13.33-.13.01-.24.19-.6-.11-.72zm1.18-10.18c-.11-.01-.34-.16-.34.11 0 .25-.18.61.15.75.54.23.67.67.67 1.24-.01 2.2 0 4.41 0 6.61 0 .16-.02.32-.03.47-.04.46-.21.8-.63.98-.34.14-.14.49-.15.74-.01.26.22.13.33.12 2.77-.29 4.57-2.45 4.57-5.49.01-3.06-1.89-5.36-4.57-5.53zM36.14 4.13c.51.13.65.42.66 1.01.01.81-.01 1.61 0 2.42.01.66-.12 1.18-.8 1.36-.33.09-.11.43-.16.65-.04.17.07.22.21.21 1-.02 2.01-.06 2.94-.56 1.09-.58 1.63-1.54 1.6-2.88-.03-1.29-.66-2.11-1.67-2.64-.73-.38-1.52-.44-2.36-.49-.06 0-.18-.02-.29.01-.15.04-.42-.16-.43.19-.01.26-.16.61.3.72zm-14.75 9.53c-1.02-.46-2.06-.77-3.1-.81-1.76-.01-3.27.85-4.15 2.3-.15.24-.19.42.02.65.27.3.51.64.75.98.14.2.24.2.42.06.46-.35.94-.67 1.39-1.03.36-.29.65-.82 1.03-.88.37-.06.8.34 1.22.5 1.03.39 2.15-.19 2.59-1.3.1-.26.05-.37-.17-.47zm-3.3 1.64c-.11-.09-.19-.09-.3.02-.7.72-1.51 1.25-2.36 1.71-.21.11-.19.22-.06.39.25.33.57.55.94.63 1.44.3 2.8.06 4.03-.84.65-.47 1.02-1.17 1.07-2.16-1.12.97-2.2 1.09-3.32.25zm24.88-1.43c.8.01 1.61.01 2.41 0 .22 0 .46-.05.5-.35.04-.3-.19-.39-.39-.49-.73-.33-.81-.54-.56-1.38.45-1.5.9-3 1.36-4.5.06-.18.11-.36.05-.55-.12-.44-.24-.87-.37-1.32-.15.15-.16.35-.22.53-.59 1.92-1.17 3.84-1.74 5.76-.2.68-.53 1.22-1.19 1.45-.21.07-.49.14-.44.48.06.32.34.37.59.37zm36.07 15.7c-.65-.29-.76-.55-.53-1.29.39-1.31.73-2.64 1.21-3.91.35-.92.16-1.71-.17-2.56-.05.16-.1.29-.14.42-.6 1.96-1.2 3.93-1.79 5.89-.21.71-.56 1.24-1.24 1.45-.07.02-.13.06-.2.1-.12.07-.22.17-.2.33.01.16.11.26.23.31.13.05.28.1.42.1.76.01 1.52.01 2.28 0 .24 0 .53-.02.57-.37.04-.3-.22-.37-.44-.47zM57.11 11.89c-.34-.46-.58-.97-.75-1.53-.09-.3-.26-.45-.55-.39-.28.06-.41.27-.41.57v1.38c0 .49-.01.98 0 1.47 0 .23.06.45.27.55.22.11.43.05.59-.14.26-.32.56-.33.9-.18.47.2.94.39 1.44.44.13.01.4.17.39-.16-.01-.26.21-.65-.25-.77-.68-.18-1.19-.66-1.63-1.24zm11.73.46c-.53-.54-.89-1.19-1.12-1.94-.09-.3-.24-.51-.56-.45-.34.06-.42.32-.42.66.01.44 0 .89 0 1.33v1.38c0 .27.04.52.29.63.23.1.42.01.58-.18.24-.28.51-.31.82-.18.47.2.94.4 1.44.46.15.02.43.18.45-.14.02-.27.21-.68-.28-.79-.46-.12-.84-.42-1.2-.78zm-8.46-8.4c1.15.34 1.89 1.15 2.23 2.4.09.33.29.47.58.44.32-.04.46-.27.46-.63-.01-.41 0-.82 0-1.24 0-.41.01-.82 0-1.24 0-.24-.03-.49-.27-.6-.26-.12-.45.01-.6.23-.19.29-.42.28-.69.17-.5-.21-1.01-.38-1.54-.43-.13-.01-.4-.18-.4.15 0 .26-.2.63.23.75zM47.86 26.76c-.19-.07-.38-.06-.52.11-.08.1-.15.24-.19.37-.4 1.15-.97 2.07-2.19 2.29-.35.06-.13.45-.17.69-.04.25.14.22.28.22h1.33c.47 0 .95-.01 1.42 0 .18 0 .25-.06.25-.27-.01-1 0-2 0-2.99.01-.2-.04-.36-.21-.42zM71.9 4.01c.31.05.59.24.85.44.6.48 1.01 1.11 1.21 1.9.08.33.29.47.58.43.3-.04.44-.24.43-.59-.01-.43 0-.85 0-1.28V3.58c0-.22-.05-.41-.26-.5-.22-.08-.42-.02-.54.18-.23.36-.5.34-.83.2-.5-.21-1.01-.35-1.54-.42-.24-.03-.32.04-.33.32-.01.36.05.59.43.65zM36.57 19.76c-.46.01-.92 0-1.38 0h-1.46c-.18 0-.38-.02-.33.27.04.24-.18.61.25.67 1.14.15 1.94.78 2.37 1.98.09.25.29.33.53.28.24-.05.32-.23.32-.48 0-.81-.01-1.62 0-2.43.01-.26-.1-.3-.3-.29zm-1.55 3.1c-.26-.04-.46.08-.53.36-.14.6-.45 1.01-.97 1.24-.31.13-.15.43-.17.66-.02.14-.06.31.15.38.54.17.81.61.97 1.17.09.33.28.51.61.45.33-.07.31-.37.32-.63.01-.49 0-.98 0-1.47v-1.61c-.01-.3-.1-.51-.38-.55zM17.03 8.2c.29-.9.42-1.88.97-2.72.14.28.04.47-.03.65-.22.62-.45 1.23-.66 1.85-.05.14-.19.33-.02.42.19.11.25-.15.33-.27.18-.26.28-.58.38-.89.15-.48.34-.94.6-1.36.07-.12.14-.32.33-.18.15.11.13.29.04.42-.47.71-.58 1.62-1.12 2.28-.07.09-.2.18-.13.32.08.15.22.18.38.12.52-.71 1.03-1.42 1.56-2.13.16-.21.38-.57.6-.36.25.24-.11.48-.25.68-.51.74-1.11 1.39-1.84 1.88 0 .1.03.16.12.12.84-.36 1.69-.71 2.53-1.07.25-.11.29-.32.09-.51-.45-.44-.36-.91-.1-1.41.07-.14.24-.31.02-.44-.19-.12-.27.07-.37.21-.08.12-.14.28-.34.17-.43-.26-.75-1.15-.57-1.65.06-.16.14-.33 0-.48-.14-.16-.3-.05-.43.03-.93.52-1.65 1.24-1.99 2.37-.12.42-.26.84-.42 1.24-.13.39-.08.62.32.71zM13.5 9.91c.07-.12-.01-.2-.09-.27-.53-.44-.97-.98-1.44-1.49-.07-.08-.14-.16-.27-.18-.06 0-.13.02-.15.11-.03.15.05.24.13.33.48.55 1.03 1.01 1.57 1.47.08.05.16.19.25.03zm.2-.47c.04-.04.06-.11.09-.17-.04-.05-.07-.1-.1-.15-.28-.38-.55-.77-.83-1.15-.07-.09-.14-.25-.27-.14-.1.09-.07.23-.01.35.25.47.59.86.95 1.22.03.04.09.12.17.04zM8.46 3.82c.29-.37.57-.42.98-.3.75.24 1.5.35 2.08-.47.18-.25.36-.15.5.12.21.42.26.9.42 1.34.18.49.13.58-.33.66-.35.06-.68.12-.84.54-.05.14-.15.16-.28.07-.32-.23-.63-.08-.94.07-.1.05-.23.12-.21.26.02.12.14.14.24.16.41.1.79.27 1.17.45.36.17.73.18 1.08-.03.25-.15.26-.33-.01-.47-.17-.09-.35-.13-.53-.2-.1-.04-.25-.05-.26-.21-.01-.17.12-.25.24-.3.41-.18.83-.22 1.18.1s.71.64.99 1.06c.7 1.04.73 1.57.11 2.68-.16.33-.35.65-.37 1.05-.02.3.04.48.37.47 1.36-.03 2.62-.47 3.85-1.04.22-.1.23-.25.06-.43-.51-.54-1.06-1-1.77-1.2-.79-.22-1.41-.69-1.53-1.69-.02-.15-.08-.3-.15-.44-.27-.5-.27-.52.26-.68.63-.19 1.22-.47 1.67-1.01.1-.12.19-.24.12-.42-.09-.2-.24-.14-.37-.09-.31.11-.63.21-.97.2-.35 0-.64.14-.84.48-.02.09-.07.24-.04.26.27.21.1.39-.04.53-.21.22-.51.34-.75.2-.25-.13-.07-.37.09-.47.23-.16.48-.28.65-.53 0-.35-.28-.45-.48-.62-.41-.33-.81-.63-1.19-.96-.08-.06-.17-.16-.12-.28.04-.12.17-.11.27-.11.07 0 .15-.01.21.01.91.32 1.47-.2 1.92-.98.09-.16.19-.32.35-.4.15-.08.27-.05.25.16-.02.25-.06.49.24.56.3.07.54-.03.7-.33.14-.26.28-.52.41-.78.25-.5.24-.56-.21-.83h-.34c-.23.19-.46.37-.54.71-.02.09-.08.18-.19.15-.47-.13-.7.21-.9.56-.43.78-1.02 1.06-1.83.79-.2-.07-.43-.08-.55.21-.12.29-.26.27-.38 0-.13-.29-.35-.4-.62-.45-.35-.06-.71-.13-1.06-.2-.26-.05-.31-.27-.29-.5.03-.3.23-.12.37-.13.06 0 .11.04.17.04.22.02.4-.07.48-.31.09-.25-.02-.42-.22-.54C10.35.12 9.95.09 9.55.1c-.28 0-.31.28-.36.51-.05.22.06.34.23.37.22.03.25.19.22.37-.08.48.16.66.53.73.34.06.68.11 1.02.19.27.06.34.24.16.48-.29.4-.61.74-1.15.69-.31-.04-.59-.15-.87-.24-.25-.08-.47-.14-.68.09-.15.16-.22.05-.33-.1-.27-.37-.69-.35-.95.02-.12.17-.26.25-.45.16-.16-.07-.37.1-.43.26-.06.17-.1.28.06.4.52.39 1.48.33 1.91-.21zm7.88 4.08c.09 0 .11-.07.12-.16.05-.63-.04-1.24-.24-1.84-.19.63.03 1.27-.05 1.91-.01.07.1.09.17.09zm-7.1 1.2l.3.06c1.12.28 2.15.86 3.27 1.14.17.04.34.1.62 0-.6-.35-1.18-.57-1.64-.97-.9-.78-1.9-.88-2.97-.8-.22.03-.43.03-.65.05-.45.03-.82-.12-1.07-.55-.2-.34-.37-.23-.51.04-.07.15-.11.33-.13.5-.1.91.35 1.56.85 2.2.1.13.24.15.39.09 1.21-.47 2.47-.52 3.73-.48.19.11.4.08.61.1.11.09.24.08.36.09.11.11.23.12.42.03-.14-.05-.24-.08-.34-.11-.11-.03-.22-.07-.33-.1-.11-.03-.23-.06-.34-.1-.91-.36-1.86-.61-2.74-1.08-.08-.04-.18-.11-.14-.15.09-.09.22-.05.31.04zm27.59 7.37c1.65.1 3.33.14 4.87.98.13.07.31.06.46.04.32-.04.63.02.93.11.8.24 1.61.45 2.41.71 1.52.49 3.04.61 4.59.23 1.82-.44 3.59-1.11 5.37-1.69 2.51-.81 4.99-.89 7.51-.14 1.68.5 3.37.89 5.12.95 1.78.06 3.46-.46 5.13-1.07 1.36-.5 2.7-1.08 4.12-1.33 2.12-.37 4.08 0 5.81 1.5.68.59 1.14 1.32 1.35 2.25.14.61.27 1.23.52 1.8.05.18.1.37.31.45l-.23-.55c-.13-.6-.29-1.19-.4-1.8-.18-.97-.63-1.75-1.32-2.38-1.67-1.52-3.62-1.89-5.7-1.67-1.47.15-2.84.73-4.23 1.24-1.87.69-3.75 1.31-5.75 1.17-1.52-.11-3.01-.42-4.48-.88-2.68-.84-5.34-.85-8.01.07-1.28.45-2.59.83-3.88 1.24-1.4.45-2.82.79-4.28.52-1.4-.26-2.75-.78-4.12-1.15a.334.334 0 0 1-.22-.2c-.16-.38-.28-.67-.75-.85a5.66 5.66 0 0 1-1.61-.98c-.47-.4-.93-.82-1.18-1.5.81.26 1.29.17 1.65-.25.36-.42.25-.91-.26-1.04-.45-.11-.92-.09-1.27.24-.35.33-.43.11-.54-.2-.11-.3-.01-.53.19-.72.33-.3.67-.59 1.01-.88.18-.1.33-.22.47-.51-.27.11-.43.25-.57.41-.4.24-.8.51-1.14.85-.2.2-.4.46-.28.75.25.62.35 1.29.64 1.89.31.64.83 1.08 1.37 1.48.38.27.67.63 1.06 1.09-.24-.05-.34-.06-.43-.09-1.26-.31-2.54-.52-3.83-.61-3.32-.22-6.59.15-9.79 1.15-.36.11-.71.24-1.08.04-.19-.11-.39-.01-.52.13-.4.4-.76.21-1.11-.08-.26-.22-.52-.46-.74-.72-.58-.67-1.3-1.08-2.07-1.42-.1-.04-.2-.15-.28.04-.24.51-.1.95.39 1.14.75.28 1.47.61 2.05 1.25.32.35.74.54 1.18.64.15.04.33.01.3.29-.03.24-.17.32-.37.28-.28-.05-.56-.15-.84-.18-1.91-.19-3.57.36-4.86 2.01-.13.17-.29.31-.42.47-.43.54-.93.61-1.51.32-.19-.1-.41-.15-.62-.2-.9-.18-1.79-.24-2.61.37-.91.68-1.44 1.8-2.36 2.47-.11.08-.16.24-.09.38s.21.16.34.13c.11-.03.22-.07.33-.11.47-.17.94-.28 1.44-.16.42.1.76-.1 1.04-.42.27-.3.59-.5.95-.63.34-.13.65-.14.81.32.19.53.16.67-.28.97-.12.08-.25.15-.38.23-.73.44-.92.85-.8 1.74.2 1.43.59 2.81.93 4.19.05.21.17.34.36.34.18 0 .33-.1.39-.31.04-.15.07-.31.09-.46.14-.98.58-1.74 1.36-2.25.41-.26.81-.53 1.21-.83.49-.37.5-.5.17-1.02-.51-.8-.42-1.54.24-2.2.28-.27.51-.23.72.09.28.41.4.87.36 1.38-.05.64-.04.68.53.66.6-.02 1.03.26 1.33.78.15.26.3.42.58.24.28-.18.49-.53.34-.79-.42-.73-.28-1.46-.16-2.21.04-.22.01-.45-.2-.53-.54-.22-.86-.72-1.24-1.14-.32-.35-.67-.6-1.15-.51-.48.09-.97.05-1.46.08-.37.02-.69-.1-1-.38.45-.38.84-.79 1.19-1.25.34-.45.78-.74 1.27-.95 1.19-.49 2.38-.77 3.65-.27.54.21 1.02.09 1.48-.42.29-.32.49-.78.95-.92 3.14-.92 6.31-1.44 9.55-1.25zm2.95-3.86c.03-.01.05-.03.08-.03.27-.05.54-.11.78.09.09.08.08.19.03.3-.17.31-.43.44-.73.46-.28-.01-.61-.06-.65-.34-.06-.27.27-.38.49-.48zM17.5 24.67c-.06.38-.21.72-.44 1.01-.15.31-.33.6-.68.71.19-.28.39-.55.58-.83.31-.62.33-1.33.52-1.99.15-.49.26-1 .53-1.44.09-.15.17-.33.34-.39.03.06.06.09.05.1-.53.86-.75 1.83-.9 2.83zm-4.45 4.19c-.11.02-.17.03-.21-.13-.15-.65-.64-.93-1.22-.72-.2.08-.38.2-.39.45-.02.23.12.37.28.5.23.19.51.15.86.22-.91.97-3.52.79-3.78.79-.01 0-.02 0-.02.01-.1 0-.19.02-.17.11.03.12.13.06.19-.02.54-.02 2.59.01 3.06-.08.2-.04.43-.09.55-.25.39-.56.96-.67 1.52-.83.05-.02.1-.06.15-.09.14-.04.28-.07.35-.28-.19.02-.33.08-.45.18-.24.04-.48.09-.72.14zm-.83.03c-.26-.06-.6-.03-.64-.41-.02-.2.24-.23.42-.21.22.03.48.04.5.39.02.21-.1.26-.28.23zm6.67-19.93c-.19.08-.42.14-.5.44.42.03.77-.28 1.16-.28.09-.11.21-.09.33-.1.22-.13.46-.17.7-.19.59-.07 1.15-.25 1.67-.57.07-.05.15-.08.23-.11.12-.05.28-.11.33.07.05.15-.11.2-.21.25-.61.29-1.24.47-1.9.57-.24.04-.48.06-.72.09-.14.03-.29.07-.43.1-.01.01-.02.02-.03.04v.04c.16.13.36.08.53.09 1.16.01 2.32.05 3.45.41.74.23 1.38-.04 1.92-.64s.93-1.32 1.3-2.05c.12-.25.32-.47.32-.76 0-.8.24-1.48.7-2.08.1-.13.27-.34.11-.5-.16-.16-.39-.08-.54.09-.61.71-1.39 1.08-2.22 1.26-.83.18-1.48.64-2.07 1.26-.29.29-.61.61-.92.94-.46.47-.98.81-1.58 1.02-.55.19-1.09.39-1.63.61z" id="Фигура_4"/></svg>