<?xml version="1.0" encoding="utf-8"?>
<!-- Generator: Adobe Illustrator 20.1.0, SVG Export Plug-In . SVG Version: 6.00 Build 0)  -->
<svg version="1.1" id="Слой_1" xmlns="http://www.w3.org/2000/svg" xmlns:xlink="http://www.w3.org/1999/xlink" x="0px" y="0px"
	 viewBox="0 0 867.3 867.4" style="enable-background:new 0 0 867.3 867.4;" xml:space="preserve">
<style type="text/css">
	.st0{fill:#3B5998;}
</style>
<title></title>
<path class="st0" d="M0,0v867.4h867.3V0H0z M543.2,364.7h53.5v44.5v44.5h-53.5h-53.5v133v133h-51.5h-51.5v-133v-133h-46h-46v-44.5
	v-44.5h46h46v-32.1c0-34.9,1-45.7,5.6-61.6c12.6-43.4,46.2-78.3,85.7-88.8c14.4-3.9,20.6-4.2,71.5-4.4l47.2-0.1l-0.2,47.2l-0.3,47.3
	l-46,0.5c-52,0.6-48.8,0-54.4,8.8c-5.7,9.1-6.1,12.2-6.1,49.4v33.8L543.2,364.7L543.2,364.7z"/>
</svg>
