<svg id="Google_Plus" xmlns="http://www.w3.org/2000/svg" viewBox="0 0 488.3 487.2"><style>.st0{fill:#ce1d50}</style><path class="st0" d="M0 0v487.2h488.3V0H0zm179 356c-62.1 0-112.4-50.3-112.4-112.4S116.9 131.2 179 131.2c30.3 0 55.7 11.2 75.1 29.3l-31.7 31.6v-.1c-11.7-11.3-26.7-17-43.5-17-37.1 0-67.2 31.3-67.2 68.4s30.1 68.5 67.2 68.5c33.6 0 56.5-19.3 61.3-45.7h-61.3v-43.8h105.7c1.4 7.6 2.2 15.3 2.2 23.6.1 64.3-42.9 110-107.8 110zm224.7-98.4h-35.1v35.1h-28.1v-35.1h-35.1v-28.1h35.1v-35.1h28.1v35.1h35.1v28.1z"/></svg>